
{"glyphs":{"0":{"ha":807,"x_min":0,"x_max":0,"o":"m 656 72 l 849 72 l 849 0 l 604 0 b 604 0 604 0 604 0 l 490 0 b 593 108 529 22 564 58 b 665 413 639 190 665 299 b 593 717 665 528 639 636 b 404 850 543 803 476 850 b 215 717 331 850 264 803 b 142 413 168 636 142 528 b 215 108 142 299 168 190 b 317 0 243 58 278 22 l 203 0 b 203 0 203 0 203 0 l -42 0 l -42 72 l 151 72 b 69 413 99 165 69 286 b 151 753 69 540 99 661 b 254 872 181 803 214 843 b 404 924 299 906 351 924 b 554 872 456 924 508 906 b 656 753 593 843 628 803 b 738 413 708 661 738 540 b 656 72 738 286 708 165 m 617 413 b 550 133 617 307 593 207 b 404 24 510 63 458 24 b 257 133 349 24 297 63 b 190 413 214 207 190 307 b 257 693 190 519 214 618 b 404 801 297 763 349 801 b 550 693 458 801 510 763 b 617 413 593 618 617 519 m 488 169 b 543 413 524 232 543 321 b 488 657 543 506 524 594 b 404 729 461 701 431 729 b 319 657 378 729 346 701 b 264 413 285 594 264 506 b 319 169 264 321 285 232 b 404 97 346 124 378 97 b 488 169 431 97 461 124 "},"1":{"ha":592,"x_min":0,"x_max":0,"o":"m 485 72 l 633 72 l 633 0 l 485 0 l 485 0 l 413 0 l 413 0 l 413 836 b 411 840 413 838 413 839 b 411 842 411 842 411 842 b 411 843 411 842 411 843 b 410 847 411 844 410 846 l 410 847 b 410 847 410 847 410 847 b 408 850 408 849 408 849 b 407 850 408 850 407 850 b 407 851 407 851 407 851 b 406 853 406 851 406 853 b 406 853 406 853 406 853 b 404 854 404 854 404 854 b 403 854 404 854 403 854 b 401 856 403 856 403 856 b 401 856 401 856 401 856 b 400 857 401 857 400 857 b 399 857 400 857 400 857 b 399 858 399 857 399 858 b 397 858 397 858 397 858 b 396 858 397 858 396 858 b 394 860 396 858 396 860 b 394 860 394 860 394 860 b 393 860 393 860 393 860 b 392 860 392 860 392 860 b 390 860 392 860 390 860 b 388 860 389 860 389 860 b 388 860 388 860 388 860 b 388 860 388 860 388 860 b 383 860 386 860 385 860 b 382 860 382 860 382 860 b 381 860 382 860 381 860 b 376 857 379 858 378 858 l 376 857 l 154 736 b 144 703 143 729 138 714 b 165 690 149 694 157 690 b 178 693 169 690 174 692 l 364 794 l 364 0 l 364 0 l 290 0 l 290 0 l -42 0 l -42 72 l 290 72 l 290 672 l 213 629 b 167 617 197 621 182 617 b 81 668 132 617 99 635 b 119 800 54 715 72 774 l 340 921 b 360 929 347 924 353 926 b 360 929 360 929 360 929 b 364 931 361 929 363 929 b 368 931 365 931 367 931 b 368 931 368 931 368 931 b 393 933 376 933 385 933 b 393 933 393 933 393 933 b 397 933 394 933 396 933 b 400 932 399 932 399 932 b 401 932 400 932 401 932 b 406 932 403 932 404 932 b 407 932 406 932 406 932 b 410 931 408 931 408 931 b 411 931 411 931 411 931 b 415 929 413 931 414 929 b 415 929 415 929 415 929 b 419 928 417 929 418 928 b 419 928 419 928 419 928 b 424 926 421 928 422 926 b 424 926 424 926 424 926 b 428 925 425 925 426 925 b 429 924 428 925 428 924 b 432 922 429 924 431 924 b 433 922 432 922 432 922 b 436 921 433 922 435 921 b 438 919 436 921 436 919 b 439 918 438 919 439 919 b 442 917 440 918 440 918 b 443 917 442 917 443 917 b 446 914 444 915 444 915 b 446 914 446 914 446 914 b 450 911 447 913 449 913 b 450 911 450 911 450 911 b 453 908 451 910 453 908 b 453 908 453 908 453 908 b 457 904 454 907 456 906 b 457 904 457 904 457 904 b 460 901 458 904 458 903 b 460 901 460 901 460 901 b 463 899 461 900 463 899 b 464 897 463 897 463 897 b 465 894 464 896 465 896 b 467 893 465 894 467 893 b 468 890 467 892 468 892 b 471 888 469 890 469 889 b 471 888 471 888 471 888 b 481 864 475 881 478 872 b 481 864 481 864 481 864 b 482 860 482 863 482 861 b 483 856 482 858 483 857 b 483 856 483 856 483 856 b 485 836 485 849 485 842 l 485 72 "},"2":{"ha":860,"x_min":0,"x_max":0,"o":"m 792 72 l 901 72 l 901 0 l 758 0 l 758 0 l 101 0 l 101 0 l -42 0 l -42 72 l 69 72 b 110 151 69 104 83 133 b 515 617 449 396 506 558 b 500 696 519 650 515 675 b 433 733 490 710 472 728 b 242 674 369 742 288 710 b 104 692 199 642 138 650 b 122 828 72 735 81 796 b 461 925 196 885 328 943 b 656 813 542 914 608 875 b 707 588 701 750 719 672 b 439 169 688 458 596 317 l 694 169 b 792 72 749 169 792 126 m 694 49 b 718 72 708 49 718 60 b 694 97 718 86 708 97 l 239 97 b 507 347 350 182 440 267 b 635 599 579 438 624 522 b 597 769 644 664 632 721 b 450 853 563 815 511 844 b 167 771 347 867 235 822 b 163 736 157 763 154 747 b 197 732 171 726 186 724 b 444 806 254 776 356 817 b 558 740 493 799 531 776 b 586 606 585 703 594 658 b 151 93 564 461 410 279 b 143 65 143 86 140 75 b 167 49 146 56 156 49 l 694 49 "},"3":{"ha":854,"x_min":0,"x_max":0,"o":"m 714 72 l 896 72 l 896 0 l 657 0 l 657 0 l 525 0 b 600 46 553 11 578 28 b 676 215 650 90 676 149 b 581 415 676 293 642 363 b 497 464 556 435 526 451 b 560 501 519 474 540 486 b 642 663 613 543 642 600 b 581 796 642 714 621 761 b 376 854 529 842 453 864 b 200 785 264 840 201 788 b 197 751 189 776 189 761 b 232 749 206 740 221 740 b 382 806 232 749 285 794 b 549 760 444 814 508 796 b 593 663 578 733 593 700 b 383 490 593 556 485 490 l 299 490 b 275 465 286 490 275 479 b 275 465 275 465 275 465 b 275 465 275 465 275 465 b 299 440 275 451 286 440 l 368 440 b 628 215 493 440 628 356 b 568 83 628 164 607 118 b 401 24 525 44 465 24 b 367 26 390 24 378 25 b 182 100 247 42 182 100 b 147 99 172 110 157 108 b 149 64 139 89 139 74 b 265 0 151 63 192 26 l 113 0 l 113 0 l -42 0 l -42 72 l 68 72 b 93 147 65 99 74 126 b 231 154 129 188 190 190 b 242 146 233 153 236 150 b 375 99 279 121 326 104 b 519 138 429 92 485 107 b 556 215 543 158 556 185 b 368 368 556 307 458 368 l 299 368 b 201 465 246 368 201 411 b 201 465 201 465 201 465 b 201 465 201 465 201 465 b 299 563 201 519 246 563 l 383 563 b 485 596 421 563 458 575 b 519 663 508 615 519 638 b 500 706 519 672 518 689 b 390 733 475 728 432 739 b 279 694 319 725 281 694 b 143 703 239 658 178 663 b 151 840 107 743 111 804 b 368 926 160 847 235 911 b 629 850 465 938 563 910 b 714 663 685 801 714 735 b 631 467 714 588 685 519 b 750 215 707 401 750 313 b 714 72 750 165 738 117 "},"4":{"ha":786,"x_min":0,"x_max":0,"o":"m 557 304 l 213 304 l 557 789 l 557 304 m 485 378 l 485 560 l 354 378 l 485 378 m 679 72 l 828 72 l 828 0 l 679 0 l 679 0 l 606 0 l 606 0 l 606 256 l 674 256 b 697 281 688 256 697 267 b 674 304 697 293 688 304 l 606 304 l 606 864 b 606 865 606 864 606 865 b 606 867 606 865 606 865 b 606 868 606 867 606 867 b 606 868 606 868 606 868 b 606 869 606 869 606 869 b 606 871 606 871 606 871 b 604 872 606 871 606 872 b 604 874 604 872 604 872 b 604 875 604 874 604 874 b 603 875 604 875 604 875 b 603 876 603 876 603 876 b 603 878 603 876 603 878 b 601 878 601 878 601 878 b 601 879 601 879 601 879 b 600 881 600 879 600 881 b 599 881 600 881 600 881 b 599 882 599 882 599 882 b 597 883 599 882 597 882 b 596 883 597 883 597 883 b 596 885 596 883 596 883 b 596 885 596 885 596 885 b 594 885 596 885 594 885 b 593 886 594 885 594 885 b 592 886 593 886 593 886 b 592 886 592 886 592 886 b 590 888 592 886 590 888 b 589 888 590 888 589 888 b 588 888 589 888 589 888 b 588 888 588 888 588 888 b 586 889 586 888 586 888 b 585 889 585 889 585 889 b 583 889 585 889 583 889 b 582 889 583 889 582 889 b 582 889 582 889 582 889 b 581 889 582 889 582 889 b 579 889 581 889 581 889 b 579 889 579 889 579 889 b 578 888 578 889 578 889 b 576 888 576 888 576 888 b 575 888 576 888 575 888 b 574 888 575 888 574 888 b 572 888 574 888 574 888 b 572 886 572 886 572 886 b 571 886 571 886 571 886 b 569 885 571 886 569 886 b 568 885 569 885 569 885 b 568 885 568 885 568 885 b 567 883 568 883 567 883 b 565 882 567 883 567 883 b 565 882 565 882 565 882 b 564 881 565 882 564 881 b 564 881 564 881 564 881 b 563 879 563 879 563 879 b 563 878 563 879 563 879 l 146 294 b 144 269 140 286 140 276 b 165 256 149 261 157 256 l 557 256 l 557 0 l 557 0 l 485 0 l 485 0 l -42 0 l -42 72 l 485 72 l 485 183 l 165 183 b 79 236 129 183 96 203 b 86 336 63 268 65 307 l 503 921 b 503 921 503 921 503 921 b 506 924 504 922 504 924 b 506 925 506 924 506 925 b 508 928 507 926 507 926 b 510 929 508 928 508 929 b 511 931 510 929 510 931 b 513 933 511 931 513 932 b 514 933 513 933 514 933 b 517 936 514 935 515 935 b 517 936 517 936 517 936 b 532 947 521 940 526 944 b 532 947 532 947 532 947 b 535 950 533 949 535 949 b 538 950 536 950 536 950 b 539 951 538 951 539 951 b 543 953 540 953 542 953 b 543 954 543 953 543 954 b 561 960 549 956 556 958 b 561 960 561 960 561 960 b 565 960 563 960 564 960 b 565 960 565 960 565 960 b 569 961 567 960 568 961 b 571 961 569 961 571 961 b 574 961 572 961 572 961 b 576 961 574 961 575 961 b 578 961 576 961 578 961 b 581 961 579 961 581 961 b 582 961 582 961 582 961 b 583 961 582 961 582 961 b 586 961 583 961 585 961 b 588 961 586 961 588 961 b 590 961 589 961 590 961 b 593 961 592 961 592 961 b 596 961 593 961 594 961 b 597 960 596 960 597 960 b 600 960 599 960 599 960 b 601 960 601 960 601 960 b 604 958 603 960 604 958 b 607 958 606 958 606 958 b 610 957 607 958 608 958 b 611 957 610 957 611 957 b 614 956 613 957 613 957 b 617 956 614 956 615 956 b 618 954 617 956 617 954 b 621 953 619 954 619 954 b 622 953 621 953 622 953 b 625 951 624 953 624 951 b 626 950 625 951 626 951 b 629 949 628 950 628 950 b 631 949 629 949 631 949 b 633 947 632 947 632 947 b 635 946 633 946 635 946 b 638 944 636 946 636 944 b 639 943 638 944 638 943 b 639 943 639 943 639 943 b 642 942 640 943 640 942 b 643 940 642 940 642 940 b 644 939 643 939 644 939 b 647 936 646 938 646 938 b 649 936 647 936 647 936 b 650 933 649 935 650 933 b 651 932 650 933 651 933 b 654 929 651 932 653 931 b 654 929 654 929 654 929 b 665 915 658 925 661 919 b 665 914 665 914 665 914 b 667 911 665 913 667 913 b 668 908 668 910 668 910 b 669 907 668 908 669 907 b 671 903 669 906 671 904 b 671 903 671 903 671 903 b 676 885 674 897 675 892 b 676 885 676 885 676 885 b 678 881 676 883 678 882 b 678 881 678 881 678 881 b 678 876 678 879 678 878 b 678 875 678 876 678 876 b 679 872 679 875 679 874 b 679 869 679 872 679 871 b 679 868 679 869 679 869 b 679 865 679 867 679 867 b 679 864 679 865 679 864 l 679 378 b 771 281 731 374 771 332 b 679 183 771 228 731 186 l 679 72 "},"5":{"ha":829,"x_min":0,"x_max":0,"o":"m 681 72 l 871 72 l 871 0 l 626 0 l 626 0 l 500 0 b 563 40 524 11 544 24 b 649 242 619 90 649 160 b 588 415 649 311 628 371 b 425 503 550 460 493 489 b 339 510 399 508 369 510 b 272 507 314 510 292 510 l 310 790 l 661 790 b 686 814 675 790 686 800 b 661 839 686 828 675 839 l 288 839 b 264 817 276 839 265 829 l 219 483 b 226 463 219 476 222 468 b 247 456 232 458 240 456 b 339 461 269 458 303 461 b 417 454 365 461 392 460 b 600 242 535 432 600 356 b 531 78 600 174 576 117 b 339 24 482 33 411 15 b 179 82 264 33 211 61 b 146 75 168 90 153 86 b 153 42 138 64 142 50 b 235 0 172 29 200 13 l 92 0 l 92 0 l -42 0 l -42 72 l 69 72 b 85 117 71 88 76 103 b 219 143 115 161 175 172 b 349 96 240 129 285 104 b 483 132 400 90 450 103 b 528 242 513 158 528 194 b 403 383 528 321 486 367 b 339 389 382 388 361 389 b 256 383 306 389 275 386 b 175 413 226 381 196 390 b 147 493 154 433 144 463 l 192 826 b 288 911 197 875 239 911 l 661 911 b 758 814 715 911 758 868 b 661 717 758 760 715 717 l 374 717 l 356 583 b 439 574 385 582 413 579 b 643 464 524 558 593 519 b 722 242 694 406 722 329 b 681 72 722 181 707 122 "},"6":{"ha":814,"x_min":0,"x_max":0,"o":"m 414 24 b 204 256 299 24 204 128 b 433 486 204 379 311 486 b 624 256 604 486 624 325 b 414 24 624 128 529 24 m 433 414 b 278 256 361 414 278 344 b 290 189 278 232 282 210 b 293 185 290 188 292 186 b 414 97 315 132 361 97 b 550 256 489 97 550 168 b 433 414 550 414 463 414 m 697 72 l 856 72 l 856 0 l 642 0 l 642 0 l 519 0 b 672 256 608 43 672 142 b 615 451 672 335 653 403 b 433 535 574 506 511 535 b 242 454 364 535 294 506 b 194 394 224 436 207 415 b 274 632 203 476 228 561 b 624 810 349 747 471 810 b 649 833 638 810 649 819 b 624 858 649 847 638 858 b 232 658 408 858 292 749 b 182 135 124 490 125 263 b 182 133 182 135 182 133 b 308 0 208 75 254 26 l 186 0 l 186 0 l -42 0 l -42 72 l 131 72 b 117 101 126 82 121 92 b 115 106 117 103 115 104 b 72 389 79 185 65 285 b 171 697 81 504 115 611 b 350 865 218 769 278 826 b 624 931 429 908 522 931 b 721 833 678 931 721 888 b 624 736 721 779 678 736 b 335 593 494 736 397 688 b 433 608 367 603 400 608 b 744 256 622 608 744 469 b 697 72 744 189 726 126 "},"7":{"ha":844,"x_min":0,"x_max":0,"o":"m 424 72 l 886 72 l 886 0 l 388 0 l 388 0 l 307 0 l 697 803 b 697 826 701 811 701 819 b 676 839 692 833 685 839 l 168 839 b 144 814 154 839 144 828 b 168 790 144 800 154 790 l 638 790 l 253 0 l 183 0 l 183 0 l -42 0 l -42 72 l 207 72 l 521 717 l 168 717 b 71 814 114 717 71 760 b 168 911 71 868 114 911 l 676 911 b 758 865 710 911 740 894 b 764 771 776 838 778 801 l 424 72 "},"8":{"ha":806,"x_min":0,"x_max":0,"o":"m 193 225 b 404 424 193 318 261 383 b 615 225 546 383 615 318 b 404 24 615 114 519 24 b 193 225 288 24 193 114 m 404 349 b 265 225 265 304 265 247 b 404 97 265 154 328 97 b 542 225 479 97 542 154 b 404 349 542 247 542 304 m 697 72 l 847 72 l 847 0 l 642 0 l 642 0 l 515 0 b 664 225 603 40 664 126 b 586 389 664 290 638 344 b 481 450 558 413 524 432 b 569 501 518 464 547 482 b 629 642 610 538 629 583 b 404 858 629 761 528 858 b 178 642 279 858 178 761 b 238 501 178 583 197 538 b 326 450 260 482 289 464 b 221 389 283 432 249 413 b 144 225 169 344 144 290 b 292 0 144 126 204 40 l 165 0 l 165 0 l -42 0 l -42 72 l 111 72 b 71 225 85 118 71 169 b 174 444 71 311 107 388 b 183 451 178 447 181 450 b 104 642 131 501 104 565 b 404 932 104 801 239 932 b 703 642 568 932 703 801 b 624 451 703 565 676 501 b 633 444 626 450 631 447 b 736 225 700 388 736 311 b 697 72 736 169 722 118 m 581 642 b 538 538 581 597 567 564 b 404 475 510 513 467 493 b 269 538 340 493 299 513 b 226 642 240 564 226 597 b 404 810 226 735 306 810 b 581 642 501 810 581 735 m 404 551 b 508 642 508 583 508 615 b 404 738 508 694 461 738 b 299 642 346 738 299 694 b 404 551 299 615 299 583 "},"9":{"ha":849,"x_min":0,"x_max":0,"o":"m 650 72 l 890 72 l 890 0 l 581 0 l 581 0 l 451 0 b 613 146 528 39 579 96 b 706 432 679 247 700 357 b 669 694 713 528 699 624 b 668 696 668 694 668 696 b 436 858 626 792 538 858 b 179 569 294 858 179 729 b 246 367 179 490 203 419 b 439 282 293 311 360 282 b 621 367 508 282 572 313 b 654 415 633 382 644 397 b 572 174 646 331 619 244 b 279 0 506 72 404 13 l 133 0 l 133 0 l -42 0 l -42 72 l 276 72 b 511 214 378 85 457 131 b 514 218 513 215 513 217 b 439 208 490 211 464 208 b 190 321 339 208 251 249 b 106 569 136 385 106 474 b 199 821 106 664 139 753 b 436 931 261 892 346 931 b 674 821 526 931 611 892 b 742 707 704 788 726 749 b 743 707 742 707 742 707 b 744 700 743 704 744 703 b 778 426 774 622 785 526 b 674 106 771 343 749 219 b 650 72 665 94 658 83 m 436 810 b 646 569 551 810 646 701 b 439 331 646 438 553 331 b 228 569 293 331 228 450 b 436 810 228 701 321 810 m 439 403 b 572 569 513 403 572 478 b 561 638 572 594 568 617 b 557 646 560 640 558 643 b 556 649 557 647 557 649 b 436 736 533 701 488 736 b 300 569 361 736 300 661 b 439 403 300 489 336 403 "},"\u0000":{"ha":0,"x_min":0,"x_max":0,"o":""},"\r":{"ha":208,"x_min":0,"x_max":0,"o":""}," ":{"ha":208,"x_min":0,"x_max":0,"o":""},"j":{"ha":424,"x_min":0,"x_max":0,"o":"m 317 72 l 465 72 l 465 0 l 314 0 b 276 -162 310 -57 300 -112 b -22 -332 226 -268 126 -325 b -26 -332 -24 -332 -25 -332 b -124 -239 -78 -332 -121 -292 b -31 -137 -126 -186 -85 -140 b 101 -79 76 -133 93 -97 b 119 0 111 -58 117 -31 l -26 0 l -26 72 l 122 72 b 122 121 122 89 122 106 l 122 642 b 183 732 122 683 147 718 b 122 822 147 747 122 782 l 122 893 b 219 990 122 947 167 990 b 317 893 274 990 317 947 l 317 822 b 256 732 317 782 292 747 b 317 642 292 718 317 683 l 317 121 b 317 72 317 106 317 89 m 244 121 l 244 642 b 219 667 244 656 233 667 b 196 642 207 667 196 656 l 196 121 b 167 -111 196 33 196 -51 b -28 -211 149 -150 107 -204 b -51 -236 -42 -211 -51 -222 b -26 -260 -50 -249 -39 -260 b -25 -258 -26 -260 -26 -260 b 211 -132 96 -253 172 -211 b 244 121 244 -61 244 28 m 244 822 l 244 893 b 219 918 244 907 233 918 b 196 893 207 918 196 907 l 196 822 b 219 799 196 808 207 799 b 244 822 233 799 244 808 "},"d":{"ha":829,"x_min":0,"x_max":0,"o":"m 761 72 l 871 72 l 871 0 l 761 0 b 761 0 761 0 761 0 l 689 0 b 689 0 689 0 689 0 l 689 931 b 664 956 689 944 678 956 b 640 931 650 956 640 944 l 640 496 b 415 632 590 578 508 632 b 142 317 264 632 142 490 b 415 1 142 143 264 1 b 640 138 508 1 590 56 l 640 0 b 640 0 640 0 640 0 l 214 0 b 214 0 214 0 214 0 l -42 0 l -42 72 l 144 72 b 68 317 96 142 68 226 b 164 585 68 417 103 513 b 415 704 231 663 319 704 b 567 665 468 704 519 690 l 567 931 b 664 1028 567 985 610 1028 b 761 931 718 1028 761 985 l 761 72 m 415 583 b 640 317 539 583 640 464 b 415 50 640 169 539 50 b 190 317 290 50 190 169 b 415 583 190 464 290 583 m 517 175 b 567 317 549 211 567 263 b 517 458 567 371 549 421 b 415 510 489 492 453 510 b 313 458 376 510 340 492 b 263 317 281 421 263 371 b 313 175 263 263 281 211 b 415 124 340 142 376 124 b 517 175 453 124 489 142 "},"Å":{"ha":919,"x_min":0,"x_max":0,"o":"m 743 0 l 743 0 b 739 0 742 0 740 0 b 647 67 699 0 660 25 l 592 229 l 328 229 l 272 67 b 176 0 258 24 218 -1 l 176 0 l 174 0 l 275 303 l 644 303 l 746 0 m 535 996 b 460 922 535 956 501 922 b 383 996 418 922 383 956 b 460 1068 383 1035 418 1068 b 535 996 501 1068 535 1035 m 292 351 l 460 849 l 628 351 m 460 621 l 393 424 l 526 424 m 961 72 l 961 0 l 797 0 l 685 332 b 683 336 685 333 685 335 b 683 336 683 336 683 336 l 500 881 b 583 996 549 897 583 942 b 460 1117 583 1063 528 1117 b 335 996 390 1117 335 1063 b 419 881 335 942 371 897 l 240 351 l 157 351 b 133 326 143 351 133 340 b 157 303 133 313 143 303 l 224 303 l 122 0 l -42 0 l -42 72 l 69 72 l 124 235 b 60 326 86 249 60 285 b 157 424 60 381 103 424 l 188 424 l 331 849 b 263 996 289 883 263 936 b 460 1189 263 1103 351 1189 b 657 996 568 1189 657 1103 b 588 849 657 936 631 883 l 754 357 b 754 356 754 357 754 356 l 850 72 "},"x":{"ha":778,"x_min":0,"x_max":0,"o":"m 679 72 l 819 72 l 819 0 l 708 0 b 708 0 708 0 708 0 l 640 0 l 418 321 l 631 628 b 625 663 639 639 636 654 b 592 656 614 669 599 667 l 389 364 l 185 656 b 151 663 178 667 163 669 b 146 628 140 654 138 639 l 358 321 l 136 0 l 68 0 b 68 0 68 0 68 0 l -42 0 l -42 72 l 97 72 l 269 321 l 86 588 b 110 722 56 631 65 692 b 246 697 154 753 215 742 l 389 492 l 531 697 b 667 722 561 742 622 753 b 690 588 711 692 722 631 l 507 321 l 679 72 m 194 0 l 389 278 l 582 0 l 493 0 l 389 150 l 283 0 l 194 0 "},"p":{"ha":869,"x_min":0,"x_max":0,"o":"m 678 326 b 453 60 678 179 576 60 b 228 326 329 60 228 179 b 453 592 228 472 329 592 b 678 326 576 592 678 472 m 350 183 b 453 132 379 150 415 132 b 556 183 490 132 528 150 b 606 326 588 221 606 271 b 556 468 606 381 588 431 b 453 519 528 501 490 519 b 350 468 415 519 379 501 b 301 326 318 431 301 381 b 350 183 301 271 318 221 m 301 -24 b 301 -24 301 -24 301 -24 l 301 -253 b 204 -350 301 -306 257 -350 b 107 -253 150 -350 107 -306 l 107 0 l -42 0 l -42 72 l 107 72 l 107 642 b 204 739 107 696 150 739 b 296 672 247 739 283 711 b 453 714 344 699 397 714 b 703 594 549 714 638 671 b 800 326 765 522 800 426 b 715 72 800 232 769 143 l 911 72 l 911 0 l 642 0 b 642 0 642 0 642 0 l 301 0 m 228 147 b 453 11 278 65 360 11 b 726 326 604 11 726 153 b 453 640 726 500 604 640 b 228 504 360 640 278 586 l 228 642 b 204 667 228 656 217 667 b 179 642 190 667 179 656 l 179 -253 b 204 -276 179 -265 190 -276 b 228 -253 217 -276 228 -265 l 228 147 "},"Ž":{"ha":944,"x_min":0,"x_max":0,"o":"m 876 72 l 986 72 l 986 0 l 843 0 l 843 0 l 101 0 l 101 0 l -42 0 l -42 72 l 68 72 b 81 121 68 89 72 106 l 81 122 b 89 133 83 126 86 129 l 526 744 l 171 744 b 74 842 117 744 74 788 b 171 939 74 894 117 939 l 338 939 l 257 1026 b 264 1164 221 1067 224 1128 b 401 1157 304 1200 365 1197 l 468 1085 l 533 1157 b 671 1164 569 1197 631 1200 b 678 1026 711 1128 714 1067 l 597 939 l 717 939 b 803 886 753 939 786 918 b 794 785 819 853 817 814 l 356 171 l 779 171 b 876 74 833 171 876 128 b 876 72 876 74 876 74 m 311 1075 l 450 924 b 468 915 454 918 461 915 b 486 924 475 915 481 918 l 624 1075 b 622 1110 632 1086 632 1101 b 588 1108 613 1119 597 1118 l 468 976 l 347 1108 b 313 1110 339 1118 324 1119 b 311 1075 303 1101 303 1086 m 779 49 b 804 74 793 49 804 60 b 779 97 804 88 793 97 l 213 97 l 736 828 b 738 853 742 835 742 844 b 717 865 733 861 725 865 l 171 865 b 147 842 157 865 147 854 b 171 817 147 828 157 817 l 668 817 l 147 89 b 144 86 146 88 144 88 l 144 85 b 151 53 138 74 142 60 b 165 49 156 50 161 49 b 171 49 167 49 169 49 l 779 49 "},"ž":{"ha":824,"x_min":0,"x_max":0,"o":"m 756 72 l 865 72 l 865 0 l 722 0 l 722 0 l 101 0 l 101 0 l -42 0 l -42 72 l 68 72 b 85 126 68 92 74 110 l 85 126 b 93 139 88 131 90 135 l 399 503 l 169 503 b 72 600 117 503 72 547 b 169 697 72 654 117 697 l 322 697 l 215 865 b 244 1000 186 910 199 971 b 379 969 290 1028 350 1015 l 418 908 l 458 969 b 592 1000 488 1015 547 1028 b 622 865 638 971 651 910 l 515 697 l 607 697 b 696 642 646 697 679 676 b 682 538 711 607 707 567 l 374 171 l 658 171 b 756 74 713 171 756 126 b 756 72 756 74 756 74 m 276 904 l 397 714 b 418 703 403 707 410 703 b 439 714 426 703 435 707 l 560 904 b 553 938 568 915 564 931 b 519 931 542 944 526 942 l 418 772 l 317 931 b 283 938 310 942 294 944 b 276 904 272 931 269 915 m 658 49 b 683 74 672 49 683 60 b 658 97 683 86 672 97 l 218 97 l 626 585 b 629 611 632 592 633 603 b 607 625 625 619 617 625 l 169 625 b 146 600 157 625 146 614 b 169 576 146 588 157 576 l 556 576 l 149 90 b 146 86 147 89 146 88 l 144 86 b 150 53 138 75 140 61 b 165 49 156 50 160 49 b 169 49 167 49 168 49 l 658 49 "},"!":{"ha":372,"x_min":0,"x_max":0,"o":"m 229 167 b 317 43 281 149 317 100 b 186 -87 317 -29 258 -87 b 56 43 114 -87 56 -29 b 143 167 56 100 92 149 b 89 253 111 182 89 215 l 72 881 b 72 882 72 882 72 882 b 186 996 72 944 124 996 b 299 882 249 996 299 944 b 299 881 299 882 299 882 l 283 253 b 229 167 282 215 261 182 m 186 922 b 146 882 164 922 146 904 l 161 254 b 186 229 161 240 172 229 b 210 254 199 229 210 240 l 226 882 b 186 922 226 904 208 922 m 186 -15 b 244 43 218 -15 244 11 b 186 101 244 75 218 101 b 128 43 154 101 128 75 b 186 -15 128 11 154 -15 "},"\"":{"ha":504,"x_min":0,"x_max":0,"o":"m 153 1003 b 250 906 207 1003 250 958 l 250 586 b 153 489 250 533 207 489 b 56 586 99 489 56 533 l 56 906 b 153 1003 56 958 99 1003 m 176 586 l 176 906 b 153 929 176 918 167 929 b 128 906 139 929 128 918 l 128 586 b 153 563 128 574 139 563 b 176 586 167 563 176 574 m 351 1003 b 449 906 406 1003 449 958 l 449 586 b 351 489 449 533 406 489 b 254 586 299 489 254 533 l 254 906 b 351 1003 254 958 299 1003 m 376 586 l 376 906 b 351 929 376 918 365 929 b 328 906 339 929 328 918 l 328 586 b 351 563 328 574 339 563 b 376 586 365 563 376 574 "},"#":{"ha":867,"x_min":0,"x_max":0,"o":"m 714 472 l 646 472 l 635 392 l 685 392 b 782 294 738 392 782 349 b 685 197 782 242 738 197 l 610 197 l 582 -18 b 486 -103 575 -67 533 -103 b 474 -101 482 -103 478 -103 b 389 7 419 -94 382 -46 l 414 197 l 393 197 l 365 -18 b 269 -103 360 -67 317 -103 b 257 -101 265 -103 261 -103 b 172 7 203 -94 165 -46 l 197 197 l 153 197 b 56 294 99 197 56 242 b 153 392 56 349 99 392 l 222 392 l 233 472 l 183 472 b 86 569 129 472 86 517 b 183 667 86 624 129 667 l 258 667 l 285 871 b 393 956 292 924 340 961 b 478 846 446 949 485 899 l 454 667 l 475 667 l 501 871 b 610 956 508 924 557 961 b 694 846 663 949 701 899 l 671 667 l 714 667 b 811 569 768 667 811 624 b 714 472 811 517 768 472 m 685 319 l 553 319 l 582 546 l 714 546 b 739 569 728 546 739 556 b 714 594 739 583 728 594 l 588 594 l 621 856 b 600 882 624 868 614 881 b 574 861 588 885 575 875 l 539 594 l 371 594 l 406 856 b 383 882 407 868 397 881 b 357 861 371 885 358 875 l 322 594 l 183 594 b 158 569 169 594 158 583 b 183 546 158 556 169 546 l 315 546 l 286 319 l 153 319 b 128 294 139 319 128 308 b 153 271 128 282 139 271 l 281 271 l 244 -1 b 265 -29 243 -15 253 -28 b 269 -29 267 -29 268 -29 b 293 -8 281 -29 292 -21 l 329 271 l 497 271 l 461 -1 b 482 -29 460 -15 469 -28 b 486 -29 483 -29 485 -29 b 510 -8 497 -29 508 -21 l 546 271 l 685 271 b 708 294 697 271 708 282 b 685 319 708 308 697 319 m 336 319 l 365 546 l 532 546 l 503 319 l 336 319 m 429 472 l 418 392 l 439 392 l 450 472 l 429 472 "},"$":{"ha":747,"x_min":0,"x_max":0,"o":"m 413 543 b 621 413 507 506 575 463 b 686 218 669 356 693 289 b 547 7 676 125 628 51 b 489 -18 529 -3 510 -11 l 489 -117 b 392 -214 489 -169 444 -214 b 294 -117 338 -214 294 -169 l 294 -32 b 108 22 226 -24 160 -4 b 67 153 61 47 42 106 b 197 196 90 201 150 219 b 454 178 268 160 390 143 b 492 236 478 190 489 208 b 475 283 493 251 492 264 b 340 363 458 301 422 331 b 114 651 181 426 106 524 b 257 863 121 746 172 821 b 294 878 269 869 281 874 l 294 975 b 392 1072 294 1028 338 1072 b 489 975 444 1072 489 1028 l 489 896 b 647 842 550 889 606 869 b 675 707 692 813 704 753 b 540 679 644 663 585 650 b 343 689 504 704 403 718 b 308 638 317 675 310 658 b 314 607 307 624 308 617 b 413 543 322 594 344 571 m 613 225 b 565 364 618 276 603 322 b 385 475 529 406 469 442 b 236 643 228 539 233 611 b 311 754 239 694 264 731 b 579 740 392 794 519 781 b 614 747 592 733 606 736 b 607 782 621 758 618 774 b 415 826 561 811 489 829 l 415 975 b 392 999 415 988 404 999 b 367 975 378 999 367 988 l 367 822 b 289 797 339 817 314 810 b 188 647 228 767 192 715 b 211 543 185 621 186 583 b 368 431 239 499 292 461 b 564 229 554 356 569 281 b 489 114 560 178 535 139 b 164 131 400 65 254 85 b 131 119 151 136 138 132 b 142 88 125 108 129 93 b 358 38 200 57 281 38 b 367 38 361 38 364 38 l 367 -117 b 392 -140 367 -129 378 -140 b 415 -117 404 -140 415 -129 l 415 40 b 513 71 450 46 483 56 b 613 225 571 103 606 157 "},"%":{"ha":1181,"x_min":0,"x_max":0,"o":"m 401 757 b 443 610 428 718 443 665 b 401 463 443 554 428 501 b 310 407 376 426 343 407 b 219 463 276 407 244 426 b 176 610 192 501 176 554 b 219 757 176 665 192 718 b 310 813 244 793 276 813 b 401 757 343 813 376 793 m 310 479 b 369 610 331 479 369 531 b 310 740 369 689 331 740 b 250 610 289 740 250 689 b 310 479 250 531 289 479 m 871 579 b 1125 254 1014 579 1125 436 b 871 -71 1125 72 1014 -71 b 617 254 728 -71 617 72 b 617 282 617 264 617 272 l 422 -65 b 338 -114 404 -97 372 -114 b 290 -103 322 -114 306 -111 b 253 31 243 -76 226 -17 l 410 310 b 310 285 379 294 346 285 b 56 610 167 285 56 428 b 310 935 56 792 167 935 b 564 610 453 935 564 792 b 564 583 564 601 564 592 l 754 922 b 886 960 781 969 839 986 b 924 828 933 933 950 874 l 769 553 b 871 579 800 569 835 579 m 310 358 b 442 435 360 358 407 385 b 492 610 474 482 492 544 b 442 785 492 675 474 738 b 310 861 407 835 360 861 b 179 785 260 861 213 835 b 128 610 146 738 128 675 b 179 435 128 544 146 482 b 310 358 213 385 260 358 m 358 -29 l 860 863 b 850 896 867 875 863 889 b 817 886 839 903 824 899 l 317 -6 b 326 -39 310 -17 314 -32 b 338 -42 329 -40 333 -42 b 358 -29 346 -42 354 -37 m 1001 79 b 1053 254 1035 126 1053 189 b 1001 429 1053 319 1035 382 b 871 506 968 479 921 506 b 739 429 821 506 774 479 b 689 254 707 382 689 319 b 739 79 689 189 707 126 b 871 1 774 29 821 1 b 1001 79 921 1 968 29 m 961 401 b 1004 254 989 363 1004 310 b 961 107 1004 199 989 146 b 871 50 936 71 904 50 b 779 107 836 50 804 71 b 738 254 753 146 738 199 b 779 401 738 310 753 363 b 871 457 804 438 836 457 b 961 401 904 457 936 438 m 871 124 b 931 254 892 124 931 175 b 871 385 931 333 892 385 b 811 254 850 385 811 333 b 871 124 811 175 850 124 "},"&":{"ha":939,"x_min":0,"x_max":0,"o":"m 367 522 b 351 514 361 519 357 517 b 275 704 301 581 269 643 b 411 842 281 783 338 842 b 547 706 486 842 547 781 b 367 522 547 625 421 550 m 347 699 b 375 610 346 672 354 644 b 474 706 449 656 474 693 b 411 769 474 740 446 769 b 347 699 372 769 350 733 m 856 64 b 853 -74 893 25 892 -36 b 785 -100 833 -92 810 -100 b 715 -69 760 -100 733 -90 b 639 10 692 -46 665 -18 b 399 -71 567 -43 483 -71 b 128 39 288 -71 192 -32 b 58 275 72 101 47 185 b 164 479 67 357 101 424 b 206 514 176 492 192 503 b 153 714 168 576 147 642 b 411 964 164 856 275 964 b 668 706 553 964 668 847 b 494 456 668 599 585 515 b 631 304 536 408 583 357 b 686 500 654 357 674 421 b 797 581 694 553 744 589 b 879 469 851 572 888 522 b 769 154 858 344 822 239 b 856 64 800 122 829 92 m 801 -21 b 803 14 811 -11 813 4 b 676 147 765 54 722 100 b 807 481 736 224 783 332 b 786 508 808 493 800 506 b 758 488 774 510 761 501 b 643 183 738 351 694 253 b 435 414 571 260 497 342 b 382 475 417 435 399 456 b 389 479 385 476 386 478 b 521 567 425 497 478 529 b 596 706 569 613 596 660 b 411 890 596 807 513 890 b 282 836 363 890 317 871 b 226 708 250 803 231 757 b 308 492 221 633 254 564 b 131 267 218 442 143 383 b 183 88 122 197 140 135 b 399 1 232 32 308 1 b 644 111 479 1 568 35 b 768 -19 689 64 731 19 b 785 -26 772 -25 779 -26 b 801 -21 792 -26 797 -25 m 339 451 b 399 382 357 429 376 406 b 611 147 463 307 538 225 b 399 50 544 79 468 50 b 219 121 324 50 258 76 b 178 261 186 157 172 206 b 339 451 189 354 246 401 m 399 124 b 504 154 433 124 469 133 b 343 333 449 215 393 276 b 322 357 336 342 329 350 b 251 253 276 326 256 297 b 274 168 247 218 254 190 b 399 124 299 140 344 124 "},"'":{"ha":306,"x_min":0,"x_max":0,"o":"m 153 1003 b 250 906 207 1003 250 960 l 250 589 b 153 492 250 536 207 492 b 56 589 99 492 56 536 l 56 906 b 153 1003 56 960 99 1003 m 176 589 l 176 906 b 153 929 176 919 167 929 b 128 906 139 929 128 919 l 128 589 b 153 565 128 576 139 565 b 176 589 167 565 176 576 "},"(":{"ha":485,"x_min":0,"x_max":0,"o":"m 407 -103 b 392 -239 440 -144 433 -206 b 331 -260 374 -253 353 -260 b 256 -224 303 -260 274 -247 b 111 35 192 -144 144 -57 b 56 376 74 139 56 254 b 111 718 56 500 74 615 b 256 978 144 811 192 899 b 392 993 289 1019 350 1026 b 407 857 433 960 440 899 b 250 376 301 724 250 567 b 407 -103 250 188 301 31 m 346 -182 b 350 -147 357 -174 358 -158 b 176 376 233 -1 176 171 b 350 901 176 583 233 756 b 346 936 358 913 357 928 b 313 932 336 944 321 943 b 128 376 189 776 128 594 b 313 -178 128 160 189 -22 b 331 -187 317 -183 324 -187 b 346 -182 336 -187 342 -185 "},")":{"ha":485,"x_min":0,"x_max":0,"o":"m 374 718 b 429 376 411 615 429 500 b 374 35 429 254 411 139 b 231 -224 342 -57 293 -144 b 154 -260 211 -247 183 -260 b 93 -239 133 -260 111 -253 b 78 -103 51 -206 44 -144 b 235 376 183 31 235 188 b 78 857 235 567 183 724 b 93 993 44 899 51 960 b 231 978 136 1026 197 1019 b 374 718 293 899 342 811 m 174 -178 b 357 376 297 -22 357 160 b 174 932 357 594 297 776 b 139 936 165 943 150 944 b 135 901 129 928 126 913 b 308 376 251 756 308 583 b 135 -147 308 171 251 -1 b 139 -182 126 -158 129 -174 b 154 -187 143 -185 149 -187 b 174 -178 161 -187 168 -183 "},"*":{"ha":774,"x_min":0,"x_max":0,"o":"m 621 768 b 718 671 674 768 718 724 b 621 574 718 617 674 574 l 556 574 l 589 517 b 553 385 615 471 600 411 b 504 371 538 375 521 371 b 419 419 471 371 438 389 l 388 475 l 356 419 b 271 369 338 388 304 369 b 222 383 254 369 238 374 b 186 515 176 410 160 469 l 219 574 l 153 574 b 56 671 99 574 56 617 b 153 768 56 724 99 768 l 218 768 l 185 824 b 221 957 158 871 174 931 b 353 922 267 983 326 968 l 386 865 l 418 922 b 550 958 444 968 504 985 b 588 825 597 932 614 872 l 554 768 l 621 768 m 621 646 b 644 671 633 646 644 657 b 621 694 644 683 633 694 l 429 694 l 524 861 b 514 894 531 874 526 889 b 482 886 503 901 488 897 l 386 719 l 290 885 b 257 894 283 897 268 900 b 249 861 246 888 242 872 l 344 694 l 153 694 b 128 671 139 694 128 683 b 153 646 128 657 139 646 l 344 646 l 250 479 b 258 446 243 468 247 453 b 271 443 263 444 267 443 b 292 456 279 443 288 447 l 388 622 l 483 456 b 504 444 488 449 496 444 b 517 447 508 444 513 444 b 525 481 528 454 532 469 l 429 646 l 621 646 "},"+":{"ha":1010,"x_min":0,"x_max":0,"o":"m 857 446 b 954 349 911 446 954 403 b 857 251 954 296 911 251 l 603 251 l 603 -4 b 506 -101 603 -57 558 -101 b 408 -4 451 -101 408 -57 l 408 251 l 153 251 b 56 349 99 251 56 296 b 153 446 56 403 99 446 l 408 446 l 408 701 b 506 799 408 756 451 799 b 603 701 558 799 603 756 l 603 446 l 857 446 m 857 325 b 882 349 871 325 882 336 b 857 374 882 363 871 374 l 529 374 l 529 701 b 506 725 529 715 518 725 b 481 701 492 725 481 715 l 481 374 l 153 374 b 128 349 139 374 128 363 b 153 325 128 336 139 325 l 481 325 l 481 -4 b 506 -28 481 -17 492 -28 b 529 -4 518 -28 529 -17 l 529 325 l 857 325 "},",":{"ha":410,"x_min":0,"x_max":0,"o":"m 276 251 b 351 135 329 239 363 188 b 242 -206 329 38 278 -132 b 154 -260 225 -240 190 -260 b 111 -250 140 -260 125 -257 b 67 -121 64 -226 43 -169 b 161 176 92 -68 142 88 b 276 251 172 229 225 263 m 281 151 b 261 179 283 164 275 176 b 232 161 249 183 235 175 b 132 -153 213 72 163 -89 b 143 -185 126 -164 132 -179 b 154 -187 147 -186 150 -187 b 176 -174 163 -187 172 -182 b 281 151 208 -108 260 60 "},"-":{"ha":633,"x_min":0,"x_max":0,"o":"m 481 572 b 578 475 535 572 578 529 b 481 378 578 421 535 378 l 153 378 b 56 475 99 378 56 421 b 153 572 56 529 99 572 l 481 572 m 481 451 b 506 475 494 451 506 461 b 481 500 506 489 494 500 l 153 500 b 128 475 139 500 128 489 b 153 451 128 461 139 451 l 481 451 "},".":{"ha":358,"x_min":0,"x_max":0,"o":"m 179 174 b 303 50 247 174 303 118 b 179 -74 303 -18 247 -74 b 56 50 111 -74 56 -18 b 179 174 56 118 111 174 m 179 0 b 231 50 207 0 231 22 b 179 101 231 78 207 101 b 128 50 151 101 128 78 b 179 0 128 22 151 0 "},"/":{"ha":675,"x_min":0,"x_max":0,"o":"m 557 997 b 613 872 607 979 632 922 l 243 -90 b 153 -153 229 -129 192 -153 b 118 -146 142 -153 129 -150 b 63 -21 68 -126 43 -71 l 432 942 b 557 997 451 992 507 1017 m 544 899 b 531 929 550 911 543 925 b 500 915 518 935 504 928 l 131 -46 b 144 -78 125 -58 132 -74 b 153 -79 147 -79 150 -79 b 175 -64 163 -79 172 -74 l 544 899 "},"©":{"ha":1042,"x_min":0,"x_max":0,"o":"m 521 868 b 865 508 711 868 865 707 b 521 147 865 310 711 147 b 176 508 332 147 176 310 b 521 868 176 707 332 868 m 535 313 b 338 508 415 313 338 389 b 535 704 338 628 415 704 b 660 675 575 704 629 692 b 693 685 672 668 686 674 b 683 718 699 697 694 711 b 535 753 644 739 583 753 b 357 685 464 753 401 729 b 289 508 313 640 289 579 b 357 331 289 436 313 375 b 535 264 401 286 464 264 b 683 299 583 264 644 278 b 693 332 694 304 699 319 b 660 342 686 343 672 347 b 535 313 629 325 575 313 m 521 990 b 986 508 778 990 986 774 b 521 26 986 243 778 26 b 56 508 264 26 56 243 b 521 990 56 774 264 990 m 521 99 b 914 508 738 99 914 283 b 521 917 914 733 738 917 b 128 508 304 917 128 733 b 521 99 128 283 304 99 "},"ª":{"ha":581,"x_min":0,"x_max":0,"o":"m 525 650 b 525 647 525 649 525 647 l 525 574 b 525 571 525 574 525 572 l 525 411 b 428 314 525 358 482 314 b 356 347 399 314 374 328 b 267 331 328 336 297 331 b 57 529 147 331 57 417 b 119 671 57 583 79 633 b 126 676 122 674 124 675 b 78 710 107 682 90 693 b 94 847 44 753 51 814 b 399 883 153 893 290 936 b 525 653 446 861 524 800 b 525 650 525 653 525 651 m 453 411 l 453 647 b 453 650 453 649 453 649 b 453 650 453 650 453 650 b 367 818 451 754 406 799 b 139 789 289 856 179 819 b 135 756 129 781 126 765 b 169 751 143 744 158 743 b 346 774 199 774 288 803 b 403 675 378 758 397 725 b 169 618 296 679 214 660 b 129 529 143 594 129 563 b 267 404 129 457 188 404 b 392 457 315 404 358 422 b 404 469 396 461 400 465 l 404 411 b 428 388 404 399 415 388 b 453 411 442 388 453 399 m 201 582 b 404 626 238 615 310 631 l 404 576 b 267 453 394 543 361 453 b 178 529 214 453 178 483 b 201 582 178 550 186 567 "},"«":{"ha":701,"x_min":0,"x_max":0,"o":"m 626 250 b 604 114 658 206 649 146 b 547 96 588 101 568 96 b 468 136 518 96 488 110 l 429 193 b 388 114 428 163 414 133 b 332 96 371 101 351 96 b 253 136 301 96 271 110 l 74 386 b 74 499 50 419 50 465 l 253 749 b 388 771 283 792 344 801 b 429 692 414 751 428 722 l 468 749 b 604 771 500 792 561 801 b 626 635 649 739 658 678 l 489 442 m 346 174 b 351 207 357 182 358 196 l 182 442 l 351 678 b 346 711 358 689 357 703 b 311 706 335 719 319 717 l 133 457 b 133 428 126 449 126 436 l 311 179 b 332 169 317 172 324 169 b 346 174 336 169 342 171 m 563 174 b 568 207 572 182 575 196 l 399 442 l 568 678 b 563 711 575 689 572 703 b 528 706 551 719 536 717 l 349 457 b 349 428 343 449 343 436 l 528 179 b 547 169 533 172 540 169 b 563 174 553 169 557 171 "},"¬":{"ha":947,"x_min":0,"x_max":0,"o":"m 794 646 b 892 549 849 646 892 603 l 892 218 b 794 121 892 164 849 121 b 697 218 740 121 697 164 l 697 451 l 153 451 b 56 549 99 451 56 494 b 153 646 56 603 99 646 l 794 646 m 818 218 l 818 549 b 794 572 818 563 808 572 l 153 572 b 128 549 139 572 128 563 b 153 524 128 535 139 524 l 769 524 l 769 218 b 794 193 769 204 781 193 b 818 218 808 193 818 204 "},"−":{"ha":989,"x_min":0,"x_max":0,"o":"m 836 508 b 933 411 890 508 933 465 b 836 314 933 358 890 314 l 153 314 b 56 411 99 314 56 358 b 153 508 56 465 99 508 l 836 508 m 836 388 b 861 411 850 388 861 399 b 836 436 861 425 850 436 l 153 436 b 128 411 139 436 128 425 b 153 388 128 399 139 388 l 836 388 "},"®":{"ha":699,"x_min":0,"x_max":0,"o":"m 339 817 b 393 790 364 817 393 810 b 339 763 393 771 364 763 b 314 763 332 763 324 763 l 314 817 b 339 817 324 818 332 817 m 349 919 b 521 747 444 919 521 843 b 349 575 521 653 444 575 b 176 747 254 575 176 653 b 349 919 176 843 254 919 m 431 611 b 449 640 444 614 451 628 b 411 733 436 685 426 714 b 442 790 431 746 442 765 b 340 865 442 835 401 864 b 288 864 325 867 304 867 b 267 842 275 863 267 853 b 267 842 267 842 267 842 b 265 840 265 842 265 840 b 265 839 265 840 265 840 l 265 635 b 290 610 265 621 276 610 b 314 635 304 610 314 621 l 314 714 b 324 714 318 714 321 714 b 335 714 328 714 331 714 b 336 714 335 714 336 714 b 401 628 371 714 378 714 b 425 610 404 617 414 610 b 431 611 426 610 429 610 m 349 1042 b 643 747 511 1042 643 910 b 349 454 643 586 511 454 b 56 747 188 454 56 586 b 349 1042 56 910 188 1042 m 349 526 b 569 747 471 526 569 626 b 349 968 569 869 471 968 b 128 747 228 968 128 869 b 349 526 128 626 228 526 "},"°":{"ha":588,"x_min":0,"x_max":0,"o":"m 293 1033 b 532 792 425 1033 532 925 b 293 551 532 660 425 551 b 56 792 163 551 56 660 b 293 1033 56 925 163 1033 m 293 624 b 458 792 385 624 458 700 b 293 960 458 885 385 960 b 128 792 203 960 128 885 b 293 624 128 700 203 624 m 293 911 b 410 792 358 911 410 858 b 293 672 410 726 358 672 b 176 792 229 672 176 726 b 293 911 176 858 229 911 "},"±":{"ha":989,"x_min":0,"x_max":0,"o":"m 836 194 b 933 97 890 194 933 151 b 836 0 933 43 890 0 l 153 0 b 56 97 99 0 56 43 b 153 194 56 151 99 194 l 399 194 b 397 213 399 200 397 206 l 397 418 l 153 418 b 56 515 99 418 56 461 b 153 613 56 568 99 613 l 397 613 l 397 818 b 494 915 397 871 440 915 b 592 818 549 915 592 871 l 592 613 l 836 613 b 933 515 890 613 933 568 b 836 418 933 461 890 418 l 592 418 l 592 213 b 590 194 592 206 592 200 l 836 194 m 153 490 l 471 490 l 471 213 b 494 188 471 199 481 188 b 519 213 508 188 519 199 l 519 490 l 836 490 b 861 515 850 490 861 501 b 836 539 861 528 850 539 l 519 539 l 519 818 b 494 842 519 831 508 842 b 471 818 481 842 471 831 l 471 539 l 153 539 b 128 515 139 539 128 528 b 153 490 128 501 139 490 m 836 72 b 861 97 850 72 861 83 b 836 121 861 111 850 121 l 153 121 b 128 97 139 121 128 111 b 153 72 128 83 139 72 l 836 72 "},"²":{"ha":642,"x_min":0,"x_max":0,"o":"m 489 736 b 586 639 543 736 586 692 b 489 542 586 585 543 542 l 160 542 b 68 608 118 542 81 568 b 103 717 54 649 69 692 b 339 975 315 872 336 958 b 338 985 339 982 338 983 b 210 964 321 1004 251 993 b 75 988 165 933 106 944 b 99 1124 43 1032 54 1093 b 276 1188 147 1158 214 1182 b 489 1107 364 1196 439 1167 b 531 950 524 1064 539 1008 b 418 736 522 882 485 811 l 489 736 m 489 614 b 514 639 503 614 514 625 b 489 663 514 651 503 663 l 232 663 b 458 960 369 772 449 875 b 432 1061 464 999 454 1033 b 282 1115 399 1101 346 1121 b 140 1064 233 1111 179 1092 b 135 1031 129 1056 126 1040 b 168 1024 142 1019 157 1017 b 394 1031 228 1067 343 1093 b 411 965 408 1013 414 992 b 146 658 404 918 363 815 b 138 631 138 651 133 640 b 160 614 140 621 150 614 l 489 614 "},"³":{"ha":606,"x_min":0,"x_max":0,"o":"m 496 892 b 550 749 531 851 550 801 b 482 596 550 690 526 636 b 299 531 435 554 368 531 b 265 533 288 531 276 532 b 119 581 211 539 163 556 b 93 599 108 586 101 592 b 79 735 51 632 44 693 b 215 750 113 776 174 783 b 218 747 215 750 217 749 b 286 726 238 736 261 729 b 351 742 317 722 342 732 b 356 749 356 744 356 747 b 279 790 356 768 321 790 l 236 790 b 139 888 182 790 139 833 b 139 888 139 888 139 888 b 139 888 139 888 139 888 b 171 960 139 917 151 942 b 110 994 147 963 125 975 b 124 1132 75 1038 82 1099 b 275 1188 133 1139 186 1178 b 468 1131 347 1196 419 1174 b 529 997 507 1096 529 1049 b 496 892 529 960 517 922 m 433 650 b 478 749 463 676 478 711 b 414 868 478 794 456 838 b 383 888 404 875 394 882 b 401 899 390 890 396 894 b 456 997 436 924 456 958 b 419 1076 456 1028 443 1056 b 283 1115 386 1106 335 1121 b 169 1075 211 1107 171 1076 b 167 1040 160 1067 157 1051 b 200 1036 175 1031 190 1028 b 288 1067 200 1038 232 1061 b 388 1040 326 1071 364 1061 b 407 997 400 1028 407 1014 b 288 913 407 946 346 913 l 236 913 b 213 888 222 913 213 901 b 213 888 213 888 213 888 b 213 888 213 888 213 888 b 236 864 213 874 222 864 l 279 864 b 429 749 351 864 429 819 b 400 688 429 725 419 704 b 279 654 372 661 325 649 b 169 693 208 661 169 693 b 136 690 160 701 144 700 b 139 656 126 679 128 664 b 274 606 140 654 188 615 b 300 604 282 604 290 604 b 433 650 351 604 399 621 "},"´":{"ha":443,"x_min":0,"x_max":0,"o":"m 344 1063 b 369 928 389 1032 400 971 l 235 732 b 154 690 215 704 185 690 b 99 707 135 690 115 696 b 74 842 54 738 43 799 l 210 1038 b 344 1063 240 1082 300 1093 m 310 968 b 303 1003 317 979 314 994 b 269 996 292 1010 276 1007 l 135 800 b 140 767 126 790 129 775 b 154 763 144 764 150 763 b 174 774 161 763 169 767 l 310 968 "},"µ":{"ha":846,"x_min":0,"x_max":0,"o":"m 786 113 b 717 -6 800 60 768 7 b 668 -11 710 -7 692 -11 b 556 25 636 -11 594 -4 b 522 61 544 35 533 46 b 343 -3 468 19 404 -3 b 250 11 307 -3 276 3 l 250 -203 b 153 -300 250 -257 207 -300 b 56 -203 99 -300 56 -257 l 56 385 l 56 701 b 153 799 56 756 99 799 b 250 701 207 799 250 756 l 250 385 b 281 219 250 288 267 240 b 343 192 289 206 301 192 b 433 243 372 192 406 211 b 485 385 465 282 485 333 l 485 701 b 582 799 485 756 528 799 b 679 701 636 799 679 756 l 679 193 b 679 185 679 190 679 188 b 786 113 728 192 774 161 m 699 65 b 715 94 711 68 719 82 b 686 113 713 107 699 115 b 631 121 686 111 653 104 b 606 193 614 135 606 158 l 606 701 b 582 726 606 715 596 726 b 557 701 568 726 557 715 l 557 385 b 488 196 557 315 533 247 b 343 119 446 147 393 119 b 176 385 265 119 176 149 l 176 701 b 153 726 176 715 167 726 b 128 701 139 726 128 715 l 128 385 l 128 -203 b 153 -228 128 -217 139 -228 b 176 -203 167 -228 176 -217 l 176 156 b 178 154 178 154 178 154 b 343 71 214 99 269 71 b 525 164 407 71 474 104 b 557 208 538 178 549 193 l 557 193 b 601 83 557 142 572 106 b 668 61 624 65 649 61 b 699 65 685 61 697 64 "},"¶":{"ha":757,"x_min":0,"x_max":0,"o":"m 701 896 b 701 896 701 896 701 896 l 701 -7 b 604 -104 701 -60 658 -104 b 518 -50 567 -104 533 -82 b 431 -104 501 -82 468 -104 b 333 -7 376 -104 333 -60 l 333 339 b 163 417 268 349 210 376 b 56 669 93 479 56 565 b 183 942 56 785 100 879 b 443 1026 249 992 339 1021 b 511 1028 467 1028 489 1028 b 640 1019 571 1028 614 1024 b 701 947 675 1014 701 983 l 701 896 m 629 -7 l 629 896 b 629 896 629 896 629 896 l 629 947 b 447 953 594 953 535 958 b 128 669 286 944 128 871 b 399 406 128 494 258 406 b 406 406 401 406 404 406 l 406 -7 b 431 -31 406 -19 417 -31 b 454 -7 444 -31 454 -19 l 454 896 l 581 896 l 581 -7 b 604 -31 581 -19 592 -31 b 629 -7 618 -31 629 -19 "},"·":{"ha":399,"x_min":0,"x_max":0,"o":"m 199 551 b 343 407 278 551 343 486 b 199 264 343 328 278 264 b 56 407 119 264 56 328 b 199 551 56 486 119 551 m 199 336 b 269 407 238 336 269 368 b 199 478 269 446 238 478 b 128 407 160 478 128 446 b 199 336 128 368 160 336 "},"¸":{"ha":486,"x_min":0,"x_max":0,"o":"m 372 19 b 431 -104 408 -12 431 -57 b 360 -236 431 -156 404 -204 b 228 -278 324 -262 276 -278 b 94 -235 178 -278 131 -262 b 75 -99 51 -203 43 -142 b 143 -60 92 -76 117 -62 b 149 21 133 -33 135 -4 l 200 110 b 332 146 226 157 286 172 b 372 19 376 121 393 65 m 317 -178 b 357 -104 342 -158 357 -132 b 272 -8 357 -60 322 -22 l 306 50 b 296 82 313 61 308 76 b 263 74 285 89 269 85 l 213 -15 b 213 -39 208 -22 208 -32 b 233 -51 217 -46 224 -51 b 308 -104 275 -53 308 -76 b 228 -156 308 -132 272 -156 b 167 -137 206 -156 183 -150 b 133 -143 157 -129 142 -132 b 138 -176 125 -153 128 -168 b 228 -204 163 -194 194 -204 b 317 -178 261 -204 293 -194 "},"¹":{"ha":457,"x_min":0,"x_max":0,"o":"m 354 1175 b 401 1092 383 1158 401 1126 l 401 592 b 304 494 401 539 358 494 b 207 592 251 494 207 539 l 207 928 l 201 924 b 69 963 154 899 94 915 b 107 1094 43 1010 60 1069 l 258 1178 b 354 1175 289 1193 325 1193 m 329 1092 b 317 1113 329 1100 325 1108 b 293 1113 310 1117 300 1117 l 143 1031 b 133 997 131 1024 126 1010 b 165 988 139 986 154 982 l 281 1051 l 281 592 b 304 568 281 579 292 568 b 329 592 318 568 329 579 "},"º":{"ha":647,"x_min":0,"x_max":0,"o":"m 324 785 b 469 624 404 785 469 713 b 324 463 469 535 404 463 b 176 624 243 463 176 535 b 324 785 176 713 243 785 m 324 535 b 397 624 364 535 397 575 b 324 713 397 672 364 713 b 250 624 283 713 250 672 b 324 535 250 575 283 535 m 324 907 b 592 624 471 907 592 779 b 324 340 592 468 471 340 b 56 624 175 340 56 468 b 324 907 56 779 175 907 m 324 414 b 518 624 431 414 518 508 b 324 833 518 739 431 833 b 128 624 215 833 128 739 b 324 414 128 508 215 414 "},"»":{"ha":701,"x_min":0,"x_max":0,"o":"m 626 499 b 626 386 651 465 651 419 l 449 136 b 369 96 429 110 399 96 b 313 114 350 96 329 101 b 272 193 286 133 272 163 l 232 136 b 153 96 213 110 183 96 b 96 114 133 96 114 101 b 74 250 53 146 43 206 l 211 442 l 74 635 b 96 771 43 678 53 739 b 232 749 140 801 200 792 l 272 692 b 313 771 272 722 286 751 b 449 749 356 801 417 792 l 626 499 m 351 428 b 351 457 357 436 357 449 l 172 706 b 139 711 165 717 150 719 b 133 678 128 703 125 689 l 301 442 l 133 207 b 139 174 125 196 128 182 b 153 169 143 171 147 169 b 172 179 160 169 168 172 m 568 428 b 568 457 574 436 574 449 l 389 706 b 356 711 381 717 365 719 b 349 678 344 703 342 689 l 518 442 l 349 207 b 356 174 342 196 344 182 b 369 169 360 171 364 169 b 389 179 376 169 385 172 l 568 428 "},"¼":{"ha":1168,"x_min":0,"x_max":0,"o":"m 857 1019 b 893 888 903 993 919 933 l 393 -6 b 308 -54 375 -37 342 -54 b 260 -42 292 -54 275 -51 b 224 90 214 -17 197 43 l 357 329 b 304 314 342 319 324 314 b 207 411 251 314 207 357 l 207 747 l 201 743 b 69 782 154 717 94 735 b 107 914 43 829 60 888 l 258 996 b 354 994 289 1013 325 1013 b 401 911 383 976 401 944 l 401 411 b 401 408 401 410 401 410 l 724 982 b 857 1019 750 1029 810 1046 m 329 411 l 329 911 b 317 932 329 919 325 928 b 293 932 310 936 300 936 l 143 850 b 133 817 131 843 126 828 b 165 807 139 804 154 800 l 281 869 l 281 411 b 304 386 281 397 292 386 b 329 411 318 386 329 397 m 831 922 b 821 956 836 935 832 949 b 788 946 808 963 794 958 l 286 54 b 296 21 281 43 285 28 b 308 18 300 19 304 18 b 329 31 317 18 325 22 l 831 922 m 897 256 l 713 256 l 897 514 l 897 256 m 1019 328 b 1113 231 1071 326 1113 283 b 1019 133 1113 178 1071 136 l 1019 58 b 922 -39 1019 4 975 -39 b 825 58 868 -39 825 4 l 825 133 l 665 133 b 579 186 629 133 596 154 b 586 288 563 218 565 258 l 843 647 b 843 647 843 647 843 647 b 844 650 843 649 844 649 b 846 651 846 650 846 651 b 847 654 847 653 847 653 b 850 656 849 654 849 654 b 850 657 850 656 850 657 b 853 660 851 657 853 658 b 854 660 853 660 853 660 b 857 663 854 661 856 661 b 857 663 857 663 857 663 b 871 674 861 667 867 671 b 872 674 872 674 872 674 b 875 676 874 675 874 675 b 878 676 876 676 876 676 b 879 678 878 678 879 678 b 883 679 881 679 882 679 b 883 681 883 679 883 679 b 901 686 889 682 894 685 b 901 686 901 686 901 686 b 906 686 903 686 904 686 b 906 686 906 686 906 686 b 910 688 907 686 908 688 b 911 688 910 688 910 688 b 914 688 911 688 913 688 b 915 688 914 688 915 688 b 918 688 917 688 917 688 b 921 688 919 688 919 688 b 922 688 921 688 922 688 b 922 688 922 688 922 688 b 926 688 924 688 925 688 b 928 688 926 688 926 688 b 931 688 929 688 929 688 b 932 688 932 688 932 688 b 936 686 933 688 935 688 b 938 686 936 686 936 686 b 940 686 939 686 939 686 b 942 686 940 686 942 686 b 944 685 943 686 944 685 b 947 685 946 685 946 685 b 949 683 947 685 949 685 b 951 683 950 683 951 683 b 954 682 953 683 953 683 b 956 682 954 682 956 682 b 958 681 957 682 957 681 b 961 679 958 681 960 681 b 963 679 961 679 961 679 b 965 678 963 679 964 678 b 967 676 965 678 965 678 b 969 675 968 676 968 676 b 971 675 969 675 971 675 b 974 672 972 674 972 674 b 975 672 974 672 975 672 b 978 671 975 671 976 671 b 978 669 978 669 978 669 b 979 669 978 669 979 669 b 982 668 979 668 981 668 b 983 667 982 667 982 667 b 985 665 983 665 985 665 b 986 663 986 664 986 664 b 988 661 988 663 988 663 b 990 660 989 661 990 660 b 992 658 990 660 990 660 b 993 656 992 658 993 657 b 994 656 994 656 994 656 b 1006 642 999 651 1001 646 b 1006 640 1006 640 1006 640 b 1007 638 1006 639 1007 639 b 1008 635 1007 636 1008 636 b 1010 633 1008 635 1008 633 b 1011 629 1010 632 1010 631 b 1011 629 1011 629 1011 629 b 1017 611 1014 624 1015 618 b 1017 611 1017 611 1017 611 b 1018 607 1017 610 1017 608 b 1018 607 1018 607 1018 607 b 1018 603 1018 606 1018 604 b 1018 601 1018 603 1018 601 b 1018 599 1018 600 1018 600 b 1019 596 1018 599 1019 597 b 1019 594 1019 596 1019 594 b 1019 592 1019 593 1019 592 b 1019 590 1019 592 1019 590 l 1019 328 m 1015 207 b 1040 231 1029 207 1040 218 b 1015 256 1040 244 1029 256 l 946 256 l 946 590 b 946 592 946 590 946 592 b 946 593 946 592 946 592 b 946 594 946 593 946 593 b 946 594 946 594 946 594 b 946 596 946 596 946 596 b 946 597 946 597 946 597 b 944 599 944 597 944 599 b 944 600 944 599 944 599 b 944 600 944 600 944 600 b 943 601 943 601 943 601 b 943 603 943 601 943 603 b 942 604 943 603 943 603 b 942 604 942 604 942 604 b 940 606 942 606 942 606 b 940 607 940 606 940 606 b 939 607 940 607 939 607 b 939 608 939 608 939 608 b 938 610 938 608 938 608 b 936 610 938 610 938 610 b 936 610 936 610 936 610 b 936 611 936 610 936 611 b 935 611 935 611 935 611 b 933 611 935 611 933 611 b 932 613 933 613 933 613 b 932 613 932 613 932 613 b 931 614 931 613 931 613 b 929 614 931 614 929 614 b 928 614 929 614 929 614 b 926 614 928 614 928 614 b 926 614 926 614 926 614 b 925 615 925 614 925 615 b 924 615 924 615 924 615 b 922 615 924 615 922 615 b 922 615 922 615 922 615 b 921 615 922 615 921 615 b 919 615 921 615 921 615 b 918 615 919 615 919 615 b 918 614 918 614 918 614 b 917 614 917 614 917 614 b 915 614 915 614 915 614 b 914 614 915 614 914 614 b 913 613 914 614 913 614 b 911 613 913 613 913 613 b 911 613 911 613 911 613 b 910 611 910 613 910 611 b 908 611 910 611 908 611 b 908 610 908 611 908 611 b 907 610 907 610 907 610 b 906 608 907 610 906 610 b 906 608 906 608 906 608 b 904 607 904 608 904 607 b 903 607 904 607 904 607 b 903 606 903 606 903 606 b 901 604 903 606 903 606 l 646 244 b 644 219 640 238 640 228 b 665 207 649 211 657 207 l 897 207 l 897 58 b 922 35 897 44 908 35 b 946 58 935 35 946 44 l 946 207 l 1015 207 "},"½":{"ha":1203,"x_min":0,"x_max":0,"o":"m 1050 189 b 1147 92 1104 189 1147 146 b 1050 -6 1147 39 1104 -6 l 721 -6 b 628 63 679 -6 642 22 b 664 171 615 103 629 146 b 899 429 876 326 897 413 b 899 439 900 436 899 438 b 771 418 882 458 813 447 b 638 439 728 388 668 397 l 388 -6 b 303 -54 369 -37 338 -54 b 256 -42 288 -54 271 -51 b 218 90 208 -17 192 43 l 350 325 b 304 314 336 318 321 314 b 207 411 251 314 207 357 l 207 747 l 201 743 b 69 782 154 717 94 735 b 107 914 43 829 60 888 l 258 996 b 354 994 289 1013 325 1013 b 401 911 383 976 401 944 l 401 418 l 719 982 b 851 1019 746 1029 804 1046 b 889 888 899 993 915 933 l 738 618 b 836 642 769 631 804 639 b 1049 561 925 650 1000 621 b 1092 404 1085 517 1100 463 b 978 189 1083 336 1044 265 l 1050 189 m 329 411 l 329 911 b 317 932 329 919 325 928 b 293 932 310 936 300 936 l 143 850 b 133 817 131 843 126 828 b 165 807 139 804 154 800 l 281 869 l 281 411 b 304 386 281 397 292 386 b 329 411 318 386 329 397 m 325 31 l 825 922 b 815 956 832 935 828 949 b 782 946 804 963 789 958 l 282 54 b 292 21 275 43 279 28 b 303 18 294 19 299 18 b 325 31 311 18 319 22 m 1050 68 b 1075 92 1064 68 1075 79 b 1050 117 1075 106 1064 117 l 793 117 b 1019 414 931 226 1008 328 b 993 515 1025 451 1015 488 b 843 569 960 556 907 575 b 701 518 793 565 740 546 b 694 483 690 510 688 494 b 729 478 703 472 718 471 b 954 485 789 519 904 547 b 971 419 969 467 975 446 b 707 113 965 372 922 269 b 697 85 699 106 694 94 b 721 68 701 75 710 68 l 1050 68 "},"¾":{"ha":1197,"x_min":0,"x_max":0,"o":"m 1047 328 b 1142 231 1100 326 1142 283 b 1047 133 1142 178 1100 136 l 1047 58 b 950 -39 1047 4 1004 -39 b 853 58 897 -39 853 4 l 853 133 l 694 133 b 608 186 658 133 625 154 b 597 244 599 204 596 225 l 458 -6 b 374 -54 440 -37 407 -54 b 325 -42 357 -54 340 -51 b 289 90 279 -17 263 43 l 450 378 b 299 336 407 350 354 336 b 265 338 288 336 276 336 b 93 403 217 343 149 358 b 78 540 51 436 44 497 b 215 554 113 582 174 589 b 286 531 229 543 256 535 b 351 546 317 528 342 536 b 356 553 356 550 356 551 b 279 594 356 572 321 594 l 236 594 b 139 692 182 594 139 639 b 139 693 139 692 139 692 b 139 693 139 693 139 693 b 171 764 139 721 151 746 b 110 800 147 768 125 779 b 124 936 75 842 82 903 b 275 992 133 944 186 983 b 468 935 347 1000 419 979 b 529 801 507 900 529 853 b 496 696 529 764 517 728 b 550 557 531 657 550 608 l 789 982 b 921 1019 815 1029 875 1046 b 958 888 968 993 985 933 l 647 333 l 871 647 b 872 647 871 647 872 647 b 874 650 872 649 874 649 b 875 651 874 650 875 651 b 876 654 875 653 876 653 b 878 656 876 654 878 654 b 879 657 879 656 879 657 b 882 660 881 657 881 658 b 882 660 882 660 882 660 b 885 663 883 661 885 661 b 885 663 885 663 885 663 b 900 674 890 667 894 671 b 900 674 900 674 900 674 b 904 676 901 675 903 675 b 906 676 904 676 906 676 b 908 678 907 678 907 678 b 911 679 910 679 910 679 b 913 681 911 679 913 679 b 929 686 918 682 924 685 b 929 686 929 686 929 686 b 933 686 931 686 932 686 b 935 686 935 686 935 686 b 938 688 936 686 936 688 b 939 688 939 688 939 688 b 942 688 940 688 942 688 b 944 688 943 688 944 688 b 947 688 946 688 946 688 b 950 688 947 688 949 688 b 950 688 950 688 950 688 b 951 688 951 688 951 688 b 954 688 953 688 954 688 b 956 688 956 688 956 688 b 960 688 957 688 958 688 b 961 688 960 688 961 688 b 964 686 963 688 963 688 b 965 686 965 686 965 686 b 969 686 967 686 968 686 b 971 686 969 686 969 686 b 974 685 972 686 972 685 b 975 685 974 685 975 685 b 978 683 976 685 976 685 b 981 683 979 683 979 683 b 982 682 981 683 982 683 b 985 682 983 682 983 682 b 986 681 985 682 986 681 b 989 679 988 681 989 681 b 990 679 990 679 990 679 b 993 678 992 679 993 678 b 994 676 994 678 994 678 b 997 675 996 676 997 676 b 999 675 999 675 999 675 b 1003 672 1000 674 1001 674 b 1003 672 1003 672 1003 672 b 1006 671 1004 671 1006 671 b 1007 669 1007 669 1007 669 b 1007 669 1007 669 1007 669 b 1010 668 1008 668 1010 668 b 1011 667 1011 667 1011 667 b 1014 665 1013 665 1013 665 b 1015 663 1014 664 1015 664 b 1017 661 1015 663 1017 663 b 1019 660 1018 661 1018 660 b 1019 658 1019 660 1019 660 b 1022 656 1021 658 1021 657 b 1022 656 1022 656 1022 656 b 1033 642 1026 651 1031 646 b 1033 640 1033 640 1033 640 b 1036 638 1035 639 1035 639 b 1036 635 1036 636 1036 636 b 1038 633 1038 635 1038 633 b 1039 629 1039 632 1039 631 b 1040 629 1039 629 1040 629 b 1046 611 1042 624 1044 618 b 1046 611 1046 611 1046 611 b 1046 607 1046 610 1046 608 b 1046 607 1046 607 1046 607 b 1047 603 1047 606 1047 604 b 1047 601 1047 603 1047 601 b 1047 599 1047 600 1047 600 b 1047 596 1047 599 1047 597 b 1047 594 1047 596 1047 594 b 1047 592 1047 593 1047 592 b 1047 590 1047 592 1047 590 l 1047 328 m 433 456 b 478 553 463 482 478 515 b 414 674 478 600 456 642 b 383 692 404 681 394 686 b 401 703 390 696 396 699 b 456 801 436 728 456 764 b 419 881 456 832 443 860 b 283 919 386 911 335 925 b 169 879 211 913 171 881 b 167 846 160 871 157 856 b 200 842 175 835 190 833 b 288 871 200 842 232 865 b 388 844 326 875 364 865 b 407 801 400 833 407 818 b 288 717 407 751 346 717 l 236 717 b 213 693 222 717 213 706 b 213 693 213 693 213 693 b 213 692 213 692 213 692 b 236 668 213 679 222 668 l 279 668 b 429 553 351 668 429 624 b 400 492 429 529 419 508 b 279 458 372 465 325 453 b 169 497 233 464 194 478 b 135 494 158 506 143 504 b 139 460 126 483 128 468 b 274 410 181 426 235 414 b 300 408 282 410 290 408 b 433 456 351 408 399 425 m 394 31 l 894 922 b 886 956 901 935 897 949 b 853 946 874 963 860 958 l 351 54 b 361 21 346 43 350 28 b 374 18 365 19 369 18 b 394 31 382 18 390 22 m 1044 207 b 1068 231 1058 207 1068 218 b 1044 256 1068 244 1058 256 l 975 256 l 975 590 b 975 592 975 590 975 592 b 975 593 975 592 975 592 b 975 594 975 593 975 593 b 975 594 975 594 975 594 b 974 596 974 596 974 596 b 974 597 974 597 974 597 b 974 599 974 597 974 599 b 974 600 974 599 974 599 b 972 600 972 600 972 600 b 972 601 972 601 972 601 b 971 603 972 601 972 603 b 971 604 971 603 971 603 b 971 604 971 604 971 604 b 969 606 969 606 969 606 b 969 607 969 606 969 606 b 968 607 968 607 968 607 b 967 608 968 608 967 608 b 967 610 967 608 967 608 b 965 610 965 610 965 610 b 964 610 965 610 965 610 b 964 611 964 610 964 611 b 963 611 964 611 964 611 b 963 611 963 611 963 611 b 961 613 963 613 961 613 b 960 613 961 613 960 613 b 958 614 960 613 960 613 b 958 614 958 614 958 614 b 957 614 957 614 957 614 b 956 614 957 614 956 614 b 954 614 956 614 956 614 b 953 615 954 614 954 615 b 953 615 953 615 953 615 b 951 615 951 615 951 615 b 950 615 950 615 950 615 b 950 615 950 615 950 615 b 949 615 949 615 949 615 b 947 615 949 615 947 615 b 946 614 947 614 946 614 b 944 614 946 614 946 614 b 944 614 944 614 944 614 b 943 614 943 614 943 614 b 942 613 942 614 942 614 b 940 613 942 613 940 613 b 939 613 940 613 940 613 b 939 611 939 613 939 611 b 938 611 938 611 938 611 b 936 610 938 611 936 611 b 935 610 936 610 936 610 b 935 608 935 610 935 610 b 933 608 935 608 933 608 b 933 607 933 608 933 607 b 932 607 932 607 932 607 b 931 606 932 606 932 606 b 931 604 931 606 931 606 l 675 244 b 672 219 669 238 668 228 b 694 207 676 211 685 207 l 926 207 l 926 58 b 950 35 926 44 938 35 b 975 58 964 35 975 44 l 975 207 l 1044 207 m 742 256 l 926 514 l 926 256 l 742 256 "},"¿":{"ha":644,"x_min":0,"x_max":0,"o":"m 565 -44 b 553 -182 600 -86 594 -147 b 321 -265 489 -235 403 -265 b 263 -260 301 -265 282 -264 b 88 -132 186 -244 124 -199 b 61 35 60 -79 50 -24 b 139 189 71 85 97 136 b 158 213 146 196 151 204 b 235 428 204 267 247 317 b 278 518 232 464 249 499 b 217 624 242 539 217 579 b 339 746 217 690 272 746 b 461 624 406 746 461 690 b 392 514 461 575 433 533 b 429 447 413 499 426 475 b 307 88 449 256 360 150 b 290 67 301 81 296 74 b 258 -40 238 0 251 -26 b 300 -69 265 -51 275 -64 b 429 -32 340 -76 393 -61 b 565 -44 469 1 532 -4 m 339 672 b 290 624 311 672 290 650 b 339 575 290 596 311 575 b 388 624 367 575 388 596 b 339 672 388 650 367 672 m 506 -126 b 510 -92 517 -117 518 -101 b 475 -89 501 -82 486 -79 b 286 -140 424 -132 347 -153 b 194 -75 258 -135 218 -119 b 233 113 164 -18 176 42 b 251 133 239 119 246 126 b 356 440 303 194 374 278 b 329 461 354 453 343 463 b 308 435 317 460 307 449 b 214 165 322 294 263 222 b 196 143 208 157 201 150 b 151 -97 126 56 113 -24 b 278 -189 178 -146 221 -178 b 322 -193 292 -192 307 -193 b 506 -126 386 -193 456 -168 "},"a":{"ha":717,"x_min":0,"x_max":0,"o":"m 649 72 l 758 72 l 758 0 l 576 0 l 576 365 b 576 369 576 367 576 368 b 576 369 576 369 576 369 b 450 624 575 532 507 597 b 278 633 390 651 324 644 b 150 575 228 622 178 600 b 147 540 140 567 139 551 b 182 538 156 531 171 529 b 431 579 222 574 344 618 b 526 396 489 553 521 490 b 200 317 381 404 265 376 b 142 182 161 281 142 235 b 324 1 142 78 218 1 b 494 79 389 1 449 29 b 528 125 507 94 518 110 l 528 0 b 528 0 528 0 528 0 l 142 0 b 142 0 142 0 142 0 l -42 0 l -42 72 l 92 72 b 68 182 76 106 68 143 b 151 369 68 256 97 321 b 439 469 215 431 314 464 b 400 513 431 489 418 504 b 306 515 378 524 343 525 b 229 483 265 506 238 489 b 92 493 189 447 128 453 b 103 631 57 533 61 594 b 261 704 140 663 199 690 b 481 690 318 718 401 726 b 606 569 535 665 578 624 b 649 372 633 517 649 450 b 649 369 649 371 649 371 b 649 365 649 368 649 367 l 649 250 b 649 249 649 250 649 250 l 649 72 m 233 281 b 528 347 289 332 393 356 l 528 253 b 324 50 515 201 465 50 b 190 182 244 50 190 104 b 233 281 190 221 204 254 m 454 263 l 454 275 b 282 226 375 272 314 256 b 263 182 269 214 263 201 b 324 124 263 144 285 124 b 454 263 406 124 442 214 "},"b":{"ha":829,"x_min":0,"x_max":0,"o":"m 414 50 b 190 317 290 50 190 169 b 414 583 190 464 290 583 b 639 317 539 583 639 464 b 414 50 639 169 539 50 m 313 458 b 263 317 281 421 263 371 b 313 175 263 263 281 211 b 414 124 340 142 376 124 b 517 175 453 124 489 142 b 567 317 549 211 567 263 b 517 458 567 371 549 421 b 414 510 489 492 453 510 b 313 458 376 510 340 492 m 685 72 l 871 72 l 871 0 l 615 0 b 615 0 615 0 615 0 l 190 0 b 190 0 190 0 190 0 l 190 138 b 414 1 239 56 321 1 b 688 317 565 1 688 143 b 414 632 688 490 565 632 b 190 496 321 632 239 578 l 190 932 b 165 957 190 946 179 957 b 142 932 151 957 142 946 l 142 0 b 142 0 142 0 142 0 l 68 0 b 68 0 68 0 68 0 l -42 0 l -42 72 l 68 72 l 68 932 b 165 1029 68 986 111 1029 b 263 932 219 1029 263 986 l 263 665 b 414 704 310 690 361 704 b 665 585 510 704 599 663 b 761 317 726 513 761 417 b 685 72 761 226 733 142 "},"B":{"ha":878,"x_min":0,"x_max":0,"o":"m 658 669 b 433 489 658 558 540 489 l 289 489 l 289 822 b 432 829 313 826 360 833 b 658 669 536 825 658 779 m 361 757 l 361 563 l 433 563 b 585 669 504 563 585 606 b 428 757 585 749 435 757 b 361 757 403 758 381 758 m 443 25 b 289 33 364 21 313 28 l 289 440 l 433 440 l 444 440 b 686 221 561 440 686 357 b 443 25 686 86 556 31 m 433 368 l 361 368 l 361 97 b 439 97 382 96 408 96 b 613 221 468 99 613 113 b 444 368 613 313 525 368 l 433 368 m 768 72 l 919 72 l 919 0 l 708 0 b 708 0 708 0 708 0 l 567 0 b 642 40 594 10 621 24 b 735 221 703 83 735 147 b 643 417 735 296 703 365 b 560 467 619 438 590 454 b 619 503 581 476 601 489 b 707 669 675 546 707 604 b 618 825 707 733 676 788 b 433 878 571 856 506 875 b 257 865 321 883 264 867 b 257 865 257 865 257 865 b 257 865 257 865 257 865 b 257 864 257 865 257 865 b 254 864 256 864 256 864 b 254 864 254 864 254 864 b 253 863 253 864 253 863 b 251 863 253 863 251 863 b 250 861 251 863 251 863 b 250 861 250 861 250 861 b 249 860 250 861 249 861 b 247 860 249 860 249 860 b 247 858 247 860 247 858 b 246 858 247 858 247 858 b 246 857 246 857 246 857 b 244 856 246 857 246 857 b 244 854 244 856 244 856 b 244 854 244 854 244 854 b 240 842 242 851 240 846 l 240 489 l 168 489 b 143 465 154 489 143 479 b 168 440 143 451 154 440 l 240 440 l 240 0 l 168 0 b 168 0 168 0 168 0 l -42 0 l -42 72 l 167 72 l 167 368 b 71 465 114 368 71 411 b 167 563 71 518 114 563 l 167 842 b 236 935 167 886 196 922 b 438 951 253 940 318 957 b 779 669 642 942 779 828 b 693 469 779 593 749 524 b 807 221 767 406 807 317 b 768 72 807 167 794 117 "},"c":{"ha":765,"x_min":0,"x_max":0,"o":"m 692 72 l 807 72 l 807 0 l 688 0 b 688 0 688 0 688 0 l 572 0 b 613 21 586 6 600 13 b 619 54 624 28 628 42 b 586 61 613 65 599 69 b 454 24 547 38 501 24 b 190 306 301 24 190 143 b 454 586 190 468 301 586 b 586 549 501 586 547 574 b 619 557 599 542 613 546 b 613 590 628 568 624 583 b 454 635 564 619 510 635 b 233 544 369 635 292 603 b 142 306 175 483 142 399 b 233 67 142 213 175 128 b 332 0 263 38 296 15 l 199 0 b 199 0 199 0 199 0 l -42 0 l -42 72 l 136 72 b 69 306 93 139 69 219 b 182 594 69 418 110 521 b 454 708 253 668 350 708 b 650 653 524 708 592 689 b 682 518 696 624 710 564 b 549 486 654 472 594 458 b 454 514 519 504 488 514 b 264 306 342 514 264 428 b 454 97 264 183 342 97 b 549 124 488 97 519 107 b 682 92 594 151 654 138 b 692 72 686 86 689 79 "},"C":{"ha":951,"x_min":0,"x_max":0,"o":"m 883 72 l 993 72 l 993 0 l 865 0 b 865 0 865 0 865 0 l 721 0 b 799 38 747 10 774 22 b 807 71 811 44 814 60 b 774 79 800 82 786 86 b 579 25 715 43 649 25 b 192 431 354 25 192 194 b 579 835 192 665 354 835 b 774 781 649 835 715 817 b 807 789 786 774 800 778 b 799 822 814 801 811 815 b 579 883 733 863 657 883 b 271 758 461 883 351 839 b 143 431 188 676 143 558 b 271 101 143 301 188 185 b 433 0 317 56 371 21 l 276 0 b 276 0 276 0 276 0 l -42 0 l -42 72 l 197 72 b 69 431 115 168 69 293 b 219 810 69 578 122 714 b 579 957 313 904 442 957 b 838 885 671 957 760 932 b 869 751 883 857 897 797 b 736 718 842 706 782 690 b 579 763 689 747 635 763 b 264 431 394 763 264 626 b 579 97 264 235 394 97 b 736 142 635 97 689 113 b 869 108 782 169 842 154 b 883 72 876 97 881 85 "},"D":{"ha":957,"x_min":0,"x_max":0,"o":"m 764 428 b 390 26 764 192 617 35 b 328 25 365 26 346 25 b 193 36 276 25 232 29 l 193 818 b 328 829 232 825 276 829 b 390 828 346 829 365 829 b 764 428 617 821 764 663 m 328 99 b 388 100 346 99 364 99 b 690 428 575 106 690 232 b 388 756 690 624 575 749 b 328 757 364 756 346 757 b 265 754 306 757 285 756 l 265 100 b 328 99 285 99 306 99 m 763 72 l 999 72 l 999 0 l 683 0 b 683 0 683 0 683 0 l 522 0 b 692 104 588 21 646 56 b 813 428 771 185 813 296 b 692 751 813 558 771 671 b 392 876 617 829 513 872 b 328 878 367 878 347 878 b 163 861 264 878 211 872 b 144 838 151 858 144 849 l 144 0 l 72 0 b 72 0 72 0 72 0 l -42 0 l -42 72 l 71 72 l 71 838 b 146 932 71 883 101 922 b 328 951 200 944 258 951 b 394 950 347 951 368 950 b 744 801 532 944 657 892 b 885 428 836 707 885 578 b 763 72 885 288 843 165 "},"E":{"ha":901,"x_min":0,"x_max":0,"o":"m 832 72 l 943 72 l 943 0 l 799 0 b 799 0 799 0 799 0 l 138 0 b 138 0 138 0 138 0 l -42 0 l -42 72 l 106 72 b 201 169 106 126 149 169 l 201 747 b 106 844 149 747 106 790 b 203 942 106 899 149 942 l 735 942 b 832 844 788 942 832 899 b 735 747 832 790 788 747 l 396 747 l 396 574 l 703 574 b 800 476 757 574 800 531 b 703 379 800 422 757 379 l 396 379 l 396 169 l 735 169 b 832 72 788 169 832 126 m 735 49 b 758 72 747 49 758 60 b 735 97 758 86 747 97 l 324 97 l 324 453 l 703 453 b 726 476 717 453 726 463 b 703 501 726 490 717 501 l 324 501 l 324 819 l 735 819 b 758 844 747 819 758 831 b 735 868 758 858 747 868 l 203 868 b 178 844 189 868 178 858 b 203 819 178 831 189 819 l 275 819 l 275 97 l 203 97 b 178 72 189 97 178 86 b 203 49 178 60 189 49 l 735 49 "},"e":{"ha":882,"x_min":0,"x_max":0,"o":"m 813 72 l 924 72 l 924 0 l 807 0 b 807 0 807 0 807 0 l 679 0 b 731 21 699 7 715 14 b 742 54 743 28 747 42 b 710 65 736 65 722 71 b 493 25 660 42 583 15 b 344 108 436 31 382 61 b 285 300 317 146 286 206 l 710 300 b 710 300 710 300 710 300 l 710 300 b 710 300 710 300 710 300 b 713 300 711 300 711 300 b 713 300 713 300 713 300 b 714 301 714 300 714 301 b 715 301 715 301 715 301 b 717 301 715 301 717 301 b 718 301 717 301 718 301 b 719 303 718 301 718 301 b 719 303 719 303 719 303 b 721 303 721 303 721 303 b 722 304 721 303 722 304 b 724 304 722 304 722 304 b 724 306 724 304 724 304 b 725 306 725 306 725 306 b 726 307 725 306 725 306 b 726 307 726 307 726 307 b 728 308 726 307 728 308 b 728 310 728 308 728 308 b 729 310 729 310 729 310 b 729 311 729 310 729 311 b 731 311 731 311 731 311 b 731 313 731 313 731 313 b 732 314 731 314 732 314 b 732 315 732 314 732 315 b 732 317 732 315 732 315 b 733 317 732 317 733 317 b 733 319 733 318 733 318 b 733 319 733 319 733 319 b 733 319 733 319 733 319 b 733 319 733 319 733 319 b 740 379 738 339 740 360 b 650 589 740 460 707 539 b 488 643 606 631 547 649 b 242 382 357 629 263 529 b 239 349 240 371 239 360 l 167 349 b 142 325 153 349 142 338 b 167 300 142 311 153 300 l 236 300 b 307 79 238 193 274 122 b 404 0 333 44 367 18 l 279 0 b 279 0 279 0 279 0 l -42 0 l -42 72 l 222 72 b 169 228 199 113 178 163 l 167 228 b 69 325 113 228 69 271 b 167 422 69 378 113 422 l 175 422 b 267 608 190 494 221 558 b 481 715 324 669 397 707 b 700 643 561 724 639 699 b 813 379 771 579 813 481 b 806 306 813 354 810 331 b 804 304 806 306 804 304 b 804 304 804 304 804 304 b 804 304 804 304 804 304 b 800 289 803 299 801 293 b 800 288 800 288 800 288 b 799 285 799 286 799 286 b 797 283 799 285 797 283 b 797 282 797 282 797 282 b 796 279 796 281 796 279 b 794 278 796 279 794 278 b 793 275 794 276 793 275 b 793 274 793 275 793 274 b 790 271 792 272 792 272 b 790 271 790 271 790 271 b 779 256 786 265 783 260 b 778 256 778 256 778 256 b 775 253 778 254 776 254 b 775 253 775 253 775 253 b 772 250 774 251 774 251 b 771 249 772 250 771 250 b 769 247 771 249 769 249 b 767 246 768 247 768 247 b 765 246 767 246 767 246 b 754 238 763 243 758 240 b 753 238 753 238 753 238 b 750 236 751 238 751 236 b 749 236 750 236 750 236 b 746 235 749 235 747 235 b 746 235 746 235 746 235 b 742 233 744 233 743 233 b 742 233 742 233 742 233 b 738 232 740 232 739 232 b 735 231 736 231 735 231 b 733 231 733 231 733 231 b 729 229 732 231 731 229 b 729 229 729 229 729 229 b 725 229 728 229 726 229 b 724 229 725 229 725 229 b 719 228 722 228 721 228 b 719 228 719 228 719 228 b 710 228 717 228 713 228 b 708 228 710 228 710 228 l 367 228 b 403 154 375 199 386 175 b 501 97 428 121 464 101 b 678 131 578 89 644 115 b 808 85 726 154 785 133 b 813 72 810 81 811 76 m 618 553 b 692 379 664 511 692 447 b 689 349 692 369 690 358 l 288 349 b 290 376 288 358 289 367 b 493 594 307 499 385 583 b 618 553 551 600 593 575 m 376 422 l 613 422 b 569 499 606 453 590 481 b 501 522 549 517 526 525 b 376 422 443 515 400 479 "},"f":{"ha":843,"x_min":0,"x_max":0,"o":"m 885 72 l 885 0 l 410 0 l 410 -3 b 410 0 410 -4 410 -3 l 338 0 l 338 421 l 526 421 b 550 446 540 421 550 432 b 526 469 550 458 540 469 l 338 469 l 338 729 b 496 888 338 817 408 888 b 653 729 582 888 653 817 b 678 706 653 717 664 706 b 701 729 690 706 701 717 b 496 936 701 843 608 936 b 289 729 382 936 289 843 l 289 469 l 167 469 b 142 446 153 469 142 458 b 167 421 142 432 153 421 l 289 421 l 289 0 l 215 0 b 215 -3 215 -3 215 -4 l 215 0 l -42 0 l -42 72 l 215 72 l 215 349 l 167 349 b 69 446 113 349 69 392 b 167 543 69 499 113 543 l 215 543 l 215 729 b 496 1008 215 883 342 1008 b 775 729 649 1008 775 883 b 678 632 775 676 731 632 b 581 729 624 632 581 676 b 496 814 581 776 542 814 b 410 729 449 814 410 776 l 410 543 l 526 543 b 624 446 581 543 624 499 b 526 349 624 392 581 349 l 410 349 l 410 72 l 885 72 "},"F":{"ha":867,"x_min":0,"x_max":0,"o":"m 361 72 l 908 72 l 908 0 l 288 0 l 288 421 l 668 421 b 692 446 681 421 692 432 b 668 469 692 458 681 469 l 288 469 l 288 819 l 699 819 b 724 844 713 819 724 831 b 699 868 724 858 713 868 l 264 868 b 239 844 250 868 239 858 l 239 469 l 167 469 b 143 446 154 469 143 458 b 167 421 143 432 154 421 l 239 421 l 239 0 l -42 0 l -42 72 l 167 72 l 167 349 b 69 446 113 349 69 392 b 167 543 69 499 113 542 l 167 844 b 264 942 167 899 210 942 l 699 942 b 796 844 753 942 796 899 b 699 747 796 790 753 747 l 361 747 l 361 543 l 668 543 b 765 446 721 543 765 499 b 668 349 765 392 721 349 l 361 349 l 361 72 "},"G":{"ha":982,"x_min":0,"x_max":0,"o":"m 882 72 l 1024 72 l 1024 0 l 822 0 b 822 0 822 0 822 0 l 810 0 l 810 425 b 785 449 810 439 799 449 l 540 449 b 517 425 526 449 517 439 b 540 400 517 411 526 400 l 761 400 l 761 104 b 578 60 706 75 642 60 b 190 447 353 60 190 222 b 578 836 190 672 353 836 b 801 783 657 836 747 815 b 835 793 813 778 828 781 b 825 826 840 804 838 819 b 578 885 756 867 651 885 b 269 765 460 885 350 842 b 142 447 186 685 142 572 b 269 131 142 324 186 211 b 578 11 350 53 460 11 b 761 50 642 11 704 24 l 761 0 l 326 0 b 326 0 326 0 326 0 l -42 0 l -42 72 l 225 72 b 218 78 222 75 221 76 b 68 447 122 172 68 303 b 218 817 68 592 122 724 b 578 958 313 908 440 958 b 863 889 661 958 781 936 b 897 756 908 863 924 803 b 764 721 871 710 811 694 b 578 764 722 744 643 764 b 263 447 393 764 263 633 b 578 132 263 263 393 132 b 688 151 615 132 653 139 l 688 328 l 540 328 b 443 425 486 328 443 371 b 540 522 443 479 486 522 l 785 522 b 882 425 839 522 882 479 l 882 72 "},"h":{"ha":761,"x_min":0,"x_max":0,"o":"m 406 583 b 571 317 482 583 571 553 l 571 0 l 499 0 b 499 0 499 0 499 0 l 499 317 b 468 482 499 414 482 461 b 406 510 458 496 446 510 b 315 458 376 510 343 490 b 264 317 282 421 264 368 l 264 0 b 264 0 264 0 264 0 l 190 0 l 190 317 b 260 506 190 386 215 454 b 406 583 301 554 354 583 m 803 72 l 803 0 l 693 0 b 693 0 693 0 693 0 l 619 0 l 619 317 b 569 549 619 421 603 496 b 406 632 535 603 479 632 b 222 538 340 632 274 597 b 190 493 211 524 200 508 l 190 932 b 167 957 190 946 179 957 b 142 932 153 957 142 946 l 142 0 l 69 0 b 69 0 69 0 69 0 l -42 0 l -42 72 l 69 72 l 69 932 b 167 1029 69 986 113 1029 b 264 932 219 1029 264 986 l 264 665 b 406 704 308 690 357 704 b 631 588 529 704 597 640 b 693 317 672 524 693 435 l 693 72 "},"i":{"ha":406,"x_min":0,"x_max":0,"o":"m 300 72 l 447 72 l 447 0 l 226 0 l 226 642 b 203 667 226 656 215 667 b 178 642 189 667 178 656 l 178 0 l -42 0 l -42 72 l 106 72 l 106 642 b 167 732 106 683 131 718 b 106 822 131 746 106 782 l 106 893 b 203 990 106 947 149 990 b 300 893 256 990 300 947 l 300 822 b 239 732 300 782 275 746 b 300 642 275 718 300 683 l 300 72 m 226 822 l 226 893 b 203 918 226 907 215 918 b 178 893 189 918 178 907 l 178 822 b 203 799 178 808 189 799 b 226 822 215 799 226 808 "},"I":{"ha":406,"x_min":0,"x_max":0,"o":"m 300 72 l 447 72 l 447 0 l 226 0 l 226 893 b 203 918 226 907 215 918 b 178 893 189 918 178 907 l 178 0 l -42 0 l -42 72 l 106 72 l 106 893 b 203 990 106 947 149 990 b 300 893 256 990 300 947 l 300 72 "},"J":{"ha":733,"x_min":0,"x_max":0,"o":"m 579 72 l 775 72 l 775 0 l 518 0 b 319 -64 467 -42 400 -64 b 276 -61 306 -64 290 -62 b 174 -42 242 -58 207 -51 b 119 0 150 -35 132 -19 l -42 0 l -42 72 l 107 72 b 110 81 108 75 108 78 b 231 144 125 132 179 160 b 293 132 251 138 272 133 b 396 153 326 129 372 131 b 433 336 433 186 433 276 l 433 343 l 433 893 b 531 990 433 947 476 990 b 628 893 585 990 628 947 l 628 336 b 579 72 628 263 628 158 m 479 63 b 554 336 556 133 554 256 l 554 893 b 531 918 554 907 544 918 b 506 893 517 918 506 907 l 506 343 l 506 336 b 446 99 506 260 507 154 b 286 60 411 67 357 53 b 210 75 260 63 235 67 b 179 58 196 79 183 71 b 194 28 175 46 182 32 b 282 11 224 19 253 14 b 319 10 294 10 307 10 b 479 63 386 10 440 28 "},"K":{"ha":846,"x_min":0,"x_max":0,"o":"m 226 324 l 357 479 l 679 0 l 592 0 l 350 358 l 300 297 l 300 0 b 300 0 300 0 300 0 l 226 0 b 226 0 226 0 226 0 l 226 324 m 776 72 l 888 72 l 888 0 l 806 0 b 806 0 806 0 806 0 l 738 0 l 390 518 l 694 878 b 692 913 703 888 701 903 b 657 910 681 921 665 919 l 340 535 b 340 535 340 535 340 535 l 226 400 l 226 893 b 203 918 226 907 215 918 b 178 893 189 918 178 907 l 178 0 b 178 0 178 0 178 0 l 106 0 b 106 0 106 0 106 0 l -42 0 l -42 72 l 106 72 l 106 893 b 203 990 106 947 149 990 b 300 893 256 990 300 947 l 300 599 l 601 956 b 739 968 636 997 697 1003 b 750 831 779 933 785 872 l 481 513 l 776 72 "},"k":{"ha":800,"x_min":0,"x_max":0,"o":"m 335 338 l 581 0 l 490 0 l 328 222 l 299 190 l 299 0 b 299 0 299 0 299 0 l 226 0 b 226 0 226 0 226 0 l 226 219 m 842 72 l 842 0 l 708 0 b 708 0 708 0 708 0 l 642 0 l 368 374 l 619 649 b 618 682 628 658 628 674 b 583 681 608 692 593 690 l 226 292 l 226 931 b 201 956 226 944 215 956 b 178 931 189 956 178 944 l 178 0 b 178 0 178 0 178 0 l 104 0 b 104 0 104 0 104 0 l -42 0 l -42 72 l 104 72 l 104 931 b 201 1028 104 985 149 1028 b 299 931 256 1028 299 985 l 299 479 l 529 731 b 667 736 567 769 628 772 b 674 599 707 700 710 639 l 463 368 l 678 72 "},"l":{"ha":406,"x_min":0,"x_max":0,"o":"m 447 72 l 447 0 l 226 0 l 226 932 b 203 957 226 946 215 957 b 178 932 189 957 178 946 l 178 0 l -42 0 l -42 72 l 106 72 l 106 932 b 203 1029 106 986 149 1029 b 300 932 256 1029 300 986 l 300 72 "},"L":{"ha":803,"x_min":0,"x_max":0,"o":"m 735 72 l 844 72 l 844 0 l 703 0 b 703 0 703 0 703 0 l 136 0 b 136 0 136 0 136 0 l -42 0 l -42 72 l 103 72 l 103 893 b 200 990 103 947 147 990 b 297 893 254 990 297 947 l 297 169 l 638 169 b 735 72 692 169 735 126 m 638 49 b 663 72 651 49 663 60 b 638 97 663 86 651 97 l 225 97 l 225 893 b 200 918 225 907 214 918 b 176 893 188 918 176 907 l 176 72 b 200 49 176 60 188 49 l 638 49 "},"m":{"ha":1174,"x_min":0,"x_max":0,"o":"m 104 0 b 104 0 104 0 104 0 l -42 0 l -42 72 l 104 72 l 104 642 b 201 739 104 694 147 739 b 296 664 247 739 286 707 b 440 704 342 690 392 704 b 629 633 531 704 590 671 b 818 704 686 678 751 704 b 1044 588 943 704 1010 640 b 1106 317 1085 524 1106 435 l 1106 72 l 1215 72 l 1215 0 l 1106 0 b 1106 0 1106 0 1106 0 l 1032 0 b 1032 0 1032 0 1032 0 l 1032 317 b 983 549 1032 421 1017 496 b 818 632 947 603 892 632 b 621 519 746 632 672 589 b 606 549 617 529 611 539 b 440 632 569 603 514 632 b 258 538 376 632 310 597 b 226 493 246 524 235 508 l 226 642 b 201 665 226 654 215 665 b 178 642 188 665 178 654 l 178 0 b 178 0 178 0 178 0 l 104 0 m 881 482 b 818 510 872 496 860 510 b 718 446 785 510 746 485 b 728 317 725 407 728 364 l 728 58 b 631 -39 728 4 685 -39 b 533 58 576 -39 533 4 l 533 317 b 521 436 533 371 528 410 b 521 440 521 438 521 439 b 503 482 515 460 508 474 b 440 510 494 496 482 510 b 350 458 411 510 378 490 b 299 317 318 421 299 368 l 299 0 b 299 0 299 0 299 0 l 226 0 b 226 0 226 0 226 0 l 226 317 b 296 506 226 386 250 454 b 440 583 338 554 390 583 b 592 458 499 583 563 565 b 592 456 592 457 592 457 b 607 317 601 419 607 374 l 607 58 b 631 33 607 44 617 33 b 656 58 644 33 656 44 l 656 317 b 640 460 656 372 650 419 b 818 583 682 533 753 583 b 983 317 896 583 983 553 l 983 0 b 983 0 983 0 983 0 l 911 0 b 911 0 911 0 911 0 l 911 317 b 881 482 911 414 894 461 "},"M":{"ha":1136,"x_min":0,"x_max":0,"o":"m 1061 72 l 1178 72 l 1178 0 l 1067 0 b 1067 0 1067 0 1067 0 l 993 0 l 932 901 b 913 924 932 913 924 922 b 886 908 901 925 890 919 l 568 117 l 251 908 b 225 924 247 919 236 925 b 204 901 214 922 206 913 l 143 0 l 71 0 b 71 0 71 0 71 0 l -42 0 l -42 72 l 75 72 l 132 906 b 214 996 135 951 168 989 b 319 936 258 1003 301 978 l 568 313 l 818 936 b 924 996 835 978 879 1003 b 1006 906 968 989 1003 951 l 1061 72 m 872 0 l 840 468 l 658 15 b 568 -46 644 -22 608 -46 b 478 15 529 -46 493 -22 l 297 468 l 265 0 l 192 0 l 246 792 l 546 42 b 568 26 550 33 558 26 b 592 42 578 26 588 33 l 892 792 l 944 0 l 872 0 "},"n":{"ha":763,"x_min":0,"x_max":0,"o":"m 264 0 b 264 0 264 0 264 0 l 192 0 b 192 0 192 0 192 0 l 192 317 b 261 506 192 386 217 454 b 407 583 303 554 356 583 b 572 317 483 583 572 553 l 572 0 b 572 0 572 0 572 0 l 499 0 b 499 0 499 0 499 0 l 499 317 b 468 482 499 414 482 461 b 407 510 460 496 447 510 b 317 458 378 510 343 490 b 264 317 283 421 264 368 l 264 0 m 693 72 l 804 72 l 804 0 l 693 0 b 693 0 693 0 693 0 l 621 0 b 621 0 621 0 621 0 l 621 317 b 571 549 621 421 604 496 b 407 632 535 603 479 632 b 224 538 342 632 275 597 b 192 493 211 524 201 508 l 192 642 b 167 667 192 656 181 667 b 143 642 154 667 143 656 l 143 0 b 143 0 143 0 143 0 l 69 0 b 69 0 69 0 69 0 l -42 0 l -42 72 l 69 72 l 69 642 b 167 739 69 696 114 739 b 263 664 214 739 253 707 b 407 704 307 690 357 704 b 632 588 531 704 597 640 b 693 317 674 524 693 435 l 693 72 "},"N":{"ha":968,"x_min":0,"x_max":0,"o":"m 864 72 l 1010 72 l 1010 0 l 847 0 b 794 -40 836 -18 817 -33 b 686 -1 754 -51 710 -36 l 300 575 l 300 0 b 300 0 300 0 300 0 l 226 0 b 226 0 226 0 226 0 l 226 814 l 746 40 b 774 31 753 31 764 26 b 790 53 783 33 790 43 l 790 893 b 767 918 790 907 781 918 b 742 893 753 918 742 907 l 742 133 l 222 907 b 196 917 217 915 206 919 b 178 893 185 914 178 904 l 178 0 b 178 0 178 0 178 0 l 106 0 b 106 0 106 0 106 0 l -42 0 l -42 72 l 106 72 l 106 893 b 174 986 106 936 133 974 b 283 947 215 999 260 983 l 669 372 l 669 893 b 767 990 669 947 713 990 b 864 893 821 990 864 947 l 864 72 "},"o":{"ha":838,"x_min":0,"x_max":0,"o":"m 419 581 b 647 303 544 581 647 456 b 419 25 647 149 544 25 b 190 303 293 25 190 149 b 419 581 190 456 293 581 m 524 151 b 575 303 557 190 575 244 b 524 454 575 361 557 415 b 419 508 494 489 457 508 b 314 454 381 508 343 489 b 263 303 282 415 263 361 b 314 151 263 244 281 190 b 419 97 343 117 381 97 b 524 151 457 97 494 117 m 706 72 l 879 72 l 879 0 l 649 0 b 649 0 649 0 649 0 l 524 0 b 696 303 625 49 696 167 b 419 629 696 483 572 629 b 142 303 265 629 142 483 b 314 0 142 167 213 49 l 190 0 b 190 0 190 0 190 0 l -42 0 l -42 72 l 132 72 b 68 303 90 140 68 219 b 165 579 68 407 103 504 b 419 703 232 658 322 703 b 672 579 515 703 606 658 b 769 303 735 504 769 407 b 706 72 769 219 747 140 "},"O":{"ha":1035,"x_min":0,"x_max":0,"o":"m 517 839 b 844 432 697 839 844 656 b 517 25 844 207 697 25 b 190 432 338 25 190 207 b 517 839 190 656 338 839 m 690 188 b 771 432 743 251 771 339 b 690 675 771 524 743 611 b 517 765 643 733 582 765 b 344 675 453 765 392 733 b 263 432 292 611 263 524 b 344 188 263 339 292 251 b 517 97 392 129 453 97 b 690 188 582 97 643 129 m 847 72 l 1076 72 l 1076 0 l 776 0 b 776 0 776 0 776 0 l 639 0 b 785 111 693 22 743 60 b 893 432 854 197 893 311 b 785 751 893 553 854 665 b 517 888 714 839 618 888 b 250 751 415 888 321 839 b 142 432 181 665 142 553 b 250 111 142 311 181 197 b 396 0 292 60 342 22 l 257 0 b 257 0 257 0 257 0 l -42 0 l -42 72 l 188 72 b 68 432 111 171 68 297 b 193 797 68 569 113 699 b 336 915 235 847 282 888 b 517 960 393 944 454 960 b 699 915 581 960 642 944 b 842 797 753 888 800 847 b 965 432 921 699 965 569 b 847 72 965 297 924 171 "},"P":{"ha":806,"x_min":0,"x_max":0,"o":"m 299 72 l 847 72 l 847 0 l 299 0 b 299 0 299 0 299 0 l 226 0 b 226 0 226 0 226 0 l 226 371 b 254 371 235 371 244 371 b 313 371 272 371 292 371 b 563 439 414 374 501 397 b 664 625 629 485 664 549 b 563 811 664 701 629 767 b 313 879 501 854 414 878 b 100 872 254 881 169 882 b 81 844 88 869 78 857 b 107 824 82 831 94 821 b 178 831 129 826 153 829 l 178 397 b 178 397 178 397 178 397 b 178 396 178 397 178 396 l 178 0 b 178 0 178 0 178 0 l 104 0 b 104 0 104 0 104 0 l -42 0 l -42 72 l 104 72 l 104 750 b 104 750 104 750 104 750 b 8 833 57 750 15 785 b 90 943 0 886 38 936 b 314 953 164 954 253 954 b 604 872 431 950 531 922 b 738 625 690 813 738 725 b 604 379 738 525 690 438 b 314 299 531 329 431 301 b 299 299 308 299 304 299 l 299 72 m 311 419 b 226 419 279 419 251 419 l 226 832 b 311 831 257 832 286 832 b 615 625 499 826 615 749 b 311 419 615 503 499 424 m 299 758 l 299 493 b 310 493 303 493 306 493 b 543 625 349 493 543 504 b 310 758 543 747 349 757 b 299 758 306 758 303 758 "},"q":{"ha":869,"x_min":0,"x_max":0,"o":"m 417 592 b 642 326 540 592 642 472 b 417 60 642 179 540 60 b 192 326 292 60 192 179 b 417 592 192 472 292 592 m 518 183 b 568 326 550 221 568 271 b 518 468 568 381 550 431 b 417 519 490 501 454 519 b 314 468 378 519 342 501 b 264 326 282 431 264 381 b 314 183 264 271 282 221 b 417 132 342 150 378 132 b 518 183 454 132 490 150 m 911 72 l 911 0 l 763 0 l 763 -251 b 665 -349 763 -304 719 -349 b 568 -251 611 -349 568 -304 l 568 -24 b 568 -24 568 -24 568 -24 l 568 0 l 228 0 b 228 0 228 0 228 0 l -42 0 l -42 72 l 153 72 b 69 326 99 143 69 232 b 167 594 69 426 104 522 b 417 714 232 671 321 714 b 572 672 472 714 525 699 b 665 739 585 711 622 739 b 763 642 719 739 763 696 l 763 72 m 690 642 b 665 667 690 656 679 667 b 642 642 651 667 642 656 l 642 504 b 417 640 592 586 510 640 b 143 326 265 640 143 500 b 417 11 143 151 265 11 b 642 147 510 11 592 65 l 642 -251 b 665 -275 642 -264 651 -275 b 690 -251 679 -275 690 -264 "},"Q":{"ha":1035,"x_min":0,"x_max":0,"o":"m 1076 72 l 1076 0 l 961 0 b 1000 -131 1007 -25 1025 -83 b 914 -182 983 -162 949 -182 b 869 -171 899 -182 883 -179 l 669 -67 b 517 -97 621 -87 569 -97 b 336 -53 454 -97 393 -82 b 257 0 308 -37 282 -21 l -42 0 l -42 72 l 188 72 b 68 432 111 171 68 297 b 193 797 68 569 113 699 b 336 915 235 847 282 888 b 517 960 393 944 454 960 b 699 915 581 960 642 944 b 842 797 753 888 800 847 b 965 432 921 699 965 569 b 847 72 965 297 924 171 l 1076 72 m 936 -96 b 925 -64 942 -85 938 -69 l 717 46 b 785 111 742 64 764 86 b 893 432 854 197 893 311 b 785 751 893 553 854 665 b 517 888 714 839 618 888 b 250 751 415 888 321 839 b 142 432 181 665 142 553 b 250 111 142 311 181 197 b 517 -25 321 24 415 -25 b 671 15 571 -25 622 -11 l 903 -107 b 914 -110 906 -108 910 -110 b 936 -96 922 -110 931 -104 m 844 432 b 668 71 844 275 774 139 l 508 154 b 476 144 497 160 482 156 b 486 111 469 132 475 117 l 617 43 b 517 24 585 31 551 24 b 190 432 338 24 190 207 b 517 839 190 656 338 839 b 844 432 697 839 844 656 m 661 157 b 690 188 671 167 681 176 b 771 432 743 251 771 339 b 690 675 771 524 743 611 b 517 765 643 733 582 765 b 344 675 453 765 392 733 b 263 432 292 611 263 524 b 344 188 263 339 292 251 b 400 135 361 167 381 149 b 411 178 401 150 404 164 b 543 218 436 225 496 243 l 661 157 "},"r":{"ha":592,"x_min":0,"x_max":0,"o":"m 264 72 l 633 72 l 633 0 l 264 0 b 264 0 264 0 264 0 l 190 0 b 190 0 190 0 190 0 l 190 107 b 310 557 190 332 235 500 b 419 575 340 581 376 586 b 449 592 432 571 446 579 b 432 622 453 606 444 618 b 281 596 374 638 324 629 b 190 458 243 568 214 522 l 190 642 b 167 667 190 656 181 667 b 142 642 153 667 142 656 l 142 107 l 142 0 b 142 0 142 0 142 0 l 69 0 b 69 0 69 0 69 0 l -42 0 l -42 72 l 69 72 l 69 107 l 69 642 b 167 739 69 696 113 739 b 260 669 211 739 247 710 b 451 692 315 703 382 711 b 519 574 503 678 533 625 b 400 504 506 521 453 490 b 354 500 374 513 363 506 b 264 107 310 465 264 331 l 264 72 "},"R":{"ha":807,"x_min":0,"x_max":0,"o":"m 747 72 l 849 72 l 849 0 l 761 0 b 761 0 761 0 761 0 l 688 0 b 688 6 688 1 688 4 b 564 369 640 213 607 311 b 489 432 542 400 517 419 b 564 468 517 442 542 453 b 665 642 631 510 665 571 b 564 817 665 714 631 774 b 314 879 503 856 415 878 b 103 872 256 881 171 882 b 82 844 90 871 81 858 b 110 824 85 832 96 822 b 178 831 131 826 154 829 l 178 0 b 178 0 178 0 178 0 l 106 0 b 106 0 106 0 106 0 l -42 0 l -42 72 l 106 72 l 106 751 b 10 835 58 751 17 786 b 93 944 3 889 40 938 b 315 953 165 954 250 954 b 603 878 431 950 531 925 b 738 642 690 822 738 739 b 619 417 738 551 696 472 b 622 413 621 415 621 414 b 747 72 674 343 708 233 m 250 453 b 226 453 244 453 238 453 l 226 832 b 313 831 258 832 288 832 b 617 642 500 828 617 756 b 313 453 617 529 500 457 b 250 453 274 453 265 453 m 300 758 l 300 525 b 311 526 303 526 307 526 b 543 642 418 528 543 560 b 311 758 543 725 418 756 b 300 758 307 758 304 758 m 300 0 b 300 0 300 0 300 0 l 226 0 b 226 0 226 0 226 0 l 226 404 l 360 404 b 639 0 513 404 554 369 l 564 0 b 465 299 535 126 501 247 b 360 331 450 319 438 331 b 343 332 354 331 349 332 b 315 332 333 332 325 332 b 300 331 310 332 304 331 l 300 0 "},"s":{"ha":768,"x_min":0,"x_max":0,"o":"m 647 72 l 810 72 l 810 0 l 607 0 b 607 0 607 0 607 0 l 489 0 b 503 7 494 3 499 4 b 586 132 551 33 581 78 b 392 340 594 219 532 288 b 268 471 263 390 267 447 b 326 556 272 508 292 538 b 553 546 394 589 501 578 b 586 553 564 539 579 542 b 578 588 593 565 590 579 b 306 599 517 626 389 640 b 221 475 254 572 225 529 b 242 388 218 453 219 421 b 375 294 265 350 310 319 b 538 138 529 236 542 176 b 479 50 533 99 514 68 b 206 61 407 10 281 25 b 174 50 194 67 179 63 b 185 18 168 39 172 24 b 228 0 197 11 213 6 l 107 0 b 107 0 107 0 107 0 l -42 0 l -42 72 l 104 72 b 108 83 106 76 107 79 b 239 126 132 131 190 150 b 444 114 301 96 400 89 b 465 144 458 121 464 129 b 456 167 465 150 467 156 b 349 226 443 181 414 201 b 181 347 268 257 214 297 b 147 479 142 406 146 461 b 272 664 154 561 197 626 b 454 696 338 696 407 700 b 618 649 518 692 575 675 b 647 514 663 619 676 560 b 514 485 619 469 558 456 b 360 490 485 503 403 513 b 342 465 344 482 342 475 b 343 454 340 457 342 456 b 418 408 346 449 363 429 b 599 299 500 378 558 342 b 658 125 644 249 665 189 b 647 72 657 107 653 89 "},"S":{"ha":879,"x_min":0,"x_max":0,"o":"m 739 72 l 921 72 l 921 0 l 686 0 l 686 0 l 556 0 b 581 11 564 3 572 7 b 697 192 649 47 689 110 b 647 349 701 250 685 303 b 453 479 607 397 543 440 b 289 678 281 553 286 640 b 379 814 293 742 324 788 b 664 794 469 857 601 839 b 697 800 674 788 689 789 b 692 835 704 811 703 826 b 358 858 617 888 465 910 b 240 681 286 824 246 763 b 265 564 239 653 239 610 b 433 435 296 513 351 469 b 649 196 638 347 654 257 b 558 54 642 131 613 83 b 213 78 461 3 307 26 b 181 68 201 85 186 81 b 189 35 174 57 178 42 b 274 0 214 21 243 10 l 122 0 b 122 0 122 0 122 0 l -42 0 l -42 72 l 106 72 b 117 104 107 83 111 93 b 249 142 142 150 201 168 b 524 119 324 100 453 81 b 575 203 556 136 572 161 b 404 367 578 226 583 290 b 203 526 308 408 240 463 b 167 686 161 597 165 664 b 328 924 175 793 232 878 b 543 958 389 953 465 965 b 733 894 617 951 685 928 b 757 758 778 863 788 803 b 621 735 725 714 665 704 b 411 749 583 763 479 781 b 361 674 379 733 364 711 b 481 546 360 647 357 599 b 703 396 583 503 656 453 b 769 185 754 333 776 263 b 739 72 765 144 756 107 "},"t":{"ha":714,"x_min":0,"x_max":0,"o":"m 611 72 l 756 72 l 756 0 l 636 0 l 636 0 l 563 0 b 564 10 564 3 564 7 b 536 31 561 24 549 33 b 388 44 458 19 413 24 b 347 315 347 79 347 174 l 347 575 l 547 575 b 571 600 561 575 571 586 b 547 624 571 614 561 624 l 347 624 l 347 847 b 324 872 347 861 336 872 b 299 847 310 872 299 861 l 299 624 l 167 624 b 143 600 154 624 143 614 b 167 575 143 586 154 575 l 299 575 l 299 315 b 356 8 299 154 299 57 b 367 0 358 6 363 3 l 268 0 l 268 0 l -42 0 l -42 72 l 240 72 b 226 315 226 136 226 217 l 226 503 l 167 503 b 69 600 114 503 69 546 b 167 697 69 654 114 697 l 226 697 l 226 847 b 324 944 226 901 269 944 b 421 847 376 944 421 901 l 421 697 l 547 697 b 644 600 601 697 644 654 b 547 503 644 546 601 503 l 421 503 l 421 315 b 424 153 421 247 421 194 b 435 100 428 118 433 104 b 525 103 440 99 463 93 b 611 72 558 108 589 96 "},"T":{"ha":776,"x_min":0,"x_max":0,"o":"m 721 750 l 485 750 l 485 72 l 743 72 l 743 0 l 485 0 l 485 0 l 413 0 l 413 0 l 413 824 l 721 824 b 744 847 733 824 744 835 b 721 872 744 861 733 872 l 56 872 b 31 847 42 872 31 861 b 56 824 31 835 42 824 l 364 824 l 364 0 l 364 0 l 290 0 l 290 0 l 33 0 l 33 72 l 290 72 l 290 750 l 56 750 b -42 847 1 750 -42 794 b 56 944 -42 901 1 944 l 721 944 b 818 847 774 944 818 901 b 721 750 818 794 774 750 "},"u":{"ha":797,"x_min":0,"x_max":0,"o":"m 692 72 l 839 72 l 839 0 l 619 0 l 619 642 b 594 667 619 656 608 667 b 571 642 582 667 571 656 l 571 326 b 501 136 571 256 546 189 b 356 60 460 88 407 60 b 190 326 279 60 190 90 l 190 642 b 167 667 190 656 179 667 b 142 642 153 667 142 656 l 142 326 b 192 94 142 222 158 146 b 356 11 226 39 282 11 b 539 104 421 11 488 44 b 571 150 550 118 561 133 l 571 0 l 533 0 l 533 0 l 178 0 l 178 0 l -42 0 l -42 72 l 119 72 b 69 326 85 135 69 218 l 69 642 b 167 739 69 696 113 739 b 264 642 219 739 264 696 l 264 326 b 293 160 264 228 279 182 b 356 132 303 147 315 132 b 446 183 385 132 418 151 b 497 326 479 222 497 274 l 497 642 b 594 739 497 696 542 739 b 692 642 649 739 692 696 l 692 72 "},"U":{"ha":871,"x_min":0,"x_max":0,"o":"m 735 72 l 913 72 l 913 0 l 675 0 l 675 0 l 546 0 b 728 303 653 49 728 165 l 728 893 b 704 918 728 907 718 918 b 679 893 690 918 679 907 l 679 303 b 435 24 679 149 569 24 b 190 303 300 24 190 149 l 190 893 b 167 918 190 907 179 918 b 142 893 153 918 142 907 l 142 303 b 324 0 142 165 218 49 l 196 0 b 196 0 196 0 196 0 l -42 0 l -42 72 l 135 72 b 69 303 92 140 69 219 l 69 893 b 167 990 69 947 113 990 b 264 893 219 990 264 947 l 264 303 b 435 97 264 189 340 97 b 607 303 531 97 607 189 l 607 893 b 704 990 607 947 650 990 b 801 893 758 990 801 947 l 801 303 b 735 72 801 219 778 140 "},"v":{"ha":813,"x_min":0,"x_max":0,"o":"m 546 72 l 854 72 l 854 0 l 519 0 l 519 0 l 442 0 l 669 635 b 654 665 674 647 668 661 b 624 650 642 669 628 663 l 406 43 l 189 650 b 157 665 183 663 169 669 b 143 635 144 661 139 647 l 369 0 l 293 0 l 293 0 l -42 0 l -42 72 l 267 72 l 74 610 b 133 733 56 660 82 715 b 257 675 183 751 239 725 l 406 260 l 556 675 b 679 733 574 725 629 751 b 738 610 731 715 757 660 l 546 72 "},"V":{"ha":946,"x_min":0,"x_max":0,"o":"m 610 72 l 988 72 l 988 0 l 585 0 l 585 0 l 508 0 l 803 886 b 788 917 807 899 800 913 b 756 901 774 921 761 914 l 474 49 l 190 901 b 160 917 186 914 172 921 b 144 886 147 913 140 899 l 439 0 l 361 0 l 361 0 l -42 0 l -42 72 l 338 72 l 75 863 b 136 986 58 914 86 969 b 260 924 188 1003 243 975 l 474 281 l 688 924 b 810 986 704 975 758 1003 b 872 863 861 969 889 914 l 610 72 "},"w":{"ha":1161,"x_min":0,"x_max":0,"o":"m 399 0 l 581 564 l 764 0 l 688 0 l 581 328 l 475 0 l 399 0 m 929 72 l 1203 72 l 1203 0 l 908 0 l 908 0 l 832 0 l 1018 636 b 1001 667 1022 649 1015 663 b 972 650 989 669 975 663 l 797 54 l 604 650 b 581 667 601 660 592 667 b 558 650 571 667 561 660 l 364 54 l 190 650 b 160 667 186 663 172 669 b 143 636 147 663 140 649 l 329 0 l 254 0 l 254 0 l -42 0 l -42 72 l 232 72 l 74 615 b 139 736 58 667 88 721 b 260 669 192 751 244 722 l 368 301 l 489 672 b 581 740 501 713 539 740 b 674 672 624 740 660 713 l 794 301 l 901 669 b 1022 736 917 722 971 751 b 1089 615 1074 721 1104 667 l 929 72 "},"W":{"ha":1297,"x_min":0,"x_max":0,"o":"m 1028 72 l 1339 72 l 1339 0 l 1010 0 l 1010 0 l 935 0 l 1154 888 b 1138 917 1158 900 1150 914 b 1107 900 1124 921 1111 913 l 901 67 l 672 900 b 649 918 669 911 660 918 b 625 900 638 918 628 911 l 396 67 l 190 900 b 161 917 188 913 174 921 b 143 888 147 914 140 900 l 363 0 l 288 0 l 288 0 l -42 0 l -42 72 l 269 72 l 72 869 b 143 988 60 922 92 975 b 261 917 196 1001 249 969 l 400 356 l 556 919 b 649 992 567 963 606 992 b 743 919 693 992 731 963 l 897 356 l 1036 917 b 1154 988 1050 969 1103 1001 b 1225 869 1207 975 1239 922 l 1028 72 m 428 0 l 649 803 l 869 0 l 794 0 l 649 528 l 504 0 l 428 0 "},"X":{"ha":857,"x_min":0,"x_max":0,"o":"m 194 0 l 429 399 l 664 0 l 579 0 l 429 254 l 279 0 l 194 0 m 761 72 l 899 72 l 899 0 l 789 0 b 789 0 789 0 789 0 l 719 0 l 457 446 l 713 881 b 704 914 719 893 715 907 b 671 906 693 921 678 918 l 429 494 l 188 906 b 154 914 181 918 165 921 b 146 881 142 907 139 893 l 401 447 l 139 0 l 69 0 b 69 0 69 0 69 0 l -42 0 l -42 72 l 96 72 l 317 447 l 82 844 b 117 978 56 890 71 950 b 250 943 164 1004 222 989 l 429 639 l 608 943 b 742 978 635 989 694 1004 b 775 844 788 950 803 890 l 542 447 l 761 72 "},"y":{"ha":806,"x_min":0,"x_max":0,"o":"m 538 72 l 847 72 l 847 0 l 507 0 b 467 -83 493 -29 481 -57 b 174 -347 413 -186 329 -310 b 151 -350 167 -349 158 -350 b 57 -275 107 -350 67 -319 b 129 -158 44 -222 76 -171 b 290 0 192 -143 240 -94 l -42 0 l -42 72 l 286 72 l 76 606 b 132 732 57 656 82 713 b 257 676 182 751 238 726 l 411 286 b 499 535 438 358 467 440 b 547 674 514 579 531 625 b 671 733 565 724 621 751 b 731 610 722 715 749 660 b 682 471 714 561 697 515 b 538 72 626 311 582 181 m 403 -49 b 614 494 468 75 529 251 b 663 633 629 539 644 585 b 647 664 667 646 660 660 b 617 650 635 669 621 663 b 568 510 599 601 583 556 b 411 86 507 335 458 196 l 189 650 b 158 664 185 663 171 669 b 144 632 146 660 139 644 l 383 24 b 360 -26 375 6 368 -11 b 146 -229 294 -149 231 -208 b 128 -258 133 -232 125 -244 b 151 -276 131 -269 140 -276 b 157 -276 153 -276 156 -276 b 294 -200 208 -264 254 -239 b 403 -49 332 -164 368 -115 "},"Y":{"ha":668,"x_min":0,"x_max":0,"o":"m 431 72 l 708 72 l 708 0 l 431 0 b 431 0 431 0 431 0 l 358 0 b 358 0 358 0 358 0 l 358 356 l 633 882 b 622 915 639 894 635 908 b 590 904 611 921 596 917 l 333 414 l 78 904 b 44 915 71 917 57 921 b 35 882 33 908 28 894 l 310 356 l 310 0 b 310 0 310 0 310 0 l 236 0 b 236 0 236 0 236 0 l -42 0 l -42 72 l 236 72 l 236 338 l -31 849 b 11 979 -56 896 -36 956 b 142 939 58 1004 117 986 l 333 571 l 525 939 b 656 979 550 986 608 1004 b 697 849 704 956 722 896 l 431 338 l 431 72 "},"z":{"ha":824,"x_min":0,"x_max":0,"o":"m 756 72 l 865 72 l 865 0 l 722 0 b 722 0 722 0 722 0 l 101 0 b 101 0 101 0 101 0 l -42 0 l -42 72 l 68 72 b 85 126 68 92 74 110 l 85 126 b 93 139 88 131 90 135 l 399 503 l 169 503 b 72 600 117 503 72 547 b 169 697 72 654 117 697 l 607 697 b 696 642 646 697 679 676 b 682 538 711 607 707 567 l 374 171 l 658 171 b 756 74 713 171 756 126 b 756 72 756 74 756 74 m 658 49 b 683 74 672 49 683 60 b 658 97 683 86 672 97 l 218 97 l 626 585 b 629 611 632 592 633 603 b 607 625 625 619 617 625 l 169 625 b 146 600 157 625 146 614 b 169 576 146 588 157 576 l 556 576 l 149 90 b 146 86 147 89 146 88 l 144 86 b 150 53 138 75 140 61 b 165 49 156 50 160 49 b 169 49 167 49 168 49 l 658 49 "},"Z":{"ha":944,"x_min":0,"x_max":0,"o":"m 876 72 l 986 72 l 986 0 l 843 0 b 843 0 843 0 843 0 l 101 0 b 101 0 101 0 101 0 l -42 0 l -42 72 l 68 72 b 81 121 68 89 72 106 l 81 122 b 89 133 83 126 86 129 l 526 744 l 171 744 b 74 842 117 744 74 788 b 171 939 74 894 117 939 l 717 939 b 803 886 753 939 786 918 b 794 785 819 853 817 814 l 356 171 l 779 171 b 876 74 833 171 876 128 b 876 72 876 74 876 74 m 779 49 b 804 74 793 49 804 60 b 779 97 804 88 793 97 l 213 97 l 736 828 b 738 853 742 835 742 844 b 717 865 733 861 725 865 l 171 865 b 147 842 157 865 147 854 b 171 817 147 828 157 817 l 668 817 l 147 89 b 144 86 146 88 144 88 l 144 85 b 151 53 138 74 142 60 b 165 49 156 50 161 49 b 171 49 167 49 169 49 l 779 49 "},"˘":{"ha":567,"x_min":0,"x_max":0,"o":"m 414 1001 b 511 904 468 1001 511 957 b 283 675 511 778 408 675 b 56 904 158 675 56 778 b 153 1001 56 957 99 1001 b 250 904 207 1001 250 957 b 283 869 250 885 265 869 b 317 904 301 869 317 885 b 414 1001 317 957 360 1001 m 283 749 b 439 904 369 749 439 818 b 414 928 439 917 428 928 b 390 904 400 928 390 917 b 283 797 390 844 342 797 b 176 904 225 797 176 844 b 153 928 176 917 167 928 b 128 904 139 928 128 917 b 283 749 128 818 197 749 "},"˙":{"ha":374,"x_min":0,"x_max":0,"o":"m 186 954 b 318 824 258 954 318 896 b 186 692 318 751 258 692 b 56 824 114 692 56 751 b 186 954 56 896 114 954 m 186 765 b 244 824 218 765 244 792 b 186 882 244 856 218 882 b 128 824 154 882 128 856 b 186 765 128 792 154 765 "},"˚":{"ha":506,"x_min":0,"x_max":0,"o":"m 253 907 b 329 835 294 907 329 875 b 253 763 329 794 294 763 b 176 835 211 763 176 794 b 253 907 176 875 211 907 m 253 1028 b 450 835 361 1028 450 942 b 253 640 450 728 361 640 b 56 835 144 640 56 728 b 253 1028 56 942 144 1028 m 253 714 b 378 835 321 714 378 768 b 253 956 378 901 321 956 b 128 835 185 956 128 901 b 253 714 128 768 185 714 "},"˝":{"ha":633,"x_min":0,"x_max":0,"o":"m 535 1007 b 560 872 579 976 590 917 l 425 676 b 344 635 406 649 376 635 b 290 651 326 635 307 640 b 253 703 271 664 258 682 l 235 676 b 154 635 215 649 185 635 b 99 651 135 635 115 640 b 74 788 54 682 43 743 l 210 982 b 344 1007 240 1026 300 1038 b 382 957 363 994 376 976 l 400 982 b 535 1007 431 1026 492 1038 m 310 914 b 303 947 317 925 314 940 b 269 942 292 956 276 953 l 135 746 b 140 711 126 735 129 719 b 154 707 144 708 150 707 b 174 718 161 707 169 711 l 310 914 m 500 914 b 494 947 508 925 506 940 b 460 942 483 956 468 953 l 325 746 b 331 711 317 735 319 719 b 344 707 335 708 340 707 b 365 718 353 707 360 711 l 500 914 "},"˛":{"ha":489,"x_min":0,"x_max":0,"o":"m 419 -161 b 382 -293 446 -207 429 -267 b 243 -333 335 -319 288 -333 b 176 -322 221 -333 197 -329 b 61 -197 117 -303 75 -257 b 82 -46 51 -151 58 -99 b 169 79 101 -1 132 43 b 307 78 208 117 269 115 b 306 -60 344 39 344 -22 b 254 -137 275 -90 260 -119 b 288 -124 263 -135 274 -131 b 419 -161 333 -97 393 -114 m 347 -229 b 356 -197 358 -224 363 -208 b 322 -187 350 -185 335 -181 b 215 -207 294 -203 253 -219 b 181 -171 196 -201 185 -189 b 254 -8 171 -128 201 -58 b 256 26 264 1 264 17 b 221 28 246 36 231 36 b 133 -181 154 -37 119 -121 b 200 -253 140 -215 164 -242 b 243 -260 214 -258 229 -260 b 347 -229 282 -260 319 -244 "},"ˇ":{"ha":560,"x_min":0,"x_max":0,"o":"m 457 1008 b 489 875 503 981 517 921 l 363 669 b 281 622 346 640 314 622 b 197 669 246 622 215 640 l 71 875 b 103 1008 43 921 57 981 b 238 976 149 1036 208 1022 l 281 906 l 322 976 b 457 1008 351 1022 411 1036 m 426 913 b 418 946 433 924 431 939 b 385 938 407 953 392 950 l 281 767 l 175 938 b 142 946 168 950 153 953 b 133 913 131 939 126 924 l 260 707 b 281 696 264 700 271 696 b 300 707 289 696 296 700 l 426 913 "},"ı":{"ha":406,"x_min":0,"x_max":0,"o":"m 300 72 l 447 72 l 447 0 l 226 0 l 226 642 b 203 667 226 656 215 667 b 178 642 189 667 178 656 l 178 0 l -42 0 l -42 72 l 106 72 l 106 642 b 203 739 106 696 149 739 b 300 642 256 739 300 696 l 300 72 "},"ﬁ":{"ha":890,"x_min":0,"x_max":0,"o":"m 411 0 l 338 0 b 338 0 338 0 338 0 l 338 569 l 663 569 l 663 0 b 663 0 663 0 663 0 l 590 0 b 590 0 590 0 590 0 l 590 497 l 411 497 l 411 0 b 411 0 411 0 411 0 m 785 72 l 932 72 l 932 0 l 785 0 b 785 0 785 0 785 0 l 711 0 b 711 0 711 0 711 0 l 711 594 b 688 618 711 608 700 618 l 338 618 b 397 842 338 688 342 786 b 525 888 428 872 469 888 b 671 851 603 888 646 864 l 674 849 b 707 860 686 843 701 847 b 697 892 714 871 708 886 l 694 893 b 525 936 667 908 615 936 b 364 876 457 936 403 915 b 289 618 294 807 289 694 l 167 618 b 142 594 153 618 142 608 b 167 569 142 581 153 569 l 289 569 l 289 0 b 289 0 289 0 289 0 l 217 0 b 217 0 217 0 217 0 l -42 0 l -42 72 l 217 72 l 217 497 l 167 497 b 69 594 113 497 69 540 b 167 692 69 649 113 692 l 218 692 b 311 928 225 769 244 861 b 525 1008 365 982 436 1008 b 729 958 633 1008 697 975 l 732 957 b 771 825 779 932 797 872 b 640 785 746 778 688 760 l 638 786 b 525 814 617 797 585 814 b 450 790 472 814 456 797 b 414 692 428 769 418 731 l 688 692 b 785 594 740 692 785 649 l 785 72 "},"ﬂ":{"ha":890,"x_min":0,"x_max":0,"o":"m 399 842 b 525 888 428 872 469 888 b 664 856 596 888 638 869 l 664 0 b 664 0 664 0 664 0 l 590 0 b 590 0 590 0 590 0 l 590 521 b 526 497 574 506 551 497 l 411 497 l 411 0 b 411 0 411 0 411 0 l 338 0 b 338 0 338 0 338 0 l 338 569 l 526 569 b 551 594 540 569 551 581 b 526 618 551 608 540 618 l 338 618 b 399 842 338 688 342 786 m 590 668 l 590 806 b 525 814 574 811 553 814 b 450 790 474 814 456 797 b 414 692 428 769 418 731 l 526 692 b 590 668 551 692 574 683 m 785 72 l 932 72 l 932 0 l 785 0 b 785 0 785 0 785 0 l 713 0 b 713 0 713 0 713 0 l 713 871 b 693 894 713 882 704 892 b 525 936 665 910 615 936 b 364 876 457 936 403 915 b 289 618 294 807 289 694 l 167 618 b 142 594 153 618 142 608 b 167 569 142 581 153 569 l 289 569 l 289 0 b 289 0 289 0 289 0 l 217 0 b 217 0 217 0 217 0 l -42 0 l -42 72 l 217 72 l 217 497 l 167 497 b 69 594 113 497 69 540 b 167 692 69 649 113 692 l 219 692 b 313 928 225 769 246 861 b 525 1008 365 982 438 1008 b 722 961 626 1008 689 979 b 785 871 758 947 785 913 l 785 72 "},"Ł":{"ha":933,"x_min":0,"x_max":0,"o":"m 865 72 l 975 72 l 975 0 l 832 0 b 832 0 832 0 832 0 l 267 0 b 267 0 267 0 267 0 l -42 0 l -42 72 l 233 72 l 233 250 l 224 242 b 167 224 206 229 186 224 b 88 264 136 224 106 238 b 110 400 56 308 65 368 l 233 489 l 233 893 b 331 990 233 947 278 990 b 428 893 385 990 428 947 l 428 629 l 510 688 b 646 665 553 718 614 708 b 624 529 676 621 667 561 l 428 389 l 428 169 l 768 169 b 865 72 822 169 865 126 m 768 49 b 793 72 782 49 793 60 b 768 97 793 86 782 97 l 356 97 l 356 426 l 581 589 b 586 622 592 596 594 611 b 553 628 578 633 563 636 l 356 486 l 356 893 b 331 918 356 907 344 918 b 307 893 318 918 307 907 l 307 451 l 151 340 b 146 307 142 333 139 318 b 167 297 151 300 158 297 b 181 301 171 297 176 299 l 307 392 l 307 72 b 331 49 307 60 318 49 l 768 49 "},"ł":{"ha":633,"x_min":0,"x_max":0,"o":"m 675 72 l 675 0 l 339 0 l 339 461 l 482 576 b 485 611 492 585 494 601 b 451 614 476 621 461 624 l 339 524 l 339 931 b 315 956 339 944 328 956 b 290 931 301 956 290 944 l 290 483 l 150 369 b 147 335 140 361 139 346 b 165 326 151 329 158 326 b 182 332 171 326 176 328 l 290 421 l 290 0 l -42 0 l -42 72 l 218 72 l 218 268 b 167 253 201 258 183 253 b 90 289 138 253 110 265 b 104 425 57 331 63 392 l 218 518 l 218 931 b 315 1028 218 985 261 1028 b 413 931 368 1028 413 985 l 413 676 b 542 657 453 704 510 696 b 528 521 576 615 569 554 l 413 426 l 413 72 "},":":{"ha":394,"x_min":0,"x_max":0,"o":"m 197 681 b 339 539 275 681 339 617 b 197 396 339 460 275 396 b 56 539 119 396 56 460 b 197 681 56 617 119 681 m 197 469 b 267 539 236 469 267 500 b 197 607 267 576 236 607 b 128 539 160 607 128 576 b 197 469 128 500 160 469 m 197 210 b 339 68 275 210 339 146 b 197 -74 339 -10 275 -74 b 56 68 119 -74 56 -10 b 197 210 56 146 119 210 m 197 -1 b 267 68 236 -1 267 31 b 197 138 267 106 236 138 b 128 68 160 138 128 106 b 197 -1 128 31 160 -1 "},";":{"ha":442,"x_min":0,"x_max":0,"o":"m 244 681 b 386 539 322 681 386 617 b 244 396 386 460 322 396 b 103 539 165 396 103 460 b 244 681 103 617 165 681 m 244 469 b 313 539 282 469 313 500 b 244 607 313 576 282 607 b 175 539 206 607 175 576 b 244 469 175 500 206 469 m 276 256 b 351 140 329 244 363 193 b 242 -201 329 43 278 -128 b 154 -256 225 -235 190 -256 b 111 -246 140 -256 125 -253 b 67 -115 64 -222 43 -164 b 161 182 92 -64 142 92 b 276 256 172 235 225 268 m 281 156 b 261 185 283 169 275 182 b 232 167 249 188 235 179 b 132 -147 213 78 163 -85 b 143 -181 126 -160 132 -174 b 154 -182 147 -182 150 -182 b 176 -169 163 -182 172 -178 b 281 156 208 -103 260 65 "},"<":{"ha":922,"x_min":0,"x_max":0,"o":"m 811 136 b 856 6 860 113 879 54 b 768 -49 838 -28 804 -49 b 725 -37 753 -49 739 -44 l 110 268 b 56 354 76 283 56 318 b 110 442 56 392 76 425 l 725 747 b 856 703 772 771 831 751 b 811 574 879 656 860 597 l 371 354 l 811 136 m 790 39 b 779 71 796 50 790 65 l 207 354 l 779 639 b 790 671 790 644 796 658 b 757 682 783 683 769 688 l 142 376 b 128 354 133 372 128 364 b 142 333 128 346 133 338 l 757 28 b 768 25 761 25 764 25 b 790 39 776 25 786 29 "},"=":{"ha":989,"x_min":0,"x_max":0,"o":"m 836 586 b 933 489 889 586 933 543 b 836 392 933 436 889 392 l 153 392 b 56 489 99 392 56 436 b 153 586 56 543 99 586 l 836 586 m 836 465 b 860 489 849 465 860 476 b 836 514 860 503 849 514 l 153 514 b 128 489 139 514 128 503 b 153 465 128 476 139 465 l 836 465 m 836 322 b 933 225 889 322 933 278 b 836 128 933 171 889 128 l 153 128 b 56 225 99 128 56 171 b 153 322 56 278 99 322 l 836 322 m 836 200 b 860 225 849 200 860 211 b 836 249 860 238 849 249 l 153 249 b 128 225 139 249 128 238 b 153 200 128 211 139 200 l 836 200 "},">":{"ha":922,"x_min":0,"x_max":0,"o":"m 813 442 b 867 354 846 425 867 392 b 813 268 867 318 846 283 l 197 -37 b 154 -49 183 -44 168 -49 b 67 6 118 -49 83 -28 b 111 136 43 54 63 113 l 551 354 l 111 574 b 67 703 63 597 43 656 b 197 747 90 751 149 771 l 813 442 m 781 333 b 794 354 789 338 794 346 b 781 376 794 364 789 372 l 165 682 b 132 671 153 688 139 683 b 143 639 126 658 132 644 l 715 354 l 143 71 b 132 39 132 65 126 50 b 154 25 136 29 146 25 b 165 28 158 25 161 25 l 781 333 "},"?":{"ha":644,"x_min":0,"x_max":0,"o":"m 557 824 b 583 657 586 771 594 715 b 506 503 574 607 549 556 b 486 479 500 494 493 488 b 410 264 442 425 399 375 b 367 174 414 228 396 193 b 428 68 404 153 428 113 b 306 -54 428 1 374 -54 b 183 68 239 -54 183 1 b 253 178 183 117 213 158 b 217 244 233 193 219 217 b 338 604 196 436 285 542 b 354 624 343 611 349 618 b 386 732 407 692 393 718 b 344 761 381 743 371 756 b 217 724 306 768 251 753 b 79 736 175 689 114 696 b 92 874 44 778 51 839 b 382 951 172 940 286 971 b 557 824 458 936 521 890 m 306 19 b 356 68 333 19 356 40 b 306 117 356 96 333 117 b 257 68 279 117 257 96 b 306 19 257 40 279 19 m 449 549 b 493 789 518 636 533 714 b 368 879 467 838 424 869 b 139 817 292 894 203 869 b 135 783 128 808 126 793 b 169 781 144 772 160 771 b 358 832 222 824 297 844 b 450 767 388 826 426 810 b 411 579 481 710 468 650 b 393 557 406 572 400 565 b 289 251 342 497 272 414 b 313 231 290 239 300 231 b 315 231 314 231 314 231 b 338 257 329 232 339 243 b 431 526 322 397 382 469 b 449 549 438 533 443 542 "},"@":{"ha":1099,"x_min":0,"x_max":0,"o":"m 496 478 b 696 503 563 515 646 515 b 682 425 692 476 688 450 b 672 371 679 407 676 389 b 592 217 668 357 635 275 b 469 146 567 182 521 146 b 411 171 446 146 426 154 b 385 297 385 201 379 257 b 496 478 396 382 435 442 m 933 710 b 1036 313 1021 610 1057 468 b 899 71 1026 250 983 135 b 797 26 867 47 833 32 b 826 -6 808 18 819 7 b 790 -139 853 -53 836 -111 b 522 -203 715 -181 622 -203 b 190 -58 394 -203 278 -151 b 86 118 144 -8 108 51 b 58 333 63 186 53 258 b 224 700 68 471 126 601 b 582 856 322 800 450 856 b 933 710 729 856 850 804 m 964 322 b 878 661 982 457 951 578 b 582 782 810 740 707 782 b 275 649 469 782 361 735 b 131 328 190 563 139 449 b 244 -8 122 200 164 78 b 522 -131 317 -87 415 -131 b 754 -75 610 -131 690 -111 b 763 -42 765 -68 769 -53 b 729 -33 757 -31 742 -26 b 522 -82 674 -65 601 -82 b 279 24 429 -82 343 -44 b 179 325 208 101 172 210 b 582 733 196 550 376 733 b 842 629 693 733 782 697 b 915 329 906 557 932 450 b 825 168 911 297 882 210 b 744 146 800 149 774 142 b 704 226 718 150 701 181 b 731 417 706 276 718 344 b 747 515 736 449 742 482 b 747 515 747 515 747 515 b 747 517 747 515 747 517 b 747 518 747 517 747 518 b 747 519 747 518 747 518 b 747 521 747 519 747 519 b 747 521 747 521 747 521 b 747 522 747 522 747 522 b 747 524 747 524 747 524 b 747 525 747 524 747 525 b 746 526 747 525 746 526 b 746 528 746 526 746 526 b 746 528 746 528 746 528 b 744 529 746 529 746 529 b 744 531 744 529 744 531 b 744 532 744 531 744 531 b 743 532 743 532 743 532 b 743 533 743 533 743 533 b 742 535 742 533 742 533 b 742 535 742 535 742 535 b 740 536 740 535 740 536 b 739 536 740 536 740 536 b 739 538 739 538 739 538 b 738 539 738 538 738 538 b 736 539 738 539 738 539 b 735 540 736 539 736 539 b 735 540 735 540 735 540 b 733 540 735 540 733 540 b 732 542 733 540 733 540 b 732 542 732 542 732 542 b 732 542 732 542 732 542 b 472 519 679 563 568 575 b 336 304 397 478 350 403 b 375 139 329 257 335 185 b 469 97 399 113 432 97 b 631 188 557 97 615 167 b 654 224 639 199 647 211 b 738 97 654 140 699 104 b 854 129 779 92 818 103 b 964 322 921 179 957 275 "},"[":{"ha":501,"x_min":0,"x_max":0,"o":"m 349 -14 b 446 -111 403 -14 446 -57 b 349 -208 446 -165 403 -208 l 153 -208 b 56 -111 99 -208 56 -165 l 56 876 b 153 974 56 929 99 974 l 349 974 b 446 876 403 974 446 929 b 349 779 446 822 403 779 l 250 779 l 250 -14 l 349 -14 m 349 -135 b 374 -111 363 -135 374 -125 b 349 -86 374 -97 363 -86 l 176 -86 l 176 851 l 349 851 b 374 876 363 851 374 863 b 349 900 374 889 363 900 l 153 900 b 128 876 139 900 128 889 l 128 -111 b 153 -135 128 -125 139 -135 l 349 -135 "},"\\":{"ha":665,"x_min":0,"x_max":0,"o":"m 603 -17 b 546 -142 621 -67 596 -122 b 511 -147 535 -146 522 -147 b 421 -85 472 -147 435 -124 l 63 878 b 121 1003 44 928 69 985 b 246 946 171 1022 226 996 l 603 -17 m 519 -74 b 535 -42 533 -68 539 -54 l 176 921 b 146 935 172 933 158 939 b 132 904 133 931 126 917 l 489 -58 b 511 -75 493 -68 501 -75 b 519 -74 514 -75 517 -74 "},"]":{"ha":501,"x_min":0,"x_max":0,"o":"m 349 974 b 446 876 403 974 446 929 l 446 -111 b 349 -208 446 -165 403 -208 l 153 -208 b 56 -111 99 -208 56 -165 b 153 -14 56 -57 99 -14 l 251 -14 l 251 779 l 153 779 b 56 876 99 779 56 822 b 153 974 56 929 99 974 l 349 974 m 374 -111 l 374 876 b 349 900 374 889 363 900 l 153 900 b 128 876 139 900 128 889 b 153 851 128 863 139 851 l 325 851 l 325 -86 l 153 -86 b 128 -111 139 -86 128 -97 b 153 -135 128 -125 139 -135 l 349 -135 b 374 -111 363 -135 374 -125 "},"^":{"ha":844,"x_min":0,"x_max":0,"o":"m 781 290 b 729 163 801 242 779 185 b 601 213 681 142 624 164 l 422 622 l 243 213 b 154 154 228 176 192 154 b 115 163 142 154 128 157 b 65 290 65 185 43 242 l 333 904 b 422 961 349 939 383 961 b 511 904 461 961 496 939 l 781 290 m 700 229 b 713 261 713 235 718 249 l 444 874 b 422 889 440 883 432 889 b 400 874 413 889 404 883 l 132 261 b 144 229 126 249 132 235 b 176 242 157 224 171 229 l 422 804 l 668 242 b 690 228 672 233 682 228 b 700 229 694 228 697 228 "},"_":{"ha":969,"x_min":0,"x_max":0,"o":"m 817 -35 b 914 -132 869 -35 914 -78 b 817 -229 914 -186 869 -229 l 153 -229 b 56 -132 99 -229 56 -186 b 153 -35 56 -78 99 -35 l 817 -35 m 817 -157 b 840 -132 829 -157 840 -146 b 817 -108 840 -118 829 -108 l 153 -108 b 128 -132 139 -108 128 -118 b 153 -157 128 -146 139 -157 l 817 -157 "},"`":{"ha":443,"x_min":0,"x_max":0,"o":"m 369 782 b 344 647 400 738 389 678 b 289 629 328 635 308 629 b 210 671 258 629 228 644 l 74 867 b 99 1003 43 911 54 972 b 235 978 143 1033 204 1022 l 369 782 m 303 707 b 310 740 314 714 317 729 l 174 936 b 140 942 167 947 151 950 b 135 908 129 935 126 919 l 269 713 b 289 703 274 706 282 703 b 303 707 294 703 299 704 "},"{":{"ha":611,"x_min":0,"x_max":0,"o":"m 458 -8 b 556 -106 513 -8 556 -53 b 458 -203 556 -160 513 -203 b 238 -122 356 -203 283 -176 b 201 144 169 -44 188 60 b 206 268 208 186 218 250 b 142 288 200 275 181 283 b 56 385 93 293 56 335 b 142 481 56 435 93 476 b 206 501 181 485 200 494 b 201 625 218 518 208 582 b 238 892 188 708 169 813 b 458 972 283 946 356 972 b 556 875 513 972 556 929 b 458 778 556 822 513 778 b 385 767 404 778 388 768 b 382 738 385 764 382 757 b 393 657 383 715 388 686 b 361 385 407 572 424 468 b 393 113 424 301 407 197 b 382 32 388 83 383 54 b 385 3 382 13 385 4 b 458 -8 388 1 404 -8 m 458 -131 b 483 -106 472 -131 483 -119 b 458 -82 483 -93 472 -82 b 329 -44 394 -82 351 -69 b 321 125 299 -8 310 57 b 303 342 333 203 347 282 b 247 385 289 360 271 374 b 303 428 271 396 289 410 b 321 644 347 486 333 567 b 329 814 310 713 299 778 b 458 851 351 839 394 851 b 483 875 472 851 483 863 b 458 900 483 889 472 900 b 293 844 378 900 324 882 b 272 636 247 792 260 713 b 264 457 283 569 296 499 b 150 408 243 431 206 415 b 128 385 138 407 128 397 b 150 360 128 372 138 361 b 264 311 206 354 243 339 b 272 132 296 269 283 200 b 293 -75 260 56 247 -22 b 458 -131 324 -112 378 -131 "},"|":{"ha":306,"x_min":0,"x_max":0,"o":"m 153 1094 b 250 997 207 1094 250 1050 l 250 -253 b 153 -350 250 -307 207 -350 b 56 -253 99 -350 56 -307 l 56 997 b 153 1094 56 1050 99 1094 m 176 997 b 153 1021 176 1010 167 1021 b 128 997 139 1021 128 1010 l 128 -253 b 153 -278 128 -267 139 -278 b 176 -253 167 -278 176 -267 "},"}":{"ha":611,"x_min":0,"x_max":0,"o":"m 469 481 b 556 385 518 476 556 435 b 469 288 556 335 518 293 b 406 268 431 283 411 275 b 411 144 393 250 404 186 b 374 -122 424 60 442 -44 b 153 -203 328 -176 256 -203 b 56 -106 99 -203 56 -160 b 153 -8 56 -53 99 -8 b 226 3 207 -8 224 1 b 229 32 226 4 229 13 b 218 113 228 54 224 83 b 250 385 206 197 188 301 b 218 657 188 468 206 572 b 229 738 224 686 228 715 b 226 767 229 757 226 764 b 153 778 224 768 207 778 b 56 875 99 778 56 822 b 153 972 56 929 99 972 b 374 892 256 972 328 946 b 411 625 442 813 424 708 b 406 501 404 582 393 518 b 469 481 411 494 431 485 m 461 360 b 483 385 474 361 483 372 b 461 408 483 397 474 407 b 349 457 406 415 368 431 b 339 636 317 499 328 569 b 318 844 351 713 364 792 b 153 900 288 882 233 900 b 128 875 139 900 128 889 b 153 851 128 863 139 851 b 282 814 217 851 260 839 b 290 644 313 778 301 713 b 310 428 278 567 265 486 b 364 385 322 410 340 396 b 310 342 340 374 322 360 b 290 125 265 282 278 203 b 282 -44 301 57 313 -8 b 153 -82 260 -69 217 -82 b 128 -106 139 -82 128 -93 b 153 -131 128 -119 139 -131 b 318 -75 233 -131 288 -112 b 339 132 364 -22 351 56 b 349 311 328 200 317 269 b 461 360 368 339 406 354 "},"~":{"ha":890,"x_min":0,"x_max":0,"o":"m 738 574 b 835 478 792 574 835 531 b 799 325 835 418 824 367 b 650 224 767 268 714 232 b 408 289 546 207 456 260 b 397 294 404 290 400 293 b 385 301 393 297 389 299 b 268 343 357 318 306 349 b 260 338 264 342 263 342 b 250 282 254 326 250 306 b 153 183 250 228 207 183 b 153 183 153 183 153 183 b 56 281 99 183 56 228 b 92 433 56 340 68 392 b 240 535 124 489 176 525 b 483 469 344 550 435 499 b 493 464 486 468 490 465 b 506 457 497 461 501 458 b 622 415 533 440 585 410 b 631 421 628 417 628 417 b 640 476 636 432 640 453 b 738 574 640 531 683 574 b 738 574 738 574 738 574 m 640 294 b 763 476 718 307 763 374 b 738 501 763 490 751 501 b 738 501 738 501 738 501 b 714 476 724 501 714 490 b 632 343 714 421 700 353 b 613 342 626 342 619 342 b 469 393 557 342 503 374 b 457 400 465 396 461 399 b 446 407 454 403 450 404 b 251 463 406 431 329 475 b 128 281 172 451 128 385 b 153 257 128 268 139 257 b 153 257 153 257 153 257 b 176 281 167 257 176 268 b 258 415 176 336 190 406 b 421 365 319 424 383 388 b 433 358 426 363 429 360 b 444 351 436 356 440 354 b 613 293 481 331 544 293 b 640 294 622 293 631 294 "},"€":{"ha":939,"x_min":0,"x_max":0,"o":"m 729 169 b 865 146 774 200 833 190 b 842 10 896 101 885 42 b 619 -61 775 -36 697 -61 b 311 83 500 -61 390 -10 b 215 264 268 133 235 196 l 153 264 b 56 361 99 264 56 308 b 90 436 56 392 69 419 b 56 511 69 454 56 482 b 153 608 56 565 99 608 l 215 608 b 311 790 235 678 268 740 b 619 935 390 883 500 935 b 842 864 697 935 775 910 b 865 728 885 832 896 772 b 729 704 833 683 774 674 b 619 740 694 728 658 740 b 422 608 533 740 464 690 l 729 608 b 826 511 782 608 826 565 b 790 436 826 482 813 454 b 826 361 813 419 826 392 b 729 264 826 308 782 264 l 422 264 b 619 133 464 183 533 133 b 729 169 658 133 694 146 m 799 69 b 806 104 810 78 813 93 b 771 110 797 115 782 118 b 619 60 725 78 672 60 b 322 338 469 60 354 172 l 729 338 b 753 361 742 338 753 349 b 729 386 753 375 742 386 l 314 386 b 313 436 313 403 313 419 b 314 488 313 454 313 471 l 729 488 b 753 511 742 488 753 499 b 729 536 753 525 742 536 l 322 536 b 619 814 354 701 469 814 b 771 764 672 814 725 796 b 806 769 782 756 797 758 b 799 804 813 781 810 796 b 619 863 744 842 682 863 b 367 743 522 863 432 819 b 272 536 319 688 286 617 l 153 536 b 128 511 139 536 128 525 b 153 488 128 499 139 488 l 265 488 b 264 436 264 471 264 454 b 265 386 264 419 264 403 l 153 386 b 128 361 139 386 128 375 b 153 338 128 349 139 338 l 272 338 b 367 131 286 257 319 186 b 619 11 432 54 522 11 b 799 69 682 11 744 32 "},"‚":{"ha":410,"x_min":0,"x_max":0,"o":"m 276 263 b 351 146 329 251 363 199 b 242 -194 329 49 278 -121 b 154 -249 225 -229 190 -249 b 111 -239 140 -249 125 -246 b 67 -110 64 -215 43 -158 b 161 188 92 -57 142 99 b 276 263 172 240 225 274 m 281 163 b 261 192 283 175 275 188 b 232 172 249 194 235 186 b 132 -142 213 83 163 -78 b 143 -174 126 -153 132 -168 b 154 -176 147 -175 150 -176 b 176 -162 163 -176 172 -171 b 281 163 208 -97 260 71 "},"ƒ":{"ha":899,"x_min":0,"x_max":0,"o":"m 790 900 b 831 768 838 874 856 815 b 699 728 804 721 746 703 b 660 738 686 735 674 738 b 567 590 607 738 583 707 l 676 590 b 774 493 731 590 774 547 b 676 396 774 439 731 396 l 546 396 b 429 -86 514 82 497 -4 b 250 -165 386 -137 324 -165 b 242 -164 247 -165 244 -165 b 118 -139 188 -162 140 -147 b 63 -12 68 -119 43 -62 b 188 43 82 38 138 63 b 281 39 224 29 267 24 b 350 396 311 75 324 139 l 275 396 b 178 493 222 396 178 439 b 275 590 178 547 222 590 l 369 590 b 411 764 378 653 389 713 b 660 932 469 903 579 932 b 790 900 706 932 750 921 m 765 803 b 756 835 772 814 768 829 b 660 858 726 850 693 858 b 478 736 572 858 513 818 b 435 518 453 675 443 599 l 275 518 b 251 493 263 518 251 507 b 275 469 251 479 263 469 l 431 469 b 429 449 431 463 429 456 b 336 -8 396 111 382 47 b 161 -25 286 -68 190 -36 b 131 -39 149 -21 135 -26 b 144 -71 125 -51 132 -65 b 251 -92 163 -78 204 -92 b 374 -39 293 -92 339 -79 b 478 444 431 31 444 114 b 479 469 478 453 479 461 l 676 469 b 701 493 690 469 701 479 b 676 518 701 507 690 518 l 485 518 b 660 810 503 700 529 810 b 733 792 686 810 711 804 b 765 803 744 786 760 790 "},"„":{"ha":606,"x_min":0,"x_max":0,"o":"m 474 263 b 547 146 526 251 560 199 b 439 -194 526 49 474 -121 b 351 -249 421 -229 388 -249 b 308 -239 336 -249 322 -246 b 254 -165 278 -225 258 -196 b 242 -194 250 -176 246 -186 b 154 -249 225 -229 190 -249 b 111 -239 140 -249 125 -246 b 67 -110 64 -215 43 -158 b 161 188 92 -57 142 99 b 276 263 172 240 225 274 b 353 168 322 253 353 213 b 358 188 356 175 357 182 b 474 263 369 240 421 274 m 281 163 b 261 192 283 175 275 188 b 232 172 249 194 235 186 b 132 -142 213 83 163 -78 b 143 -174 126 -153 132 -168 b 154 -176 147 -175 150 -176 b 176 -162 163 -176 172 -171 b 281 163 208 -97 260 71 m 476 163 b 458 192 479 175 471 188 b 429 172 444 194 432 186 b 329 -142 410 83 360 -78 b 340 -174 324 -153 328 -168 b 351 -176 343 -175 347 -176 b 372 -162 360 -176 368 -171 b 476 163 404 -97 457 71 "},"…":{"ha":1149,"x_min":0,"x_max":0,"o":"m 199 215 b 343 71 278 215 343 150 b 199 -72 343 -8 278 -72 b 56 71 119 -72 56 -8 b 199 215 56 150 119 215 m 199 0 b 269 71 238 0 269 32 b 199 142 269 110 238 142 b 128 71 160 142 128 110 b 199 0 128 32 160 0 m 575 215 b 718 71 654 215 718 150 b 575 -72 718 -8 654 -72 b 431 71 496 -72 431 -8 b 575 215 431 150 496 215 m 575 0 b 644 71 614 0 644 32 b 575 142 644 110 614 142 b 504 71 536 142 504 110 b 575 0 504 32 536 0 m 950 215 b 1093 71 1029 215 1093 150 b 950 -72 1093 -8 1029 -72 b 807 71 871 -72 807 -8 b 950 215 807 150 871 215 m 950 0 b 1021 71 989 0 1021 32 b 950 142 1021 110 989 142 b 879 71 911 142 879 110 b 950 0 879 32 911 0 "},"†":{"ha":854,"x_min":0,"x_max":0,"o":"m 701 678 b 799 581 756 678 799 633 b 701 483 799 526 756 483 l 524 483 l 524 -62 b 426 -160 524 -117 481 -160 b 329 -62 374 -160 329 -117 l 329 483 l 153 483 b 56 581 99 483 56 526 b 153 678 56 633 99 678 l 329 678 l 329 896 b 426 993 329 950 374 993 b 524 896 481 993 524 950 l 524 678 l 701 678 m 701 556 b 726 581 715 556 726 567 b 701 604 726 593 715 604 l 451 604 l 451 896 b 426 921 451 910 440 921 b 403 896 414 921 403 910 l 403 604 l 153 604 b 128 581 139 604 128 593 b 153 556 128 567 139 556 l 403 556 l 403 -62 b 426 -87 403 -76 414 -87 b 451 -62 440 -87 451 -76 l 451 556 l 701 556 "},"‡":{"ha":854,"x_min":0,"x_max":0,"o":"m 701 339 b 799 242 756 339 799 296 b 701 144 799 188 756 144 l 524 144 l 524 -62 b 426 -160 524 -117 481 -160 b 329 -62 374 -160 329 -117 l 329 144 l 153 144 b 56 242 99 144 56 188 b 153 339 56 296 99 339 l 329 339 l 329 494 l 153 494 b 56 592 99 494 56 538 b 153 689 56 644 99 689 l 329 689 l 329 896 b 426 993 329 950 374 993 b 524 896 481 993 524 950 l 524 689 l 701 689 b 799 592 756 689 799 644 b 701 494 799 538 756 494 l 524 494 l 524 339 l 701 339 m 701 218 b 726 242 715 218 726 228 b 701 267 726 256 715 267 l 451 267 l 451 567 l 701 567 b 726 592 715 567 726 578 b 701 615 726 604 715 615 l 451 615 l 451 896 b 426 921 451 910 440 921 b 403 896 414 921 403 910 l 403 615 l 153 615 b 128 592 139 615 128 604 b 153 567 128 578 139 567 l 403 567 l 403 267 l 153 267 b 128 242 139 267 128 256 b 153 218 128 228 139 218 l 403 218 l 403 -62 b 426 -87 403 -76 414 -87 b 451 -62 440 -87 451 -76 l 451 218 l 701 218 "},"ˆ":{"ha":551,"x_min":0,"x_max":0,"o":"m 479 785 b 450 650 508 739 494 679 b 397 635 433 640 415 635 b 315 681 365 635 333 651 l 275 742 l 236 681 b 101 650 207 635 147 622 b 72 785 57 679 43 739 l 193 975 b 275 1019 211 1003 243 1019 b 357 975 308 1019 340 1003 l 479 785 m 410 713 b 418 746 422 719 425 735 l 296 936 b 275 947 292 943 283 947 b 256 936 267 947 260 943 l 133 746 b 142 713 126 735 129 719 b 175 719 153 704 167 708 l 275 878 l 376 719 b 397 708 382 713 389 708 b 410 713 401 708 406 710 "},"‰":{"ha":1664,"x_min":0,"x_max":0,"o":"m 1446 406 b 1488 258 1472 367 1488 315 b 1446 111 1488 203 1472 150 b 1354 56 1421 75 1389 56 b 1264 111 1321 56 1289 75 b 1222 258 1236 150 1222 203 b 1264 406 1222 315 1236 367 b 1354 463 1289 442 1321 463 b 1446 406 1389 463 1421 442 m 1354 128 b 1414 258 1375 128 1414 179 b 1354 389 1414 339 1375 389 b 1294 258 1333 389 1294 339 b 1354 128 1294 179 1333 128 m 1354 583 b 1608 258 1497 583 1608 440 b 1354 -67 1608 76 1497 -67 b 1113 156 1240 -67 1146 26 b 871 -67 1079 26 985 -67 b 617 258 728 -67 617 76 b 617 286 617 268 617 278 l 422 -60 b 338 -110 404 -92 372 -110 b 290 -97 322 -110 306 -106 b 253 35 243 -71 226 -12 l 410 315 b 310 290 379 299 346 290 b 56 614 167 290 56 432 b 310 939 56 797 167 939 b 564 614 453 939 564 797 b 564 589 564 606 564 597 l 754 926 b 886 964 781 974 839 990 b 924 832 933 938 950 879 l 769 558 b 871 583 800 575 835 583 b 1113 361 985 583 1079 492 b 1354 583 1146 492 1240 583 m 310 363 b 442 440 360 363 407 390 b 492 614 474 486 492 549 b 442 789 492 681 474 742 b 310 867 407 839 360 867 b 179 789 260 867 213 839 b 128 614 146 742 128 681 b 179 440 128 549 146 486 b 310 363 213 390 260 363 m 358 -25 l 860 868 b 850 900 867 879 863 894 b 817 892 839 907 824 903 l 317 0 b 326 -33 310 -12 314 -28 b 338 -37 329 -36 333 -37 b 358 -25 346 -37 354 -32 m 1001 83 b 1053 258 1035 131 1053 193 b 1001 433 1053 325 1035 386 b 871 511 968 483 921 511 b 739 433 821 511 774 483 b 689 258 707 386 689 325 b 739 83 689 193 707 131 b 871 7 774 35 821 7 b 1001 83 921 7 968 35 m 1486 83 b 1536 258 1518 131 1536 193 b 1486 433 1536 325 1518 386 b 1354 511 1451 483 1404 511 b 1224 433 1304 511 1258 483 b 1174 258 1190 386 1174 325 b 1224 83 1174 193 1190 131 b 1354 7 1258 35 1304 7 b 1486 83 1404 7 1451 35 m 871 463 b 961 406 904 463 936 442 b 1004 258 989 367 1004 315 b 961 111 1004 203 989 150 b 871 56 936 75 904 56 b 779 111 838 56 804 75 b 738 258 753 150 738 203 b 779 406 738 315 753 367 b 871 463 804 442 838 463 m 871 128 b 931 258 892 128 931 179 b 871 389 931 339 892 389 b 811 258 850 389 811 339 b 871 128 811 179 850 128 m 401 761 b 443 614 428 722 443 671 b 401 467 443 558 428 507 b 310 411 376 431 343 411 b 219 467 276 411 244 431 b 176 614 192 507 176 558 b 219 761 176 671 192 722 b 310 818 244 797 276 818 b 401 761 343 818 376 797 m 310 485 b 369 614 331 485 369 535 b 310 744 369 694 331 744 b 250 614 289 744 250 694 b 310 485 250 535 289 485 "},"Š":{"ha":808,"x_min":0,"x_max":0,"o":"m 850 72 l 850 0 l 653 0 b 653 0 653 0 653 0 l 521 0 b 547 11 531 3 539 7 b 663 192 615 47 656 110 b 613 349 668 250 651 303 b 418 479 572 397 508 440 b 254 678 246 553 251 640 b 346 814 258 742 289 788 b 629 794 436 857 567 839 b 663 800 640 788 656 789 b 657 835 671 811 668 826 b 503 885 619 861 563 879 b 325 858 438 892 374 882 b 206 681 253 824 211 763 b 232 564 204 653 204 610 b 399 435 261 513 318 469 b 614 196 604 347 619 257 b 524 54 608 131 578 83 b 179 78 426 3 272 26 b 146 68 167 85 153 81 b 156 35 139 57 143 42 b 240 0 181 21 208 10 l 88 0 b 88 0 88 0 88 0 l -42 0 l -42 72 l 71 72 b 82 103 74 83 76 93 b 214 142 108 150 167 168 b 490 119 289 100 418 81 b 542 203 522 136 538 161 b 371 367 544 226 550 290 b 246 439 321 388 279 413 b 168 526 213 465 188 494 b 133 686 128 597 132 664 b 293 924 140 793 197 878 b 314 933 300 928 307 931 l 231 1026 b 238 1164 194 1067 197 1128 b 374 1157 276 1200 338 1197 l 440 1085 l 507 1157 b 643 1164 542 1197 604 1200 b 650 1026 683 1128 686 1067 l 578 947 b 699 894 625 935 667 917 b 722 758 743 863 754 803 b 643 717 704 732 674 717 b 588 735 624 717 604 724 b 376 749 549 763 446 781 b 328 674 344 733 329 711 b 336 625 326 656 328 640 b 447 546 347 606 376 576 b 669 396 549 503 621 453 b 735 185 719 333 743 263 b 704 72 732 144 721 107 m 596 1075 b 594 1110 606 1085 604 1100 b 560 1108 585 1118 569 1118 l 440 975 l 319 1108 b 286 1110 311 1118 296 1118 b 285 1075 276 1100 275 1085 l 422 924 b 440 915 426 918 433 915 b 458 924 447 915 454 918 "},"‹":{"ha":485,"x_min":0,"x_max":0,"o":"m 272 331 l 410 139 b 388 3 442 94 432 35 b 332 -15 371 -10 351 -15 b 253 25 301 -15 271 -1 l 74 274 b 74 388 50 308 50 354 l 253 636 b 388 660 283 681 344 690 b 410 524 432 628 442 567 l 272 331 m 346 63 b 351 96 357 69 358 85 l 182 331 l 351 565 b 346 600 358 576 357 592 b 311 594 335 608 319 606 l 133 344 b 133 317 126 336 126 325 l 311 68 b 332 57 317 61 324 57 b 346 63 336 57 342 58 "},"Œ":{"ha":1364,"x_min":0,"x_max":0,"o":"m 579 835 b 729 804 632 835 682 825 b 738 803 732 803 735 803 l 738 58 b 729 56 735 57 732 57 b 579 25 682 35 632 25 b 192 431 354 25 192 194 b 579 835 192 665 354 835 m 664 110 l 664 750 b 579 763 636 758 608 763 b 264 431 394 763 264 626 b 579 97 264 235 394 97 b 664 110 608 97 636 101 m 1303 72 l 1406 72 l 1406 0 l 1296 0 l 1296 0 l 721 0 b 749 11 731 3 740 7 b 760 19 754 13 757 17 b 761 19 760 19 761 19 l 1210 19 b 1233 44 1224 19 1233 31 b 1210 68 1233 57 1224 68 l 786 68 l 786 424 l 1165 424 b 1190 447 1179 424 1190 435 b 1165 472 1190 461 1179 472 l 786 472 l 786 792 l 1197 792 b 1221 815 1210 792 1221 803 b 1197 840 1221 829 1210 840 l 761 840 b 760 840 761 840 760 840 b 749 849 757 843 754 847 b 579 883 696 872 639 883 b 271 758 461 883 351 839 b 143 431 188 676 143 558 b 271 101 143 301 188 185 b 433 0 317 56 371 21 l 276 0 b 276 0 276 0 276 0 l -42 0 l -42 72 l 197 72 b 69 431 115 168 69 293 b 219 810 69 578 122 714 b 579 957 313 904 442 957 b 783 913 650 957 719 942 l 1197 913 b 1294 815 1250 913 1294 869 b 1197 718 1294 763 1250 718 l 858 718 l 858 544 l 1165 544 b 1263 447 1219 544 1263 501 b 1165 350 1263 394 1219 350 l 858 350 l 858 142 l 1210 142 b 1303 72 1253 142 1290 113 "},"‘":{"ha":408,"x_min":0,"x_max":0,"o":"m 297 992 b 342 863 346 969 365 911 b 247 565 317 810 267 654 b 153 489 238 519 197 489 b 132 490 146 489 139 489 b 58 607 79 503 46 554 b 168 947 79 704 132 874 b 297 992 190 996 249 1015 m 276 894 b 265 926 282 907 278 921 b 233 915 253 932 239 928 b 129 590 201 850 149 682 b 147 563 126 578 135 565 b 153 561 149 561 151 561 b 176 581 164 561 174 569 b 276 894 196 669 246 831 "},"’":{"ha":410,"x_min":0,"x_max":0,"o":"m 276 1000 b 351 885 329 989 363 936 b 242 543 331 789 276 615 b 154 489 225 508 190 489 b 111 499 140 489 125 492 b 67 628 64 522 43 581 b 161 926 92 681 142 836 b 276 1000 172 978 225 1011 m 281 900 b 261 929 283 913 275 926 b 232 910 249 932 235 924 b 132 596 213 822 163 660 b 143 564 126 585 132 569 b 154 561 147 563 150 561 b 176 575 163 561 172 567 b 281 900 208 640 260 808 "},"“":{"ha":606,"x_min":0,"x_max":0,"o":"m 494 992 b 539 863 543 969 563 911 b 444 565 514 810 464 654 b 350 489 435 519 394 489 b 329 490 343 489 336 489 b 253 585 283 500 253 540 b 247 565 250 578 249 571 b 153 489 238 519 197 489 b 132 490 146 489 139 489 b 58 607 79 503 46 554 b 168 947 79 701 132 875 b 297 992 190 996 249 1015 b 351 918 328 978 347 949 b 364 947 356 929 360 939 b 494 992 388 996 446 1015 m 176 581 b 276 894 196 669 246 831 b 265 926 282 907 278 921 b 233 915 253 932 239 928 b 129 590 201 850 149 682 b 147 563 126 578 135 565 b 153 561 149 561 151 561 b 176 581 164 561 174 569 m 474 894 b 463 926 479 907 474 921 b 429 915 450 932 436 928 b 326 590 397 850 346 682 b 344 563 322 578 331 565 b 350 561 346 561 347 561 b 374 581 361 561 371 569 b 474 894 393 669 443 831 "},"”":{"ha":606,"x_min":0,"x_max":0,"o":"m 474 1000 b 547 885 526 989 560 936 b 439 543 526 789 474 615 b 351 489 421 508 388 489 b 308 499 336 489 322 492 b 254 572 278 513 258 542 b 242 543 250 561 246 551 b 154 489 225 508 190 489 b 111 499 140 489 125 492 b 67 628 64 522 43 581 b 161 926 92 681 142 836 b 276 1000 172 978 225 1011 b 353 906 322 990 353 950 b 358 926 356 913 357 919 b 474 1000 369 978 421 1011 m 281 900 b 261 929 283 913 275 926 b 232 910 249 932 235 924 b 132 596 213 822 163 660 b 143 564 126 585 132 569 b 154 561 147 563 150 561 b 176 575 163 561 172 567 b 281 900 208 640 260 808 m 476 900 b 458 929 479 913 471 926 b 429 910 444 932 432 924 b 329 596 410 822 360 660 b 340 564 324 585 328 569 b 351 561 343 563 347 561 b 372 575 360 561 368 567 b 476 900 404 640 457 808 "},"•":{"ha":493,"x_min":0,"x_max":0,"o":"m 246 535 b 438 343 351 535 438 449 b 246 153 438 238 351 153 b 56 343 142 153 56 238 b 246 535 56 449 142 535 m 246 225 b 364 343 311 225 364 278 b 246 461 364 408 311 461 b 128 343 181 461 128 408 b 246 225 128 278 181 225 "},"–":{"ha":888,"x_min":0,"x_max":0,"o":"m 735 529 b 832 432 789 529 832 486 b 735 335 832 378 789 335 l 153 335 b 56 432 99 335 56 378 b 153 529 56 486 99 529 l 735 529 m 735 407 b 760 432 749 407 760 418 b 735 456 760 446 749 456 l 153 456 b 128 432 139 456 128 446 b 153 407 128 418 139 407 l 735 407 "},"—":{"ha":1551,"x_min":0,"x_max":0,"o":"m 1399 529 b 1496 432 1453 529 1496 486 b 1399 335 1496 378 1453 335 l 153 335 b 56 432 99 335 56 378 b 153 529 56 486 99 529 l 1399 529 m 1399 407 b 1424 432 1413 407 1424 418 b 1399 456 1424 446 1413 456 l 153 456 b 128 432 139 456 128 446 b 153 407 128 418 139 407 l 1399 407 "},"˜":{"ha":568,"x_min":0,"x_max":0,"o":"m 415 989 b 513 892 469 989 513 946 b 490 779 513 847 506 810 b 379 697 467 733 428 704 b 247 729 325 689 278 711 b 153 651 239 685 200 651 b 153 651 153 651 153 651 b 56 749 99 651 56 694 b 79 861 56 793 63 831 b 189 943 101 907 142 936 b 321 913 244 951 290 929 b 415 989 329 956 369 989 b 415 989 415 989 415 989 m 369 769 b 440 892 390 772 440 790 b 415 917 440 906 429 917 b 415 917 415 917 415 917 b 392 892 403 917 392 906 b 361 817 392 875 389 821 b 297 840 340 814 315 831 l 297 842 b 200 871 275 854 238 878 b 128 749 178 868 128 850 b 153 724 128 735 139 724 b 153 724 153 724 153 724 b 176 749 167 724 176 735 b 207 824 176 765 179 819 b 271 800 228 826 254 811 l 272 799 b 369 769 294 786 331 763 "},"™":{"ha":1014,"x_min":0,"x_max":0,"o":"m 957 536 b 868 432 961 483 922 436 b 767 499 822 428 781 457 l 761 486 b 674 431 746 453 711 431 b 586 486 636 431 601 453 l 581 499 b 488 431 567 460 531 431 b 479 432 485 431 482 432 b 390 536 425 436 386 483 l 410 763 l 379 763 l 379 528 b 282 431 379 475 336 431 b 185 528 229 431 185 475 l 185 763 l 153 763 b 56 860 99 763 56 806 b 153 957 56 914 99 957 l 413 957 b 464 942 432 957 449 951 b 499 956 474 949 486 953 b 603 901 542 964 585 942 l 674 754 l 744 901 b 849 956 763 942 806 964 b 929 868 892 947 925 911 l 957 536 m 413 835 b 436 860 426 835 436 846 b 413 883 436 874 426 883 l 153 883 b 128 860 139 883 128 874 b 153 835 128 846 139 835 l 258 835 l 258 528 b 282 504 258 515 269 504 b 307 528 296 504 307 515 l 307 835 l 413 835 m 863 504 b 885 531 875 506 885 517 l 856 861 b 836 883 856 872 847 882 b 810 871 825 886 814 881 l 674 585 l 538 871 b 511 883 533 881 522 886 b 492 861 500 882 492 872 l 463 531 b 485 504 463 517 472 506 b 488 504 486 504 486 504 b 511 526 500 504 510 514 l 532 768 l 651 518 b 674 504 656 510 664 504 b 696 518 683 504 692 510 l 815 768 l 836 526 b 863 504 838 513 849 503 "},"š":{"ha":703,"x_min":0,"x_max":0,"o":"m 618 81 l 744 81 l 744 8 l 578 8 l 578 8 l 460 8 b 474 15 465 10 469 13 b 557 140 522 42 551 85 b 363 349 565 228 503 296 b 240 479 233 399 238 454 b 297 564 243 517 263 546 b 524 554 365 597 472 586 b 557 561 535 547 550 550 b 549 596 564 574 561 588 b 276 607 488 635 360 649 b 192 483 225 581 196 538 b 213 396 189 461 190 429 b 346 303 236 358 281 328 b 508 146 500 244 513 185 b 450 58 504 107 485 76 b 176 69 378 18 251 32 b 144 58 165 75 150 71 b 156 26 139 47 143 32 b 199 8 169 19 183 14 l 78 8 l 78 8 l -42 8 l -42 81 l 75 81 b 79 90 76 85 78 88 b 210 135 103 139 161 158 b 415 122 272 104 371 97 b 436 153 429 129 435 138 b 426 175 436 158 438 164 b 319 235 414 189 385 210 b 151 356 239 265 185 306 b 118 488 113 414 117 469 b 243 672 125 569 168 635 b 276 686 254 678 265 682 l 163 863 b 192 997 133 908 147 968 b 326 968 238 1026 297 1013 l 367 906 l 406 968 b 540 997 435 1013 494 1026 b 569 863 585 968 599 908 l 465 700 b 589 657 513 693 556 678 b 618 522 633 628 647 568 b 485 493 590 478 529 464 b 331 499 456 510 374 521 b 313 474 315 490 313 483 b 314 463 311 465 313 464 b 389 417 318 457 333 438 b 569 307 471 385 529 349 b 629 133 615 257 636 197 b 618 81 628 115 624 97 m 386 713 l 508 903 b 501 936 515 914 513 929 b 467 928 489 943 475 940 l 367 771 l 265 928 b 232 936 258 940 243 943 b 224 903 221 929 217 914 l 346 713 b 367 701 350 706 358 701 b 386 713 375 701 382 706 "},"›":{"ha":485,"x_min":0,"x_max":0,"o":"m 410 388 b 410 274 435 354 435 308 l 232 25 b 153 -15 213 -1 183 -15 b 96 3 133 -15 114 -10 b 74 139 53 35 43 94 l 211 331 l 74 524 b 96 660 43 567 53 628 b 232 636 140 690 200 681 l 410 388 m 351 317 b 351 344 357 325 357 336 l 172 594 b 139 600 165 606 150 608 b 133 565 128 592 125 576 l 301 331 l 133 96 b 139 63 125 85 128 69 b 153 57 143 58 147 57 b 172 68 160 57 168 61 l 351 317 "},"œ":{"ha":1293,"x_min":0,"x_max":0,"o":"m 1029 563 b 1101 389 1075 521 1101 456 b 1100 358 1101 378 1101 368 l 697 358 b 701 385 699 367 700 376 b 904 604 718 508 796 592 b 1029 563 963 610 1004 585 m 788 431 l 1024 431 b 981 508 1017 461 1001 489 b 913 531 960 526 938 533 b 788 431 854 525 810 489 m 1224 82 l 1335 82 l 1335 10 l 1218 10 l 1218 10 l 1090 10 b 1142 31 1110 15 1126 24 b 1153 63 1154 36 1158 51 b 1121 74 1147 75 1132 81 b 904 33 1071 50 993 24 b 756 118 847 39 793 71 b 696 297 728 153 700 210 b 696 310 696 301 696 306 l 1121 310 b 1121 310 1121 310 1121 310 l 1121 310 b 1121 310 1121 310 1121 310 b 1122 310 1122 310 1122 310 b 1124 310 1124 310 1124 310 b 1125 310 1124 310 1125 310 b 1126 310 1125 310 1126 310 b 1128 311 1126 310 1126 311 b 1129 311 1128 311 1128 311 b 1129 311 1129 311 1129 311 b 1131 313 1131 311 1131 311 b 1132 313 1131 313 1132 313 b 1133 313 1132 313 1132 313 b 1133 314 1133 313 1133 314 b 1135 314 1135 314 1135 314 b 1136 315 1135 314 1136 315 b 1136 315 1136 315 1136 315 b 1138 317 1138 315 1138 317 b 1138 317 1138 317 1138 317 b 1139 318 1139 318 1139 318 b 1140 319 1139 318 1139 318 b 1140 319 1140 319 1140 319 b 1142 321 1140 321 1140 321 b 1142 322 1142 321 1142 322 b 1142 324 1142 322 1142 322 b 1143 324 1143 324 1143 324 b 1143 325 1143 325 1143 325 b 1143 326 1143 326 1143 326 b 1144 328 1144 326 1144 328 b 1144 329 1144 328 1144 328 b 1144 329 1144 329 1144 329 b 1144 329 1144 329 1144 329 b 1150 389 1149 349 1150 368 b 1061 599 1150 469 1117 549 b 899 651 1015 639 958 658 b 668 457 788 640 704 567 b 419 639 622 564 528 639 b 142 313 265 639 142 492 b 314 10 142 175 213 58 l 190 10 l 190 10 l -42 10 l -42 82 l 132 82 b 68 313 90 149 68 229 b 165 589 68 415 103 514 b 419 711 232 668 322 711 b 663 600 511 711 597 672 b 678 618 668 606 672 613 b 892 725 733 679 807 715 b 1110 653 971 733 1049 707 b 1224 389 1181 589 1224 490 b 1215 315 1224 364 1221 339 b 1215 313 1215 315 1215 314 b 1215 313 1215 313 1215 313 b 1215 313 1215 313 1215 313 b 1214 308 1215 311 1215 310 b 1214 308 1214 308 1214 308 b 1213 304 1214 307 1214 306 b 1213 303 1213 304 1213 303 b 1211 299 1213 301 1213 300 b 1211 299 1211 299 1211 299 b 1210 294 1211 297 1210 296 b 1208 293 1210 294 1210 294 b 1208 290 1208 293 1208 292 b 1207 289 1207 290 1207 289 b 1206 288 1206 288 1206 288 b 1204 285 1206 286 1204 285 b 1203 283 1204 283 1204 283 b 1201 281 1203 282 1201 281 b 1201 279 1201 279 1201 279 b 1199 276 1200 278 1200 276 b 1199 275 1199 276 1199 275 b 1196 272 1197 275 1197 274 b 1196 272 1196 272 1196 272 b 1193 269 1194 271 1193 269 b 1192 268 1193 268 1192 268 b 1190 265 1192 267 1190 267 b 1189 265 1189 265 1189 265 b 1186 263 1188 264 1188 263 b 1185 261 1186 263 1186 261 b 1183 260 1185 261 1183 260 b 1182 258 1182 260 1182 258 b 1179 257 1181 258 1181 257 b 1178 256 1179 256 1178 256 b 1176 254 1176 254 1176 254 b 1174 253 1175 254 1175 253 b 1172 251 1174 253 1172 251 b 1169 250 1171 251 1171 250 b 1168 249 1169 250 1169 250 b 1165 247 1168 249 1167 249 b 1164 247 1165 247 1165 247 b 1161 246 1164 247 1163 246 b 1160 244 1161 246 1161 246 b 1157 243 1160 244 1158 244 b 1156 243 1157 243 1156 243 b 1153 242 1154 243 1154 243 b 1151 242 1153 242 1151 242 b 1149 240 1150 242 1149 240 b 1146 240 1147 240 1147 240 b 1144 239 1146 240 1144 240 b 1142 239 1143 239 1142 239 b 1139 239 1140 239 1140 239 b 1136 238 1139 239 1138 238 b 1135 238 1136 238 1135 238 b 1131 238 1133 238 1132 238 b 1131 238 1131 238 1131 238 b 1125 236 1129 238 1128 238 b 1125 236 1125 236 1125 236 b 1121 236 1124 236 1122 236 b 1121 236 1121 236 1121 236 l 1121 236 b 1119 236 1119 236 1119 236 l 778 236 b 813 163 785 208 797 183 b 911 106 839 131 874 110 b 1089 140 988 99 1056 124 b 1218 94 1138 164 1196 143 b 1224 82 1221 90 1222 86 m 649 10 l 649 10 l 524 10 b 671 174 588 40 640 100 b 717 88 683 138 700 110 b 815 10 744 54 778 26 l 690 10 b 690 10 690 10 690 10 l 649 10 m 419 590 b 647 328 540 590 640 474 b 647 297 647 318 647 307 b 419 33 640 150 540 33 b 190 313 293 33 190 158 b 419 590 190 465 293 590 m 524 160 b 575 297 554 197 572 246 b 575 326 574 307 574 317 b 524 464 571 379 554 428 b 419 517 494 499 457 517 b 314 464 381 517 343 499 b 263 313 281 424 263 369 b 314 160 263 254 281 200 b 419 107 343 125 381 107 b 524 160 457 107 494 125 "},"Ÿ":{"ha":668,"x_min":0,"x_max":0,"o":"m 431 82 l 708 82 l 708 10 l 431 10 l 431 10 l 358 10 l 358 10 l 358 364 l 633 892 b 622 925 639 903 635 918 b 590 914 611 931 596 926 l 333 422 l 78 914 b 44 925 71 926 57 931 b 35 892 33 918 28 903 l 310 364 l 310 10 l 310 10 l 236 10 l 236 10 l -42 10 l -42 82 l 236 82 l 236 346 l -31 858 b 11 989 -56 906 -36 964 b 118 978 47 1008 89 1001 b 110 1024 113 992 110 1007 b 240 1154 110 1096 168 1154 b 346 1101 283 1154 322 1133 b 450 1154 369 1133 407 1154 b 582 1024 522 1154 582 1096 b 578 994 582 1013 581 1004 b 656 989 603 1003 631 1003 b 697 858 704 964 722 906 l 431 346 l 431 82 m 240 1081 b 183 1024 208 1081 183 1056 b 240 965 183 990 208 965 b 299 1024 274 965 299 990 b 240 1081 299 1056 274 1081 m 333 581 l 501 903 b 450 892 486 896 468 892 b 346 944 407 892 369 913 b 240 892 322 913 283 892 b 154 925 207 892 176 904 l 333 581 m 450 965 b 508 1024 482 965 508 990 b 450 1081 508 1056 482 1081 b 392 1024 418 1081 392 1056 b 450 965 392 990 418 965 "},"¡":{"ha":372,"x_min":0,"x_max":0,"o":"m 300 -233 b 300 -236 300 -235 300 -235 b 186 -349 300 -299 249 -349 b 74 -236 125 -349 74 -299 b 74 -233 74 -235 74 -235 l 89 394 b 143 481 90 432 113 464 b 56 604 92 497 56 546 b 186 735 56 676 114 735 b 317 604 258 735 317 676 b 229 481 317 547 281 499 b 283 394 261 465 283 432 m 186 -276 b 226 -236 208 -276 226 -258 l 211 393 b 186 418 211 407 200 418 b 163 393 174 418 163 407 l 147 -236 b 186 -276 147 -258 165 -276 m 186 546 b 244 604 218 546 244 572 b 186 661 244 636 218 661 b 128 604 154 661 128 636 b 186 546 128 572 154 546 "},"¢":{"ha":739,"x_min":0,"x_max":0,"o":"m 536 272 b 669 236 583 299 643 283 b 635 104 697 190 681 131 b 506 57 594 81 551 65 l 506 -22 b 408 -119 506 -75 463 -119 b 311 -22 356 -119 311 -75 l 311 72 b 169 158 258 90 210 119 b 56 438 96 229 56 328 b 169 717 56 546 96 644 b 311 801 210 756 258 785 l 311 889 b 408 986 311 943 356 986 b 506 889 463 986 506 943 l 506 817 b 635 771 551 810 594 794 b 669 638 681 744 697 685 b 536 603 643 592 583 575 b 442 628 508 619 475 628 b 419 628 433 628 426 628 b 418 628 419 628 419 628 b 250 438 318 618 250 542 b 418 247 250 332 318 257 b 419 247 419 247 419 247 b 442 246 426 246 433 246 b 536 272 475 246 508 256 m 597 167 b 607 200 610 174 614 189 b 574 208 600 211 585 215 b 442 174 533 186 488 174 b 413 175 431 174 421 174 b 411 175 411 175 411 175 b 176 438 274 189 176 294 b 411 700 176 581 274 686 b 413 700 411 700 411 700 b 442 701 421 701 431 701 b 574 665 488 701 533 689 b 607 675 585 658 600 663 b 597 708 614 686 610 701 b 442 750 550 735 496 750 b 433 750 439 750 436 750 l 433 889 b 408 914 433 903 422 914 b 385 889 396 914 385 903 l 385 746 b 221 664 322 735 265 707 b 128 438 161 607 128 526 b 221 211 128 349 161 268 b 385 129 265 168 322 140 l 385 -22 b 408 -46 385 -35 396 -46 b 433 -22 422 -46 433 -35 l 433 125 b 442 125 436 125 439 125 b 597 167 496 125 550 139 "},"£":{"ha":857,"x_min":0,"x_max":0,"o":"m 704 139 b 801 42 758 139 801 96 b 704 -56 801 -12 758 -56 l 156 -56 b 57 35 104 -56 60 -15 b 139 138 54 86 89 131 b 226 204 146 139 194 153 b 260 333 247 238 258 281 l 161 333 b 64 431 108 333 64 376 b 161 528 64 485 108 528 l 233 528 b 290 821 221 603 217 726 b 536 926 328 869 401 926 b 700 894 582 926 651 915 b 750 767 749 874 771 817 b 622 717 728 718 671 696 b 536 732 606 724 564 732 b 443 700 490 732 460 721 b 429 533 415 665 417 592 b 432 528 431 532 431 529 l 588 528 b 685 431 640 528 685 485 b 588 333 685 376 640 333 l 454 333 b 413 139 454 260 440 196 l 704 139 m 704 18 b 729 42 718 18 729 28 b 704 67 729 56 718 67 l 263 67 b 326 133 285 82 307 104 b 378 406 372 204 390 294 l 588 406 b 611 431 600 406 611 417 b 588 454 611 444 600 454 l 372 454 b 358 517 368 475 364 496 b 386 746 342 589 339 688 b 536 804 417 785 467 804 b 651 783 571 804 625 794 b 683 796 664 778 678 783 b 671 828 689 808 682 822 b 536 853 633 844 574 853 b 347 776 451 853 388 828 b 311 506 276 685 301 546 b 322 454 315 489 319 471 l 161 454 b 138 431 149 454 138 444 b 161 406 138 417 149 406 l 329 406 b 286 161 340 304 326 222 b 151 65 233 81 153 65 b 132 40 139 64 131 53 b 156 18 133 26 143 18 l 704 18 "},"¤":{"ha":878,"x_min":0,"x_max":0,"o":"m 708 293 l 781 217 b 776 79 818 176 815 115 b 710 51 758 61 733 51 b 639 82 685 51 658 63 l 576 149 b 439 114 535 126 489 114 b 288 158 383 114 332 131 l 219 94 b 153 67 201 76 176 67 b 82 97 126 67 101 78 b 86 235 46 136 47 199 l 163 308 b 139 436 147 347 139 390 b 169 578 139 486 150 535 l 97 654 b 101 792 60 694 63 756 b 239 789 140 829 201 828 l 301 722 b 439 757 343 744 389 757 b 590 713 494 757 546 740 l 658 776 b 796 774 697 814 758 813 b 792 636 832 735 831 672 l 715 563 b 739 436 731 524 739 481 b 708 293 739 385 728 336 m 726 132 b 728 165 736 140 736 156 l 618 282 b 667 436 649 324 667 378 b 625 578 667 489 651 538 l 742 689 b 743 724 751 699 751 714 b 708 724 733 733 718 733 l 594 617 b 439 685 554 658 499 685 b 292 625 383 685 332 663 l 186 739 b 151 739 176 749 161 749 b 150 706 142 731 142 715 l 260 589 b 211 436 229 547 211 493 b 253 293 211 382 226 333 l 136 182 b 135 147 126 172 126 157 b 153 140 140 143 146 140 b 169 147 158 140 165 142 l 283 254 b 439 188 324 213 379 188 b 586 246 494 188 546 208 l 692 132 b 710 125 697 128 704 125 b 726 132 715 125 722 128 m 439 636 b 618 436 538 636 618 546 b 439 236 618 325 538 236 b 260 436 340 236 260 325 b 439 636 260 546 340 636 m 439 308 b 544 436 497 308 544 365 b 439 563 544 506 497 563 b 333 436 381 563 333 506 b 439 308 333 365 381 308 "},"¥":{"ha":906,"x_min":0,"x_max":0,"o":"m 797 1017 b 838 886 844 992 863 933 l 625 476 l 714 476 b 811 379 768 476 811 433 b 790 319 811 357 804 336 b 811 261 804 303 811 283 b 714 164 811 207 768 164 l 550 164 l 550 -4 b 453 -101 550 -57 507 -101 b 356 -4 399 -101 356 -57 l 356 164 l 192 164 b 94 261 139 164 94 207 b 115 319 94 283 103 303 b 94 379 103 336 94 357 b 192 476 94 433 139 476 l 282 476 l 68 886 b 110 1017 43 933 61 992 b 240 975 157 1042 215 1024 l 453 568 l 665 975 b 797 1017 690 1024 749 1042 m 774 919 b 763 953 779 932 775 946 b 731 942 751 958 736 954 l 453 410 l 175 942 b 143 953 169 954 154 958 b 132 919 131 946 126 932 l 401 403 l 192 403 b 168 379 179 403 168 393 b 192 354 168 365 179 354 l 426 354 l 429 351 l 429 285 l 192 285 b 168 261 179 285 168 274 b 192 236 168 247 179 236 l 429 236 l 429 -4 b 453 -28 429 -17 439 -28 b 478 -4 467 -28 478 -17 l 478 236 l 714 236 b 739 261 728 236 739 247 b 714 285 739 274 728 285 l 478 285 l 478 351 l 479 354 l 714 354 b 739 379 728 354 739 365 b 714 403 739 393 728 403 l 504 403 l 774 919 "},"¦":{"ha":306,"x_min":0,"x_max":0,"o":"m 153 985 b 250 888 207 985 250 942 l 250 425 b 153 328 250 371 207 328 b 56 425 99 328 56 371 l 56 888 b 153 985 56 942 99 985 m 176 425 l 176 888 b 153 913 176 901 167 913 b 128 888 139 913 128 901 l 128 425 b 153 400 128 411 139 400 b 176 425 167 400 176 411 m 153 324 b 250 226 207 324 250 281 l 250 -236 b 153 -333 250 -290 207 -333 b 56 -236 99 -333 56 -290 l 56 226 b 153 324 56 281 99 324 m 176 -236 l 176 226 b 153 250 176 240 167 250 b 128 226 139 250 128 240 l 128 -236 b 153 -261 128 -250 139 -261 b 176 -236 167 -261 176 -250 "},"§":{"ha":740,"x_min":0,"x_max":0,"o":"m 363 544 b 561 374 531 488 564 438 b 479 247 560 315 518 274 b 328 315 442 271 392 293 b 194 397 261 336 217 364 b 178 463 176 424 176 447 b 271 585 183 526 233 565 b 363 544 296 569 326 556 m 489 375 b 475 410 489 392 486 399 b 339 475 451 431 407 453 b 275 500 315 482 294 490 b 250 457 263 489 251 474 b 254 439 250 449 250 444 b 350 383 260 429 282 407 b 471 336 397 368 438 353 b 489 375 481 347 489 361 m 607 553 b 683 369 660 503 685 442 b 617 207 682 311 658 256 b 643 94 636 174 644 136 b 508 -108 640 8 592 -65 b 340 -146 458 -133 400 -146 b 99 -74 256 -146 169 -121 b 74 63 54 -43 43 18 b 208 88 104 106 164 118 b 419 65 276 40 369 39 b 449 100 449 79 449 94 b 432 132 449 110 447 118 b 422 139 429 135 426 138 b 421 140 422 140 422 140 b 289 200 394 160 350 179 b 93 329 196 231 132 272 b 57 474 64 372 51 421 b 129 629 61 532 88 585 b 107 749 110 665 103 706 b 225 929 114 828 156 892 b 613 911 340 992 507 968 b 651 779 660 886 678 826 b 521 739 626 732 568 714 b 318 758 457 774 361 782 b 300 732 306 753 301 746 b 304 714 300 724 300 719 b 325 694 307 710 313 703 b 328 693 326 693 326 693 b 400 660 342 683 365 671 b 607 553 497 628 563 593 m 610 372 b 557 499 611 422 594 464 b 378 590 521 532 464 561 b 286 632 340 603 310 617 b 285 633 286 633 286 633 b 244 672 268 646 254 658 b 228 738 226 699 226 722 b 283 822 231 776 250 804 b 554 804 357 863 479 844 b 588 814 567 797 582 801 b 578 847 594 825 589 840 b 260 865 492 893 351 915 b 179 742 211 839 183 797 b 204 646 176 706 185 675 b 228 617 211 636 219 626 b 129 467 169 579 135 526 b 154 371 126 431 135 399 b 313 268 182 328 236 294 b 464 200 383 244 432 222 b 467 197 464 199 465 199 b 521 97 511 165 522 133 b 453 0 519 46 483 15 b 168 26 372 -40 250 -29 b 133 21 157 35 142 32 b 140 -12 126 10 129 -6 b 340 -74 197 -53 271 -74 b 475 -43 389 -74 436 -62 b 569 97 535 -12 568 38 b 519 217 571 143 556 182 b 610 372 576 260 608 314 "},"¨":{"ha":582,"x_min":0,"x_max":0,"o":"m 396 951 b 526 821 468 951 526 893 b 396 689 526 747 468 689 b 292 742 353 689 315 710 b 186 689 267 710 229 689 b 56 821 114 689 56 747 b 186 951 56 893 114 951 b 292 899 229 951 267 931 b 396 951 315 931 353 951 m 186 763 b 244 821 218 763 244 788 b 186 878 244 853 218 878 b 128 821 154 878 128 853 b 186 763 128 788 154 763 m 396 763 b 454 821 428 763 454 788 b 396 878 454 853 428 878 b 338 821 364 878 338 853 b 396 763 338 788 364 763 "},"Ã":{"ha":919,"x_min":0,"x_max":0,"o":"m 746 0 l 743 0 l 743 0 b 739 0 742 0 740 0 b 647 67 699 0 660 25 l 592 229 l 328 229 l 272 67 b 176 0 258 24 218 -1 l 176 0 l 174 0 l 275 303 l 644 303 l 746 0 m 850 72 l 961 72 l 961 0 l 797 0 l 685 332 b 683 336 685 333 685 335 l 482 932 b 460 949 479 942 469 949 b 436 932 449 949 440 942 l 240 351 l 157 351 b 133 326 143 351 133 340 b 157 303 133 313 143 303 l 224 303 l 122 0 l -42 0 l -42 72 l 69 72 l 124 235 b 60 326 86 249 60 285 b 157 424 60 381 103 424 l 188 424 l 331 847 b 240 944 281 850 240 893 b 263 1057 240 989 247 1026 b 374 1139 286 1101 325 1132 b 504 1107 428 1147 475 1125 b 600 1185 514 1151 553 1185 b 600 1185 600 1185 600 1185 b 697 1088 654 1185 697 1142 b 674 975 697 1043 689 1006 b 572 894 653 932 617 903 l 754 357 b 754 356 754 357 754 356 l 850 72 m 456 994 b 553 964 478 982 515 958 b 625 1088 575 968 625 986 b 600 1113 624 1101 614 1113 b 600 1113 600 1113 600 1113 b 576 1088 586 1113 575 1101 b 546 1013 576 1071 574 1017 b 482 1036 525 1010 499 1025 l 481 1038 b 383 1067 458 1050 422 1074 b 313 944 363 1064 313 1046 b 338 919 313 931 324 919 b 338 919 338 919 338 919 b 361 944 350 919 361 931 b 392 1019 361 961 364 1015 b 456 996 413 1022 438 1006 l 456 994 m 292 351 l 460 849 l 628 351 l 292 351 m 393 424 l 526 424 l 460 621 l 393 424 "},"Ä":{"ha":919,"x_min":0,"x_max":0,"o":"m 292 351 l 460 849 l 628 351 l 292 351 m 393 424 l 526 424 l 460 621 l 393 424 m 746 0 l 743 0 l 743 0 b 739 0 742 0 740 0 b 647 67 699 0 660 25 l 592 229 l 328 229 l 272 67 b 176 0 258 24 218 -1 l 176 0 l 174 0 l 275 303 l 644 303 l 746 0 m 850 72 l 961 72 l 961 0 l 797 0 l 685 332 b 683 336 685 333 685 335 l 482 932 b 460 949 479 942 469 949 b 436 932 449 949 440 942 l 240 351 l 157 351 b 133 326 143 351 133 340 b 157 303 133 313 143 303 l 224 303 l 122 0 l -42 0 l -42 72 l 69 72 l 124 235 b 60 326 86 249 60 285 b 157 424 60 381 103 424 l 188 424 l 344 889 b 224 1019 278 893 224 950 b 356 1150 224 1092 283 1150 b 460 1097 399 1150 436 1129 b 565 1150 483 1129 522 1150 b 696 1019 638 1150 696 1092 b 574 888 696 950 642 893 l 754 357 b 754 356 754 357 754 356 l 850 72 m 356 961 b 414 1019 388 961 414 986 b 356 1078 414 1051 388 1078 b 297 1019 324 1078 297 1051 b 356 961 297 986 324 961 m 507 1019 b 565 961 507 986 532 961 b 622 1019 597 961 622 986 b 565 1078 622 1051 597 1078 b 507 1019 532 1078 507 1051 "},"Æ":{"ha":1233,"x_min":0,"x_max":0,"o":"m 1164 72 l 1275 72 l 1275 0 l 1132 0 b 1129 0 1132 0 1129 0 b 1111 0 1124 0 1118 0 b 1072 0 1099 0 1085 0 b 1014 0 1053 0 1033 0 b 947 0 992 0 969 0 b 876 0 924 0 900 0 b 806 0 853 0 829 0 b 740 0 783 0 763 0 b 686 0 722 0 704 0 b 668 0 681 0 675 0 b 606 60 624 0 608 36 b 581 244 606 60 581 244 l 375 244 l 250 0 l 169 0 l 331 317 l 646 317 l 678 69 b 678 67 678 69 678 68 b 678 67 678 67 678 67 b 679 65 679 67 679 65 b 679 64 679 65 679 64 b 679 63 679 64 679 64 b 681 63 679 63 681 63 b 681 61 681 61 681 61 b 681 60 681 61 681 60 b 682 58 682 60 682 60 b 682 58 682 58 682 58 b 683 57 683 58 683 57 b 683 57 683 57 683 57 b 685 56 685 56 685 56 b 686 56 685 56 685 56 b 686 54 686 54 686 54 b 688 54 688 54 688 54 b 689 53 688 53 688 53 b 689 53 689 53 689 53 b 690 51 690 51 690 51 b 696 50 692 50 694 50 b 696 50 696 50 696 50 b 697 49 696 49 697 49 b 699 49 697 49 699 49 b 700 49 699 49 700 49 b 701 49 700 49 700 49 b 701 49 701 49 701 49 l 1067 49 b 1092 72 1081 49 1092 60 b 1067 97 1092 86 1081 97 l 724 97 l 692 340 b 692 342 692 340 692 340 b 690 350 692 344 690 347 l 675 460 l 1036 460 b 1060 483 1049 460 1060 471 b 1036 508 1060 497 1049 508 l 669 508 l 622 865 l 1067 865 b 1092 890 1081 865 1092 876 b 1067 914 1092 904 1081 914 l 597 914 b 572 901 588 915 578 910 l 294 356 b 293 350 294 353 293 351 l 115 0 l 43 0 l -42 0 l -42 72 l 69 72 l 508 935 b 600 988 525 969 561 989 l 1067 988 b 1164 890 1121 988 1164 944 b 1067 793 1164 836 1121 793 l 706 793 l 733 581 l 1036 581 b 1133 483 1089 581 1133 538 b 1036 386 1133 431 1089 386 l 758 386 l 761 364 b 764 344 763 357 764 351 l 788 169 l 1067 169 b 1164 72 1121 169 1164 126 m 639 365 l 356 365 l 581 810 l 639 365 m 556 439 l 539 567 l 474 439 l 556 439 "},"Ç":{"ha":951,"x_min":0,"x_max":0,"o":"m 883 72 l 993 72 l 993 0 l 865 0 b 838 -25 857 -10 849 -18 b 649 -92 779 -60 715 -83 b 669 -169 663 -115 669 -142 b 599 -301 669 -221 643 -269 b 467 -343 563 -328 515 -343 b 333 -300 418 -343 371 -328 b 314 -164 290 -268 282 -207 b 382 -126 331 -142 356 -129 b 376 -86 376 -114 375 -100 b 382 -58 376 -76 379 -67 b 276 0 344 -43 310 -24 l -42 0 l -42 72 l 197 72 b 69 431 115 168 69 293 b 219 810 69 578 122 714 b 579 957 313 904 442 957 b 838 885 671 957 760 932 b 869 751 883 857 897 797 b 736 718 842 706 782 690 b 579 763 689 747 635 763 b 264 431 394 763 264 626 b 579 97 264 235 394 97 b 736 142 635 97 689 113 b 869 108 782 169 842 154 b 883 72 876 97 881 85 m 799 38 b 807 71 811 44 814 60 b 774 79 800 82 786 86 b 579 25 715 43 649 25 b 192 431 354 25 192 194 b 579 835 192 665 354 835 b 774 781 649 835 715 817 b 807 789 786 774 800 778 b 799 822 814 801 811 815 b 579 883 733 863 657 883 b 271 758 461 883 351 839 b 143 431 188 676 143 558 b 271 101 143 301 188 185 b 489 -15 331 42 406 1 b 451 -79 472 -46 454 -76 b 449 -90 450 -83 449 -86 b 471 -117 447 -104 457 -115 b 474 -117 471 -117 472 -117 b 547 -169 514 -118 547 -142 b 467 -221 547 -197 511 -221 b 407 -203 444 -221 422 -215 b 372 -208 396 -194 381 -197 b 378 -242 364 -218 367 -233 b 467 -269 401 -260 433 -269 b 556 -243 500 -269 532 -260 b 596 -169 582 -224 596 -197 b 511 -74 596 -125 561 -87 l 540 -22 b 579 -24 554 -24 567 -24 b 799 38 657 -24 733 -3 "},"È":{"ha":901,"x_min":0,"x_max":0,"o":"m 832 72 l 943 72 l 943 0 l 799 0 l 799 0 l 138 0 b 138 0 138 0 138 0 l -42 0 l -42 72 l 106 72 b 201 169 106 126 149 169 l 201 747 b 106 844 149 747 106 790 b 203 942 106 899 149 942 l 381 942 l 304 1035 b 318 1172 271 1076 276 1138 b 456 1158 360 1206 421 1200 l 582 1001 b 604 942 597 985 604 963 l 735 942 b 832 844 788 942 832 899 b 735 747 832 790 788 747 l 396 747 l 396 574 l 703 574 b 800 476 757 574 800 531 b 703 379 800 422 757 379 l 396 379 l 396 169 l 735 169 b 832 72 788 169 832 126 m 361 1082 l 489 925 b 507 917 493 919 500 917 b 522 922 513 917 518 918 b 526 956 533 931 535 946 l 399 1113 b 364 1115 390 1122 375 1124 b 361 1082 354 1107 353 1092 m 735 49 b 758 72 747 49 758 60 b 735 97 758 86 747 97 l 324 97 l 324 453 l 703 453 b 726 476 717 453 726 463 b 703 501 726 490 717 501 l 324 501 l 324 819 l 735 819 b 758 844 747 819 758 831 b 735 868 758 858 747 868 l 203 868 b 178 844 189 868 178 858 b 203 819 178 831 189 819 l 275 819 l 275 97 l 203 97 b 178 72 189 97 178 86 b 203 49 178 60 189 49 l 735 49 "},"É":{"ha":901,"x_min":0,"x_max":0,"o":"m 832 72 l 943 72 l 943 0 l 799 0 b 799 0 799 0 799 0 l 138 0 b 138 0 138 0 138 0 l -42 0 l -42 72 l 106 72 b 201 169 106 126 149 169 l 201 747 b 106 844 149 747 106 790 b 203 942 106 899 149 942 l 371 942 b 393 1001 371 963 378 983 l 521 1158 b 657 1172 554 1200 615 1206 b 671 1035 699 1138 706 1076 l 594 942 l 735 942 b 832 844 788 942 832 899 b 735 747 832 790 788 747 l 396 747 l 396 574 l 703 574 b 800 476 757 574 800 531 b 703 379 800 422 757 379 l 396 379 l 396 169 l 735 169 b 832 72 788 169 832 126 m 449 956 b 453 921 440 944 442 929 b 468 915 457 917 463 915 b 488 924 475 915 482 918 l 615 1082 b 611 1115 624 1092 622 1107 b 578 1113 601 1124 586 1122 l 449 956 m 735 49 b 758 72 747 49 758 60 b 735 97 758 86 747 97 l 324 97 l 324 453 l 703 453 b 726 476 717 453 726 463 b 703 501 726 490 717 501 l 324 501 l 324 819 l 735 819 b 758 844 747 819 758 831 b 735 868 758 858 747 868 l 203 868 b 178 844 189 868 178 858 b 203 819 178 831 189 819 l 275 819 l 275 97 l 203 97 b 178 72 189 97 178 86 b 203 49 178 60 189 49 l 735 49 "},"Ê":{"ha":901,"x_min":0,"x_max":0,"o":"m 832 72 l 943 72 l 943 0 l 799 0 b 799 0 799 0 799 0 l 138 0 b 138 0 138 0 138 0 l -42 0 l -42 72 l 106 72 b 201 169 106 126 149 169 l 201 747 b 106 844 149 747 106 790 b 203 942 106 899 149 942 l 247 942 b 272 1006 247 964 256 988 l 410 1157 b 482 1189 429 1178 456 1189 b 554 1157 510 1189 536 1178 l 693 1006 b 718 942 708 988 717 964 l 735 942 b 832 844 788 942 832 899 b 735 747 832 790 788 747 l 396 747 l 396 574 l 703 574 b 800 476 757 574 800 531 b 703 379 800 422 757 379 l 396 379 l 396 169 l 735 169 b 832 72 788 169 832 126 m 326 957 b 328 922 317 946 318 931 b 363 924 338 913 353 914 l 482 1056 l 603 924 b 621 915 607 918 614 915 b 636 922 626 915 632 918 b 639 957 647 931 647 946 l 500 1108 b 482 1117 496 1114 489 1117 b 464 1108 475 1117 469 1114 l 326 957 m 735 49 b 758 72 747 49 758 60 b 735 97 758 86 747 97 l 324 97 l 324 453 l 703 453 b 728 476 717 453 728 463 b 703 501 728 490 717 501 l 324 501 l 324 819 l 735 819 b 758 844 747 819 758 831 b 735 868 758 858 747 868 l 203 868 b 178 844 189 868 178 858 b 203 819 178 831 189 819 l 275 819 l 275 97 l 203 97 b 178 72 189 97 178 86 b 203 49 178 60 189 49 l 735 49 "},"Ë":{"ha":901,"x_min":0,"x_max":0,"o":"m 832 72 l 943 72 l 943 0 l 799 0 b 799 0 799 0 799 0 l 138 0 b 138 0 138 0 138 0 l -42 0 l -42 72 l 106 72 b 201 169 106 126 149 169 l 201 747 b 106 844 149 747 106 790 b 203 942 106 899 149 942 l 267 942 b 242 1019 251 964 242 990 b 374 1150 242 1092 300 1150 b 478 1097 415 1150 454 1129 b 582 1150 501 1129 539 1150 b 714 1019 654 1150 714 1092 b 688 942 714 990 704 964 l 735 942 b 832 844 788 942 832 899 b 735 747 832 790 788 747 l 396 747 l 396 574 l 703 574 b 800 476 757 574 800 531 b 703 379 800 422 757 379 l 396 379 l 396 169 l 735 169 b 832 72 788 169 832 126 m 582 1078 b 524 1019 550 1078 524 1051 b 582 961 524 986 550 961 b 640 1019 614 961 640 986 b 582 1078 640 1051 614 1078 m 374 1078 b 315 1019 340 1078 315 1051 b 374 961 315 986 340 961 b 431 1019 406 961 431 986 b 374 1078 431 1051 406 1078 m 735 49 b 758 72 747 49 758 60 b 735 97 758 86 747 97 l 324 97 l 324 453 l 703 453 b 728 476 717 453 728 463 b 703 501 728 490 717 501 l 324 501 l 324 819 l 735 819 b 758 844 747 819 758 831 b 735 868 758 858 747 868 l 203 868 b 178 844 189 868 178 858 b 203 819 178 831 189 819 l 275 819 l 275 97 l 203 97 b 178 72 189 97 178 86 b 203 49 178 60 189 49 l 735 49 "},"Ì":{"ha":518,"x_min":0,"x_max":0,"o":"m 357 72 l 560 72 l 560 0 l 283 0 l 283 893 b 260 918 283 907 272 918 b 235 893 246 918 235 907 l 235 0 l -42 0 l -42 72 l 163 72 l 163 893 b 167 925 163 904 164 915 l 78 1035 b 92 1171 43 1076 50 1138 b 228 1157 133 1206 194 1199 l 356 1001 b 357 879 385 965 385 915 l 357 72 m 296 921 b 299 956 306 929 307 944 l 172 1111 b 138 1115 164 1122 149 1124 b 135 1081 128 1107 125 1092 l 261 925 b 281 915 267 919 274 915 b 296 921 286 915 290 918 "},"Í":{"ha":518,"x_min":0,"x_max":0,"o":"m 357 72 l 560 72 l 560 0 l 283 0 l 283 893 b 260 918 283 907 272 918 b 235 893 246 918 235 907 l 235 0 l -42 0 l -42 72 l 163 72 l 163 889 b 169 1001 140 922 142 968 l 296 1157 b 433 1171 331 1199 392 1206 b 447 1035 475 1138 481 1076 l 353 919 b 357 893 356 911 357 903 l 357 72 m 264 925 l 390 1081 b 388 1115 399 1092 397 1107 b 353 1111 376 1124 361 1122 l 225 956 b 229 921 217 944 218 929 b 244 915 233 918 239 915 b 264 925 251 915 258 919 "},"Î":{"ha":518,"x_min":0,"x_max":0,"o":"m 357 72 l 560 72 l 560 0 l 283 0 l 283 893 b 260 918 283 907 272 918 b 235 893 246 918 235 907 l 235 0 l -42 0 l -42 72 l 163 72 l 163 853 b 121 843 149 846 135 843 b 56 868 97 843 74 851 b 49 1006 15 904 13 965 l 186 1157 b 258 1189 206 1178 231 1189 b 331 1157 286 1189 313 1178 l 468 1006 b 463 868 504 965 501 904 b 357 851 432 842 390 836 l 357 72 m 258 1056 l 379 924 b 413 922 388 914 403 913 b 415 957 422 931 424 946 l 276 1108 b 258 1117 272 1114 265 1117 b 240 1108 251 1117 246 1114 l 103 957 b 104 922 93 946 94 931 b 121 915 108 918 115 915 b 139 924 126 915 133 918 l 258 1056 "},"Ï":{"ha":518,"x_min":0,"x_max":0,"o":"m 357 72 l 560 72 l 560 0 l 283 0 l 283 893 b 260 918 283 907 272 918 b 235 893 246 918 235 907 l 235 0 l -42 0 l -42 72 l 163 72 l 163 888 b 154 888 160 888 157 888 b 24 1019 82 888 24 947 b 154 1150 24 1092 82 1150 b 258 1097 197 1150 235 1129 b 364 1150 283 1129 321 1150 b 494 1019 436 1150 494 1092 b 364 888 494 947 436 888 b 357 888 361 888 358 888 l 357 72 m 154 961 b 213 1019 186 961 213 986 b 154 1078 213 1051 186 1078 b 96 1019 122 1078 96 1051 b 154 961 96 986 122 961 m 306 1019 b 364 961 306 986 331 961 b 422 1019 396 961 422 986 b 364 1078 422 1051 396 1078 b 306 1019 331 1078 306 1051 "},"Ð":{"ha":1125,"x_min":0,"x_max":0,"o":"m 497 25 b 497 25 497 25 497 25 b 361 36 444 25 400 29 l 361 406 l 632 406 b 657 429 646 406 657 417 b 632 454 657 443 646 454 l 361 454 l 361 818 b 497 829 400 825 444 829 b 558 828 515 829 535 829 b 932 428 785 821 932 663 b 558 26 932 192 785 35 b 497 25 535 26 515 25 m 433 332 l 433 100 b 497 99 453 99 474 99 b 497 99 497 99 497 99 b 556 100 514 99 532 99 b 860 428 743 106 860 232 b 556 756 860 624 743 749 b 497 757 532 756 514 757 b 433 754 474 757 453 756 l 433 526 l 632 526 b 729 429 686 526 729 483 b 632 332 729 376 686 332 l 433 332 m 932 72 l 1167 72 l 1167 0 l 851 0 b 851 0 851 0 851 0 l 692 0 b 861 104 757 21 814 56 b 981 428 939 185 981 296 b 861 751 981 558 939 671 b 560 876 785 829 681 872 b 497 878 535 878 515 878 b 331 861 432 878 379 872 b 313 838 319 858 313 849 l 313 454 l 168 454 b 144 429 156 454 144 443 b 168 406 144 417 156 406 l 313 406 l 313 17 b 319 0 313 10 315 4 l 240 0 l 240 0 l -42 0 l -42 72 l 239 72 l 239 332 l 168 332 b 71 429 115 332 71 376 b 168 526 71 483 115 526 l 239 526 l 239 838 b 315 932 239 883 271 922 b 497 951 368 944 426 951 b 563 950 517 951 538 950 b 913 801 700 944 825 892 b 1054 428 1006 707 1054 578 b 932 72 1054 288 1011 165 "},"Ñ":{"ha":968,"x_min":0,"x_max":0,"o":"m 864 72 l 1010 72 l 1010 0 l 847 0 b 794 -40 836 -18 817 -33 b 686 -1 754 -51 710 -36 l 300 575 l 300 0 b 300 0 300 0 300 0 l 226 0 b 226 0 226 0 226 0 l 226 814 l 746 40 b 774 31 753 31 764 26 b 790 53 783 33 790 43 l 790 893 b 767 918 790 907 781 918 b 742 893 753 918 742 907 l 742 133 l 222 907 b 196 917 217 915 206 919 b 178 893 185 914 178 904 l 178 0 b 178 0 178 0 178 0 l 106 0 b 106 0 106 0 106 0 l -42 0 l -42 72 l 106 72 l 106 893 b 174 986 106 936 133 974 b 264 969 206 996 239 989 b 286 1057 267 1003 274 1032 b 396 1139 308 1101 349 1132 b 528 1107 451 1147 499 1125 b 624 1185 538 1151 576 1185 b 624 1185 624 1185 624 1185 b 721 1088 676 1185 721 1142 b 697 975 721 1043 713 1006 b 588 893 675 929 635 900 b 456 924 532 885 486 907 b 360 847 446 881 407 847 b 360 847 360 847 360 847 b 350 847 357 847 354 847 l 669 372 l 669 893 b 767 990 669 947 713 990 b 864 893 821 990 864 947 l 864 72 m 336 944 b 360 919 336 931 347 919 b 360 919 360 919 360 919 b 385 944 374 919 385 931 b 414 1019 385 961 386 1015 b 479 996 435 1022 461 1006 l 479 994 b 576 964 501 982 538 958 b 647 1088 597 968 647 986 b 624 1113 647 1101 636 1113 b 624 1113 624 1113 624 1113 b 599 1088 610 1113 599 1101 b 569 1013 599 1071 597 1017 b 506 1036 549 1010 522 1025 l 504 1038 b 407 1067 482 1050 446 1074 b 336 944 386 1064 336 1046 "},"Ò":{"ha":1035,"x_min":0,"x_max":0,"o":"m 844 432 b 517 25 844 207 697 25 b 190 432 338 25 190 207 b 517 839 190 656 338 839 b 844 432 697 839 844 656 m 517 97 b 690 188 582 97 643 129 b 771 432 743 251 771 339 b 690 675 771 524 743 611 b 517 765 643 733 582 765 b 344 675 453 765 392 733 b 263 432 292 611 263 524 b 344 188 263 339 292 251 b 517 97 392 129 453 97 m 1076 72 l 1076 0 l 776 0 b 776 0 776 0 776 0 l 638 0 b 665 13 647 4 657 8 b 785 111 710 36 750 69 b 893 432 854 197 893 311 b 785 751 893 553 854 665 b 665 850 750 794 710 826 b 517 888 618 875 568 888 b 369 850 465 888 417 875 b 250 751 325 826 285 794 b 142 432 181 665 142 553 b 250 111 142 311 181 197 b 369 13 285 69 325 36 b 396 0 378 8 388 4 l 257 0 b 257 0 257 0 257 0 l -42 0 l -42 72 l 188 72 b 68 432 111 171 68 297 b 193 797 68 569 113 699 b 336 915 235 847 282 888 b 401 943 357 926 379 935 l 331 1031 b 344 1167 297 1072 303 1133 b 482 1153 386 1200 447 1194 l 608 997 b 629 943 621 982 628 963 b 699 915 653 936 676 926 b 842 797 753 888 800 847 b 965 432 921 699 965 569 b 847 72 965 297 924 171 m 549 917 b 551 951 558 926 560 942 l 425 1107 b 390 1110 417 1117 401 1118 b 388 1076 381 1101 379 1086 l 514 921 b 533 911 518 915 525 911 b 549 917 538 911 543 914 "},"Ó":{"ha":1035,"x_min":0,"x_max":0,"o":"m 847 72 l 1076 72 l 1076 0 l 776 0 l 776 0 l 639 0 b 785 111 693 22 743 60 b 893 432 854 197 893 311 b 785 751 893 553 854 665 b 517 888 714 839 618 888 b 250 751 415 888 321 839 b 142 432 181 665 142 553 b 250 111 142 311 181 197 b 396 0 292 60 342 22 l 257 0 b 257 0 257 0 257 0 l -42 0 l -42 72 l 188 72 b 68 432 111 171 68 297 b 193 797 68 569 113 699 b 336 915 235 847 282 888 b 404 943 358 926 381 936 b 426 1006 404 965 411 988 l 553 1161 b 689 1175 586 1203 647 1208 b 703 1038 731 1140 738 1079 l 626 944 b 699 915 651 938 675 928 b 842 797 753 888 800 847 b 965 432 921 699 965 569 b 847 72 965 297 924 171 m 501 921 b 521 929 508 921 515 924 l 647 1085 b 643 1118 656 1094 654 1110 b 610 1115 633 1126 618 1125 l 483 960 b 486 926 475 950 476 935 b 501 921 490 922 496 921 m 517 839 b 844 432 697 839 844 656 b 517 25 844 207 697 25 b 190 432 338 25 190 207 b 517 839 190 656 338 839 m 690 188 b 771 432 743 251 771 339 b 690 675 771 524 743 611 b 517 765 643 733 582 765 b 344 675 453 765 392 733 b 263 432 292 611 263 524 b 344 188 263 339 292 251 b 517 97 392 129 453 97 b 690 188 582 97 643 129 "},"Ô":{"ha":1035,"x_min":0,"x_max":0,"o":"m 517 839 b 844 432 697 839 844 656 b 517 25 844 207 697 25 b 190 432 338 25 190 207 b 517 839 190 656 338 839 m 690 188 b 771 432 743 251 771 339 b 690 675 771 524 743 611 b 517 765 643 733 582 765 b 344 675 453 765 392 733 b 263 432 292 611 263 524 b 344 188 263 339 292 251 b 517 97 392 129 453 97 b 690 188 582 97 643 129 m 847 72 l 1076 72 l 1076 0 l 776 0 l 776 0 l 639 0 b 785 111 693 22 743 60 b 893 432 854 197 893 311 b 785 751 893 553 854 665 b 517 888 714 839 618 888 b 250 751 415 888 321 839 b 142 432 181 665 142 553 b 250 111 142 311 181 197 b 396 0 292 60 342 22 l 257 0 l 257 0 l -42 0 l -42 72 l 188 72 b 68 432 111 171 68 297 b 193 797 68 569 113 699 b 296 892 224 835 258 867 b 307 1008 274 928 278 975 l 444 1160 b 517 1192 464 1181 490 1192 b 589 1160 544 1192 571 1181 l 728 1008 b 738 892 757 975 760 928 b 842 797 776 867 811 835 b 965 432 921 699 965 569 b 847 72 965 297 924 171 m 671 925 b 674 958 682 933 682 949 l 535 1111 b 517 1119 531 1117 524 1119 b 499 1111 510 1119 504 1117 l 361 958 b 363 925 351 949 353 933 b 379 918 367 921 374 918 b 397 926 386 918 392 921 l 517 1058 l 638 926 b 671 925 646 917 661 915 "},"Õ":{"ha":1035,"x_min":0,"x_max":0,"o":"m 847 72 l 1076 72 l 1076 0 l 776 0 b 776 0 776 0 776 0 l 639 0 b 785 111 693 22 743 60 b 893 432 854 197 893 311 b 785 751 893 553 854 665 b 517 888 714 839 618 888 b 250 751 415 888 321 839 b 142 432 181 665 142 553 b 250 111 142 311 181 197 b 396 0 292 60 342 22 l 257 0 l 257 0 l -42 0 l -42 72 l 188 72 b 68 432 111 171 68 297 b 193 797 68 569 113 699 b 303 896 225 838 263 871 b 289 947 293 911 289 928 b 311 1060 289 990 296 1029 b 422 1142 333 1104 374 1135 b 553 1110 476 1150 524 1128 b 649 1188 563 1154 601 1188 b 649 1188 649 1188 649 1188 b 746 1090 703 1188 746 1144 b 722 978 746 1046 738 1008 b 679 924 713 956 697 938 b 699 915 686 921 693 918 b 842 797 753 888 800 847 b 965 432 921 699 965 569 b 847 72 965 297 924 171 m 601 967 b 672 1090 624 971 674 989 b 649 1114 672 1104 663 1114 b 649 1114 649 1114 649 1114 b 624 1090 635 1114 624 1104 b 594 1015 624 1074 622 1019 b 531 1039 574 1013 547 1028 l 529 1039 b 432 1069 507 1053 471 1075 b 361 947 411 1067 361 1049 b 386 922 361 933 372 922 b 386 922 386 922 386 922 b 410 947 399 922 410 933 b 440 1022 410 964 413 1018 b 504 999 461 1025 486 1008 l 504 997 b 601 967 526 983 564 961 m 517 839 b 844 432 697 839 844 656 b 517 25 844 207 697 25 b 190 432 338 25 190 207 b 517 839 190 656 338 839 m 690 188 b 771 432 743 251 771 339 b 690 675 771 524 743 611 b 517 765 643 733 582 765 b 344 675 453 765 392 733 b 263 432 292 611 263 524 b 344 188 263 339 292 251 b 517 97 392 129 453 97 b 690 188 582 97 643 129 "},"Ö":{"ha":1035,"x_min":0,"x_max":0,"o":"m 847 72 l 1076 72 l 1076 0 l 776 0 l 776 0 l 639 0 b 785 111 693 22 743 60 b 893 432 854 197 893 311 b 785 751 893 553 854 665 b 517 888 714 839 618 888 b 250 751 415 888 321 839 b 142 432 181 665 142 553 b 250 111 142 311 181 197 b 396 0 292 60 342 22 l 257 0 b 257 0 257 0 257 0 l -42 0 l -42 72 l 188 72 b 68 432 111 171 68 297 b 193 797 68 569 113 699 b 335 914 233 847 282 886 b 279 1022 301 938 279 978 b 410 1153 279 1094 338 1153 b 515 1100 453 1153 490 1132 b 619 1153 539 1132 576 1153 b 750 1022 692 1153 750 1094 b 697 915 750 978 729 940 b 699 915 697 915 699 915 b 842 797 753 888 800 847 b 965 432 921 699 965 569 b 847 72 965 297 924 171 m 410 964 b 468 1022 442 964 468 989 b 410 1079 468 1054 442 1079 b 351 1022 378 1079 351 1054 b 410 964 351 989 378 964 m 619 964 b 678 1022 651 964 678 989 b 619 1079 678 1054 651 1079 b 561 1022 588 1079 561 1054 b 619 964 561 989 588 964 m 517 839 b 844 432 697 839 844 656 b 517 25 844 207 697 25 b 190 432 338 25 190 207 b 517 839 190 656 338 839 m 690 188 b 771 432 743 251 771 339 b 690 675 771 524 743 611 b 517 765 643 733 582 765 b 344 675 453 765 392 733 b 263 432 292 611 263 524 b 344 188 263 339 292 251 b 517 97 392 129 453 97 b 690 188 582 97 643 129 "},"×":{"ha":944,"x_min":0,"x_max":0,"o":"m 860 106 b 861 -32 897 68 899 7 b 792 -61 842 -51 817 -61 b 724 -33 767 -61 742 -51 l 474 213 l 229 -37 b 160 -67 210 -57 185 -67 b 92 -37 135 -67 110 -57 b 90 100 53 0 53 61 l 335 349 l 86 594 b 85 732 47 632 47 693 b 222 733 122 769 183 771 l 472 488 l 717 736 b 854 738 754 775 817 775 b 856 600 893 700 893 639 l 610 351 l 860 106 m 808 19 b 808 54 818 29 818 44 l 507 350 l 804 651 b 803 686 813 661 813 676 b 769 686 793 696 778 694 l 472 385 l 171 681 b 136 681 161 690 146 690 b 138 646 128 671 128 656 l 439 350 l 142 49 b 142 14 132 39 132 24 b 160 7 147 10 153 7 b 176 14 165 7 172 10 l 474 315 l 774 19 b 792 13 779 14 785 13 b 808 19 797 13 804 14 "},"Ø":{"ha":1035,"x_min":0,"x_max":0,"o":"m 517 839 b 715 756 592 839 660 807 l 290 139 b 190 432 229 213 190 317 b 517 839 190 656 338 839 m 263 432 b 294 272 263 375 274 321 l 615 739 b 517 765 585 757 551 765 b 344 675 453 765 392 733 b 263 432 292 611 263 524 m 847 72 l 1076 72 l 1076 0 l 776 0 b 699 -53 753 -21 726 -37 b 517 -97 642 -82 581 -97 b 336 -53 454 -97 393 -82 b 315 -40 329 -49 322 -44 l 257 -125 b 176 -167 238 -151 207 -167 b 122 -149 158 -167 139 -161 b 97 -14 78 -119 67 -58 l 107 0 l -42 0 l -42 72 l 157 72 l 171 94 b 68 432 106 189 68 307 b 193 797 68 569 113 699 b 336 915 235 847 282 888 b 517 960 393 944 454 960 b 699 915 581 960 642 944 b 726 900 708 910 717 906 l 778 974 b 913 999 808 1018 868 1029 b 938 864 957 968 968 908 l 868 763 b 965 432 931 668 965 553 b 847 72 965 297 924 171 m 517 -24 b 785 111 618 -24 714 24 b 893 432 854 197 893 311 b 785 751 893 553 854 665 b 778 760 782 754 779 757 l 878 906 b 871 939 885 917 882 931 b 838 932 860 946 844 943 l 743 796 b 517 888 678 856 600 888 b 250 751 415 888 321 839 b 142 432 181 665 142 553 b 250 111 142 311 181 197 b 263 97 254 107 258 101 l 157 -56 b 163 -89 149 -67 151 -82 b 176 -93 167 -92 172 -93 b 197 -83 185 -93 192 -90 l 297 63 b 517 -24 361 6 438 -24 m 749 718 b 844 432 808 644 844 543 b 517 25 844 207 697 25 b 325 103 446 25 379 54 l 749 718 m 690 188 b 771 432 743 251 771 339 b 743 582 771 485 761 536 l 425 121 b 517 97 454 106 486 97 b 690 188 582 97 643 129 "},"Ù":{"ha":871,"x_min":0,"x_max":0,"o":"m 735 72 l 913 72 l 913 0 l 675 0 l 675 0 l 546 0 b 728 303 653 49 728 165 l 728 893 b 704 918 728 907 718 918 b 679 893 690 918 679 907 l 679 303 b 435 24 679 149 569 24 b 190 303 300 24 190 149 l 190 893 b 167 918 190 907 179 918 b 142 893 153 918 142 907 l 142 303 b 324 0 142 165 218 49 l 196 0 b 196 0 196 0 196 0 l -42 0 l -42 72 l 135 72 b 69 303 92 140 69 219 l 69 893 b 167 990 69 947 113 990 b 264 893 219 990 264 947 l 264 303 b 435 97 264 189 340 97 b 607 303 531 97 607 189 l 607 893 b 704 990 607 947 650 990 b 801 893 758 990 801 947 l 801 303 b 735 72 801 219 778 140 m 539 1004 b 525 868 574 963 567 901 b 464 846 507 853 485 846 b 389 882 436 846 407 858 l 263 1035 b 276 1172 229 1076 235 1139 b 414 1158 318 1206 381 1200 l 539 1004 m 479 924 b 482 958 489 933 492 949 l 357 1113 b 324 1115 349 1122 333 1124 b 319 1082 313 1107 311 1092 l 444 928 b 464 919 450 922 457 919 b 479 924 469 919 475 921 "},"Ú":{"ha":871,"x_min":0,"x_max":0,"o":"m 735 72 l 913 72 l 913 0 l 675 0 b 675 0 675 0 675 0 l 546 0 b 728 303 653 49 728 165 l 728 893 b 704 918 728 907 718 918 b 679 893 690 918 679 907 l 679 303 b 435 24 679 149 569 24 b 190 303 300 24 190 149 l 190 893 b 167 918 190 907 179 918 b 142 893 153 918 142 907 l 142 303 b 324 0 142 165 218 49 l 196 0 l 196 0 l -42 0 l -42 72 l 135 72 b 69 303 92 140 69 219 l 69 893 b 167 990 69 947 113 990 b 264 893 219 990 264 947 l 264 303 b 435 97 264 189 340 97 b 607 303 531 97 607 189 l 607 893 b 704 990 607 947 650 990 b 801 893 758 990 801 947 l 801 303 b 735 72 801 219 778 140 m 611 1174 b 626 1036 653 1139 660 1078 l 497 879 b 422 843 478 856 450 843 b 361 865 400 843 379 850 b 347 1001 319 899 313 961 l 475 1160 b 611 1174 508 1201 571 1207 m 569 1082 b 565 1117 578 1093 576 1108 b 532 1113 556 1125 540 1124 l 403 956 b 407 922 394 946 397 931 b 422 917 411 918 417 917 b 442 925 429 917 436 919 l 569 1082 "},"Û":{"ha":871,"x_min":0,"x_max":0,"o":"m 735 72 l 913 72 l 913 0 l 675 0 b 675 0 675 0 675 0 l 546 0 b 728 303 653 49 728 165 l 728 893 b 704 918 728 907 718 918 b 679 893 690 918 679 907 l 679 303 b 435 24 679 149 569 24 b 190 303 300 24 190 149 l 190 893 b 167 918 190 907 179 918 b 142 893 153 918 142 907 l 142 303 b 324 0 142 165 218 49 l 196 0 l 196 0 l -42 0 l -42 72 l 135 72 b 69 303 92 140 69 219 l 69 893 b 167 990 69 947 113 990 b 218 976 185 990 203 985 b 238 1008 222 988 228 999 l 375 1160 b 447 1192 393 1181 419 1192 b 519 1160 475 1192 501 1181 l 657 1008 b 672 985 664 1001 668 993 b 704 990 682 989 693 990 b 801 893 758 990 801 947 l 801 303 b 735 72 801 219 778 140 m 292 958 b 293 925 282 949 283 933 b 308 918 297 921 303 918 b 326 926 315 918 322 921 l 447 1058 l 567 926 b 601 925 576 917 592 915 b 603 958 611 933 613 949 l 465 1111 b 447 1119 461 1117 454 1119 b 429 1111 440 1119 433 1117 l 292 958 m 435 97 b 607 303 531 97 607 189 l 607 847 b 513 878 574 840 538 850 l 447 950 l 381 878 b 308 846 363 856 336 846 b 264 857 293 846 278 849 l 264 303 b 435 97 264 189 340 97 "},"Ü":{"ha":871,"x_min":0,"x_max":0,"o":"m 735 72 l 913 72 l 913 0 l 675 0 l 675 0 l 546 0 b 728 303 653 49 728 165 l 728 893 b 704 918 728 907 718 918 b 679 893 690 918 679 907 l 679 303 b 435 24 679 149 569 24 b 190 303 300 24 190 149 l 190 893 b 167 918 190 907 179 918 b 142 893 153 918 142 907 l 142 303 b 324 0 142 165 218 49 l 196 0 l 196 0 l -42 0 l -42 72 l 135 72 b 69 303 92 140 69 219 l 69 893 b 167 990 69 947 113 990 b 210 981 182 990 197 988 b 203 1022 206 993 203 1007 b 335 1153 203 1094 261 1153 b 439 1100 376 1153 415 1132 b 543 1153 463 1132 500 1153 b 675 1022 615 1153 675 1094 b 669 985 675 1008 672 996 b 704 990 681 989 692 990 b 801 893 758 990 801 947 l 801 303 b 735 72 801 219 778 140 m 543 1079 b 485 1022 511 1079 485 1054 b 543 964 485 989 511 964 b 601 1022 575 964 601 989 b 543 1079 601 1054 575 1079 m 335 1079 b 276 1022 301 1079 276 1054 b 335 964 276 989 301 964 b 392 1022 367 964 392 989 b 335 1079 392 1054 367 1079 m 607 893 b 608 907 607 899 607 903 b 543 890 589 897 567 890 b 439 943 500 890 463 911 b 335 890 415 911 376 890 b 261 913 307 890 282 899 b 264 893 263 906 264 900 l 264 303 b 435 97 264 189 340 97 b 607 303 531 97 607 189 l 607 893 "},"Ý":{"ha":668,"x_min":0,"x_max":0,"o":"m 431 72 l 708 72 l 708 0 l 431 0 l 431 0 l 358 0 l 358 0 l 358 356 l 633 882 b 622 915 639 894 635 908 b 590 904 611 921 596 917 l 333 414 l 78 904 b 44 915 71 917 57 921 b 35 882 33 908 28 894 l 310 356 l 310 0 l 310 0 l 236 0 l 236 0 l -42 0 l -42 72 l 236 72 l 236 338 l -31 849 b 11 979 -56 896 -36 956 b 142 939 58 1004 117 986 l 333 571 l 525 939 b 656 979 550 986 608 1004 b 697 849 704 956 722 896 l 431 338 l 431 72 m 517 1167 b 531 1031 558 1133 564 1071 l 403 872 b 326 838 383 849 356 838 b 265 858 306 838 283 844 b 251 996 224 893 218 954 l 379 1153 b 517 1167 414 1194 475 1200 m 474 1076 b 471 1110 482 1086 481 1101 b 436 1107 460 1118 444 1117 l 308 950 b 311 915 300 939 301 924 b 326 910 317 911 322 910 b 346 919 335 910 342 913 l 474 1076 "},"Þ":{"ha":842,"x_min":0,"x_max":0,"o":"m 300 72 l 883 72 l 883 0 l 299 0 l 299 0 l 226 0 l 226 219 b 390 206 275 213 342 206 b 401 206 393 206 397 206 b 596 276 485 208 551 232 b 663 456 640 319 663 379 b 596 635 663 531 640 592 b 401 704 551 678 485 701 b 226 690 353 706 278 699 l 226 897 b 203 922 226 911 215 922 b 178 897 189 922 178 911 l 178 0 l 106 0 l 106 0 l -42 0 l -42 72 l 106 72 l 106 249 b 106 249 106 249 106 249 l 106 661 b 106 661 106 661 106 661 l 106 897 b 203 994 106 951 149 994 b 300 897 256 994 300 951 l 300 772 b 403 776 336 776 374 778 b 647 686 506 775 589 744 b 735 456 704 629 735 550 b 647 224 735 361 704 281 b 403 133 589 167 506 136 b 390 133 399 133 394 133 b 300 138 363 133 332 135 l 300 72 m 400 254 b 226 268 356 253 281 260 l 226 642 b 400 656 281 650 356 657 b 614 456 539 651 614 582 b 400 254 614 328 539 258 m 300 333 b 397 328 336 329 374 326 b 540 456 524 331 540 390 b 397 583 540 519 524 579 b 300 578 374 583 336 581 l 300 333 "},"ß":{"ha":869,"x_min":0,"x_max":0,"o":"m 739 72 l 911 72 l 911 0 l 686 0 l 686 0 l 228 0 b 228 1 228 0 228 0 l 228 585 b 253 778 228 640 228 717 b 422 881 282 847 338 881 b 567 815 493 881 543 858 b 565 660 599 760 581 688 b 524 597 551 638 538 617 b 467 479 494 557 468 521 b 551 339 465 435 492 392 b 632 217 592 303 621 261 b 622 113 643 178 639 140 b 535 57 604 83 575 64 b 356 82 486 47 424 57 b 325 68 343 86 329 81 b 339 36 319 56 326 42 b 543 8 417 7 485 -1 b 664 88 597 18 639 46 b 583 376 714 171 681 290 b 515 478 521 431 515 460 b 563 569 517 506 538 533 b 607 635 576 589 592 610 b 610 840 632 678 650 768 b 422 929 586 881 535 929 b 208 796 317 929 244 885 b 179 585 179 726 179 642 l 179 1 b 179 0 179 0 179 0 l 106 0 l 106 0 l -42 0 l -42 72 l 106 72 l 106 585 b 140 825 106 647 106 740 b 240 951 163 878 197 921 b 422 1003 290 985 351 1003 b 574 969 481 1003 532 992 b 672 876 617 947 650 917 b 706 721 697 832 708 778 b 669 597 701 675 689 631 b 622 528 653 571 636 547 b 589 476 610 510 594 488 b 631 431 592 471 601 457 b 739 72 747 328 789 185 m 300 585 l 300 144 b 347 157 315 153 331 157 b 382 150 358 157 371 154 b 560 150 482 113 544 124 b 503 285 574 172 565 229 b 394 482 454 326 390 393 b 464 640 397 546 431 594 b 503 697 476 658 490 676 b 503 781 510 710 518 756 b 422 808 490 803 451 808 b 321 750 358 808 335 785 b 300 585 300 701 300 635 "},"à":{"ha":717,"x_min":0,"x_max":0,"o":"m 233 281 b 528 347 289 332 393 356 l 528 253 b 324 50 515 201 465 50 b 190 182 244 50 190 104 b 233 281 190 221 204 254 m 454 263 l 454 275 b 282 226 375 272 314 256 b 263 182 269 214 263 201 b 324 124 263 144 285 124 b 454 263 406 124 442 214 m 649 72 l 758 72 l 758 0 l 594 0 b 594 0 594 0 594 0 l 576 0 l 576 0 l 576 365 b 576 369 576 367 576 368 b 576 369 576 369 576 369 b 450 624 575 532 507 597 b 278 633 390 651 324 644 b 150 575 228 622 178 600 b 147 540 140 567 139 551 b 182 538 156 531 171 529 b 431 579 222 574 344 618 b 526 396 489 553 521 490 b 200 317 381 404 265 376 b 142 182 161 281 142 235 b 324 1 142 78 218 1 b 494 79 389 1 449 29 b 528 125 507 94 518 110 l 528 0 b 142 0 525 1 142 0 b 142 0 142 0 142 0 l -42 0 l -42 72 l 92 72 b 68 182 76 106 68 143 b 151 369 68 256 97 321 b 439 469 215 431 314 464 b 400 513 431 489 418 504 b 306 515 376 524 343 525 b 229 483 265 506 238 489 b 92 493 189 447 128 453 b 103 631 57 533 61 594 b 261 704 140 663 199 690 b 281 708 268 707 274 707 l 156 861 b 169 999 122 903 129 964 b 307 985 211 1032 274 1025 l 467 789 b 481 690 490 760 494 722 b 481 690 481 690 481 690 b 606 569 535 665 578 624 b 649 372 633 517 649 450 b 649 369 649 371 649 371 b 649 365 649 368 649 367 l 649 250 b 649 249 649 250 649 250 l 649 72 m 415 725 b 410 742 415 731 414 738 l 250 938 b 217 942 242 949 226 950 b 213 907 206 933 204 918 l 369 715 l 372 711 b 392 703 376 706 383 703 b 407 708 396 703 401 704 b 414 717 410 711 411 714 b 415 722 414 719 415 721 b 415 725 415 724 415 724 "},"á":{"ha":717,"x_min":0,"x_max":0,"o":"m 233 281 b 528 347 289 332 393 356 l 528 253 b 324 50 515 201 465 50 b 190 182 244 50 190 104 b 233 281 190 221 204 254 m 454 263 l 454 275 b 282 226 375 272 314 256 b 263 182 269 214 263 201 b 324 124 263 144 285 124 b 454 263 406 124 442 214 m 649 72 l 758 72 l 758 0 l 594 0 b 594 0 594 0 594 0 l 576 0 l 576 0 l 576 365 b 576 369 576 367 576 368 b 576 369 576 369 576 369 b 450 624 575 532 507 597 b 278 633 390 651 324 644 b 150 575 228 622 178 600 b 147 540 140 567 139 551 b 182 538 156 531 171 529 b 431 579 222 574 344 618 b 526 396 489 553 521 490 b 200 317 381 404 265 376 b 142 182 161 281 142 235 b 324 1 142 78 218 1 b 494 79 389 1 449 29 b 528 125 507 94 518 110 l 528 0 b 142 0 525 1 142 0 b 142 0 142 0 142 0 l -42 0 l -42 72 l 92 72 b 68 182 76 106 68 143 b 151 369 68 256 97 321 b 439 469 215 431 314 464 b 400 513 431 489 418 504 b 306 515 376 524 343 525 b 229 483 265 506 238 489 b 92 493 189 447 128 453 b 103 631 57 533 61 594 b 251 703 138 661 193 688 b 269 789 243 732 250 764 l 429 985 b 567 999 464 1025 525 1032 b 581 861 608 964 614 903 l 450 701 b 481 690 460 699 471 694 b 606 569 535 665 578 624 b 649 372 633 517 649 450 b 649 369 649 371 649 371 b 649 365 649 368 649 367 l 649 250 b 649 249 649 250 649 250 l 649 72 m 344 703 b 364 711 353 703 360 706 l 524 907 b 519 942 532 918 531 933 b 486 938 510 950 494 949 l 326 742 b 329 708 318 732 319 717 b 344 703 335 704 340 703 "},"â":{"ha":717,"x_min":0,"x_max":0,"o":"m 233 281 b 528 347 289 332 393 356 l 528 253 b 324 50 515 201 465 50 b 190 182 244 50 190 104 b 233 281 190 221 204 254 m 454 263 l 454 275 b 282 226 375 272 314 256 b 263 182 269 214 263 201 b 324 124 263 144 285 124 b 454 263 406 124 442 214 m 649 72 l 758 72 l 758 0 l 594 0 b 594 0 594 0 594 0 l 576 0 l 576 0 l 576 365 b 576 369 576 367 576 368 b 576 369 576 369 576 369 b 450 624 575 532 507 597 b 278 633 390 651 324 644 b 150 575 228 622 178 600 b 147 540 140 567 139 551 b 182 538 156 531 171 529 b 431 579 222 574 344 618 b 526 396 489 553 521 490 b 200 317 381 404 265 376 b 142 182 161 281 142 235 b 324 1 142 78 218 1 b 494 79 389 1 449 29 b 528 125 507 94 518 110 l 528 0 b 142 0 525 1 142 0 b 142 0 142 0 142 0 l -42 0 l -42 72 l 92 72 b 68 182 76 106 68 143 b 151 369 68 256 97 321 b 439 469 215 431 314 464 b 400 513 431 489 418 504 b 306 515 376 524 343 525 b 229 483 265 506 238 489 b 92 493 189 447 128 453 b 103 631 57 533 61 594 b 171 674 121 646 144 661 b 168 782 149 704 146 747 l 290 972 b 372 1017 308 1000 339 1017 b 454 972 406 1017 436 1000 l 575 782 b 546 647 604 738 590 676 b 546 647 546 647 546 647 b 606 569 569 626 590 600 b 649 372 633 517 649 450 b 649 369 649 371 649 371 b 649 365 649 368 649 367 l 649 250 b 649 249 649 250 649 250 l 649 72 m 507 710 b 514 743 518 717 521 732 l 392 933 b 372 944 388 940 381 944 b 351 933 364 944 356 940 l 229 743 b 238 710 222 732 226 717 b 271 717 249 701 264 706 l 372 875 l 472 717 b 493 706 478 710 485 706 b 507 710 497 706 503 707 "},"ã":{"ha":717,"x_min":0,"x_max":0,"o":"m 233 281 b 528 347 289 332 393 356 l 528 253 b 324 50 515 201 465 50 b 190 182 244 50 190 104 b 233 281 190 221 204 254 m 454 263 l 454 275 b 282 226 375 272 314 256 b 263 182 269 214 263 201 b 324 124 263 144 285 124 b 454 263 406 124 442 214 m 649 72 l 758 72 l 758 0 l 594 0 b 594 0 594 0 594 0 l 576 0 l 576 0 l 576 365 b 576 369 576 367 576 368 b 576 369 576 369 576 369 b 450 624 575 532 507 597 b 278 633 390 651 324 644 b 150 575 228 622 178 600 b 147 540 140 567 139 551 b 182 538 156 531 171 529 b 431 579 222 574 344 618 b 526 396 489 553 521 490 b 200 317 381 404 265 376 b 142 182 161 281 142 235 b 324 1 142 78 218 1 b 494 79 389 1 449 29 b 528 125 507 94 518 110 l 528 0 b 142 0 525 1 142 0 l 142 0 l -42 0 l -42 72 l 92 72 b 68 182 76 106 68 143 b 151 369 68 256 97 321 b 439 469 215 431 314 464 b 400 513 431 489 418 504 b 306 515 376 524 343 525 b 229 483 265 506 238 489 b 92 493 189 447 128 453 b 103 631 57 533 61 594 b 176 676 122 647 147 663 b 144 749 157 693 144 719 b 167 861 144 792 151 831 b 276 943 189 906 229 936 b 408 911 332 951 379 929 b 504 989 418 956 457 989 b 504 989 504 989 504 989 b 601 892 558 989 601 946 b 578 779 601 847 593 810 b 468 696 556 733 515 704 b 465 696 467 696 467 696 b 481 690 471 694 476 692 b 606 569 535 665 578 624 b 649 372 633 517 649 450 b 649 369 649 371 649 371 b 649 365 649 368 649 367 l 649 250 b 649 249 649 250 649 250 l 649 72 m 360 799 b 457 768 382 786 419 763 b 528 892 479 772 528 790 b 504 915 528 906 518 915 b 504 915 504 915 504 915 b 479 892 490 915 479 906 b 450 817 479 875 478 821 b 386 840 429 814 403 829 l 385 840 b 288 871 363 854 326 876 b 217 749 267 868 217 850 b 242 724 217 735 228 724 b 242 724 242 724 242 724 b 265 749 254 724 265 735 b 296 824 265 765 268 819 b 360 800 315 826 342 810 l 360 799 "},"ä":{"ha":717,"x_min":0,"x_max":0,"o":"m 233 281 b 528 347 289 332 393 356 l 528 253 b 324 50 515 201 465 50 b 190 182 244 50 190 104 b 233 281 190 221 204 254 m 454 263 l 454 275 b 282 226 375 272 314 256 b 263 182 269 214 263 201 b 324 124 263 144 285 124 b 454 263 406 124 442 214 m 649 72 l 758 72 l 758 0 l 594 0 b 594 0 594 0 594 0 l 576 0 l 576 0 l 576 365 b 576 369 576 367 576 368 b 576 369 576 369 576 369 b 450 624 575 532 507 597 b 278 633 390 651 324 644 b 150 575 228 622 178 600 b 147 540 140 567 139 551 b 182 538 156 531 171 529 b 431 579 222 574 344 618 b 526 396 489 553 521 490 b 200 317 381 404 265 376 b 142 182 161 281 142 235 b 324 1 142 78 218 1 b 494 79 389 1 449 29 b 528 125 507 94 518 110 l 528 0 b 142 0 525 1 142 0 l 142 0 l -42 0 l -42 72 l 92 72 b 68 182 76 106 68 143 b 151 369 68 256 97 321 b 439 469 215 431 314 464 b 400 513 431 489 418 504 b 306 515 376 524 343 525 b 229 483 265 506 238 489 b 92 493 189 447 128 453 b 103 631 57 533 61 594 b 232 697 133 657 181 681 b 136 824 176 713 136 763 b 268 954 136 896 196 954 b 372 901 311 954 349 933 b 476 954 396 933 435 954 b 608 824 550 954 608 896 b 476 692 608 750 550 692 b 476 692 476 692 476 692 b 481 690 478 692 479 690 b 606 569 535 665 578 624 b 649 372 633 517 649 450 b 649 369 649 371 649 371 b 649 365 649 368 649 367 l 649 250 b 649 249 649 250 649 250 l 649 72 m 268 765 b 326 824 300 765 326 790 b 268 881 326 856 300 881 b 210 824 236 881 210 856 b 268 765 210 790 236 765 m 343 715 b 407 711 364 717 386 715 b 372 744 394 721 382 732 b 343 715 364 733 354 724 m 419 824 b 476 765 419 790 444 765 b 535 824 510 765 535 790 b 476 881 535 856 510 881 b 419 824 444 881 419 856 "},"å":{"ha":717,"x_min":0,"x_max":0,"o":"m 233 281 b 528 347 289 332 393 356 l 528 253 b 324 50 515 201 465 50 b 190 182 244 50 190 104 b 233 281 190 221 204 254 m 454 263 l 454 275 b 282 226 375 272 314 256 b 263 182 269 214 263 201 b 324 124 263 144 285 124 b 454 263 406 124 442 214 m 376 907 b 453 833 418 907 453 874 b 376 761 453 794 418 761 b 301 833 335 761 301 794 b 376 907 301 874 335 907 m 649 72 l 758 72 l 758 0 l 594 0 b 594 0 594 0 594 0 l 576 0 l 576 0 l 576 365 b 576 369 576 367 576 368 b 576 369 576 369 576 369 b 450 624 575 532 507 597 b 278 633 390 651 324 644 b 150 575 228 622 178 600 b 147 540 140 567 139 551 b 182 538 156 531 171 529 b 431 579 222 574 344 618 b 526 396 489 553 521 490 b 200 317 381 404 265 376 b 142 182 161 281 142 235 b 324 1 142 78 218 1 b 494 79 389 1 449 29 b 528 125 507 94 518 110 l 528 0 b 142 0 525 1 142 0 b 142 0 142 0 142 0 l -42 0 l -42 72 l 92 72 b 68 182 76 106 68 143 b 151 369 68 256 97 321 b 439 469 215 431 314 464 b 400 513 431 489 418 504 b 306 515 376 524 343 525 b 229 483 265 506 238 489 b 92 493 189 447 128 453 b 103 631 57 533 61 594 b 236 699 135 658 183 682 b 179 833 201 733 179 781 b 376 1028 179 940 268 1028 b 574 833 486 1028 574 940 b 499 681 574 772 544 717 b 606 569 543 656 581 618 b 649 372 633 517 649 450 b 649 369 649 371 649 371 b 649 365 649 368 649 367 l 649 250 b 649 249 649 250 649 250 l 649 72 m 376 713 b 501 833 446 713 501 767 b 376 956 501 900 446 956 b 253 833 308 956 253 900 b 376 713 253 767 308 713 "},"æ":{"ha":1154,"x_min":0,"x_max":0,"o":"m 889 557 b 963 379 935 515 963 450 b 961 350 963 369 963 360 l 579 350 b 582 376 579 358 581 367 b 775 594 597 500 672 583 b 889 557 817 600 857 586 m 668 422 l 885 422 b 840 503 878 454 863 483 b 783 522 824 518 804 525 b 668 422 717 515 683 465 m 1083 74 l 1196 74 l 1196 0 l 1078 0 b 1078 0 1078 0 1078 0 l 953 0 b 1003 22 971 7 988 15 b 1013 54 1014 28 1019 43 b 981 65 1007 67 993 71 b 775 25 933 42 860 15 b 638 104 722 31 672 60 b 576 300 608 142 578 203 l 576 301 l 981 301 b 982 301 981 301 982 301 l 982 301 b 982 301 982 301 982 301 b 983 301 982 301 983 301 b 985 301 983 301 985 301 b 986 301 985 301 986 301 b 988 301 986 301 988 301 b 989 301 988 301 988 301 b 990 303 989 301 989 303 b 990 303 990 303 990 303 b 992 303 992 303 992 303 b 993 304 992 303 993 304 b 994 304 993 304 993 304 b 994 304 994 304 994 304 b 996 306 994 306 996 306 b 997 306 996 306 996 306 b 997 307 997 307 997 307 b 999 308 997 307 999 307 b 999 308 999 308 999 308 b 1000 310 1000 308 1000 310 b 1000 310 1000 310 1000 310 b 1001 311 1001 311 1001 311 b 1001 313 1001 311 1001 313 b 1003 314 1003 313 1003 313 b 1003 314 1003 314 1003 314 b 1004 315 1003 315 1004 315 b 1004 317 1004 317 1004 317 b 1004 318 1004 318 1004 318 b 1006 321 1004 318 1006 319 b 1011 379 1010 340 1011 360 b 922 593 1011 463 978 543 b 769 643 878 632 825 650 b 561 483 675 632 600 574 b 540 535 556 501 549 519 b 447 625 519 576 488 607 b 150 572 336 675 197 614 b 149 538 140 564 139 547 b 182 536 157 528 172 528 b 428 581 222 572 342 619 b 528 385 489 553 522 488 b 204 306 383 393 269 365 b 142 163 164 268 142 219 b 231 0 142 90 176 32 l 122 0 b 122 0 122 0 122 0 l -42 0 l -42 74 l 83 74 b 69 163 74 101 69 132 b 154 360 69 240 99 308 b 442 458 221 419 318 453 b 397 514 432 483 418 504 b 232 482 344 538 254 503 b 94 489 192 446 131 449 b 101 626 58 529 61 590 b 258 704 138 660 197 689 b 476 692 314 718 397 728 b 568 622 513 676 543 653 b 761 715 621 675 688 707 b 971 647 838 724 911 700 b 1085 379 1042 583 1085 483 b 1076 307 1085 356 1082 331 b 1072 292 1076 301 1074 296 b 1072 290 1072 290 1072 290 b 1071 286 1072 289 1071 288 b 1069 285 1071 286 1071 286 b 1068 282 1069 285 1069 283 b 1068 281 1068 282 1068 281 b 1067 278 1067 279 1067 279 b 1065 275 1067 278 1065 276 b 1064 275 1065 275 1064 275 b 1063 271 1064 274 1063 272 b 1063 271 1063 271 1063 271 b 1060 267 1061 269 1060 268 b 1060 267 1060 267 1060 267 b 1057 264 1058 265 1057 265 b 1056 263 1057 264 1057 264 b 1054 260 1056 263 1054 261 b 1053 260 1053 260 1053 260 b 1050 257 1053 258 1051 258 b 1050 256 1050 257 1050 257 b 1047 254 1049 256 1049 254 b 1046 253 1047 254 1047 253 b 1044 251 1046 253 1044 251 b 1043 250 1043 250 1043 250 b 1040 249 1042 249 1042 249 b 1039 247 1040 247 1039 247 b 1038 246 1039 246 1038 246 b 1035 244 1036 244 1036 244 b 1033 243 1035 243 1035 243 b 1031 242 1033 243 1032 242 b 1031 240 1031 242 1031 242 b 1026 239 1029 240 1028 240 b 1026 239 1026 239 1026 239 b 1022 238 1025 238 1024 238 b 1022 236 1022 238 1022 236 b 1018 235 1021 236 1019 236 b 1018 235 1018 235 1018 235 b 1014 233 1017 235 1015 233 b 1013 233 1014 233 1013 233 b 1010 232 1011 233 1011 232 b 1007 232 1008 232 1008 232 b 1006 231 1007 231 1006 231 b 1003 231 1004 231 1003 231 b 1000 229 1001 231 1001 231 b 996 229 999 229 997 229 b 996 229 996 229 996 229 b 981 228 990 228 986 228 l 658 228 b 694 150 667 192 681 167 b 783 97 718 119 750 101 b 947 131 854 89 917 115 b 1078 88 996 154 1054 135 b 1083 74 1081 83 1082 78 m 236 269 b 528 336 293 321 396 344 l 528 308 b 528 299 528 304 528 301 l 528 238 b 324 25 515 183 465 25 b 190 163 246 25 190 82 b 236 269 190 206 206 242 m 456 246 l 456 264 b 286 217 378 261 318 244 b 264 163 271 201 264 185 b 324 97 264 121 286 97 b 456 246 407 97 443 201 m 542 0 b 542 0 542 0 542 0 l 425 0 b 494 57 450 14 474 33 b 553 156 521 88 540 122 b 599 75 567 122 583 94 b 689 0 624 43 656 18 l 567 0 b 567 0 567 0 567 0 l 542 0 "},"ç":{"ha":765,"x_min":0,"x_max":0,"o":"m 692 72 l 807 72 l 807 0 l 688 0 b 650 -42 679 -17 667 -32 b 539 -87 615 -62 578 -79 b 560 -165 553 -111 560 -139 b 489 -299 560 -218 535 -265 b 358 -340 453 -325 407 -340 b 224 -297 308 -340 261 -325 b 206 -161 182 -265 172 -204 b 272 -122 222 -139 246 -125 b 267 -86 268 -111 267 -99 b 274 -53 267 -75 269 -64 b 199 0 246 -39 221 -21 l -42 0 l -42 72 l 136 72 b 69 306 93 139 69 219 b 182 594 69 418 110 521 b 454 708 253 668 350 708 b 650 653 524 708 592 689 b 682 518 696 624 710 564 b 549 486 654 472 594 458 b 454 514 519 504 488 514 b 264 306 342 514 264 428 b 454 97 264 183 342 97 b 549 124 488 97 519 107 b 682 92 594 151 654 138 b 692 72 686 86 689 79 m 613 21 b 619 54 624 28 628 42 b 586 61 613 65 599 69 b 454 24 547 38 501 24 b 190 306 301 24 190 143 b 454 586 190 468 301 586 b 586 549 501 586 547 574 b 619 557 599 542 613 546 b 613 590 628 568 624 583 b 454 635 564 619 510 635 b 233 544 369 635 292 603 b 142 306 175 483 142 399 b 233 67 142 213 175 128 b 378 -15 274 26 324 -1 b 343 -76 361 -43 344 -74 b 339 -89 340 -81 339 -85 b 363 -114 339 -101 350 -112 b 439 -165 404 -115 439 -139 b 358 -218 439 -194 401 -218 b 297 -200 335 -218 313 -211 b 264 -204 286 -192 271 -194 b 268 -239 256 -215 257 -231 b 358 -267 292 -257 324 -267 b 446 -240 392 -267 422 -257 b 488 -165 472 -221 488 -194 b 403 -71 488 -122 451 -85 l 429 -24 b 454 -25 438 -24 446 -25 b 613 21 510 -25 564 -8 "},"è":{"ha":882,"x_min":0,"x_max":0,"o":"m 618 553 b 692 379 664 511 692 447 b 689 349 692 369 690 358 l 288 349 b 290 376 288 358 289 367 b 493 594 307 499 385 583 b 618 553 551 600 593 575 m 376 422 l 613 422 b 569 499 606 453 590 481 b 501 522 549 517 526 525 b 376 422 443 515 400 479 m 813 72 l 924 72 l 924 0 l 807 0 l 807 0 l 679 0 b 731 21 699 7 715 14 b 742 54 743 28 747 42 b 710 65 736 65 722 71 b 493 25 660 42 583 15 b 344 108 436 31 382 61 b 285 300 317 146 286 206 l 710 300 b 710 300 710 300 710 300 l 710 300 b 710 300 710 300 710 300 b 713 300 711 300 711 300 b 713 300 713 300 713 300 b 714 301 714 300 714 301 b 715 301 715 301 715 301 b 717 301 715 301 717 301 b 718 301 717 301 718 301 b 719 303 718 301 718 301 b 719 303 719 303 719 303 b 721 303 721 303 721 303 b 722 304 721 303 722 304 b 724 304 722 304 722 304 b 724 306 724 304 724 304 b 725 306 724 306 725 306 b 725 307 725 306 725 306 b 726 307 726 307 726 307 b 728 308 726 307 728 308 b 728 310 728 308 728 308 b 729 310 728 310 729 310 b 729 311 729 310 729 311 b 731 311 731 311 731 311 b 731 313 731 313 731 313 b 732 314 731 314 732 314 b 732 315 732 314 732 315 b 732 317 732 315 732 315 b 733 317 732 317 733 317 b 733 319 733 318 733 318 b 733 319 733 319 733 319 b 733 319 733 319 733 319 b 733 319 733 319 733 319 b 740 379 738 339 740 360 b 650 589 740 460 707 539 b 488 643 606 631 547 649 b 242 382 357 629 263 529 b 239 349 240 371 239 360 l 167 349 b 142 325 153 349 142 338 b 167 300 142 311 153 300 l 236 300 b 307 79 238 193 274 122 b 404 0 333 44 367 18 l 279 0 l 279 0 l -42 0 l -42 72 l 222 72 b 169 228 199 113 178 163 l 167 228 b 69 325 113 228 69 271 b 167 422 69 378 113 422 l 175 422 b 267 608 190 494 221 558 b 429 706 311 657 367 690 l 303 861 b 317 999 268 903 275 964 b 453 985 358 1032 419 1025 l 613 789 b 628 690 636 760 640 722 b 700 643 653 679 678 663 b 813 379 771 579 813 481 b 806 306 813 354 810 331 b 804 304 806 306 804 304 b 804 304 804 304 804 304 b 804 304 804 304 804 304 b 803 299 804 303 804 300 b 803 299 803 299 803 299 b 803 294 803 297 803 296 b 801 294 801 294 801 294 b 800 290 801 293 801 292 b 800 289 800 290 800 289 b 799 286 800 288 799 288 b 799 285 799 285 799 285 b 797 282 797 283 797 282 b 796 279 796 281 796 281 b 794 278 796 279 794 278 b 793 275 794 276 794 276 b 793 274 793 275 793 274 b 790 271 792 272 792 272 b 790 269 790 271 790 271 b 788 267 789 269 789 268 b 788 267 788 267 788 267 b 785 264 786 265 786 264 b 785 263 785 263 785 263 b 782 260 783 261 783 261 b 782 258 782 260 782 260 b 779 257 781 258 779 257 b 778 256 779 256 778 256 b 776 253 778 254 776 254 b 775 253 775 253 775 253 b 772 250 774 251 774 251 b 771 249 772 250 771 250 b 769 247 769 249 769 249 b 767 246 768 247 768 246 b 765 244 767 246 765 246 b 763 243 764 244 764 244 b 761 243 763 243 763 243 b 758 240 761 242 760 242 b 758 240 758 240 758 240 b 754 239 757 239 756 239 b 754 238 754 239 754 238 b 750 236 753 238 751 238 b 750 236 750 236 750 236 b 746 235 749 236 747 235 b 744 235 746 235 746 235 b 742 233 744 233 743 233 b 740 232 742 233 740 232 b 738 232 739 232 739 232 b 736 231 736 232 736 231 b 733 231 735 231 733 231 b 731 229 732 231 732 231 b 729 229 731 229 729 229 b 725 229 728 229 726 229 b 724 229 725 229 725 229 b 721 228 722 228 721 228 b 719 228 719 228 719 228 b 715 228 718 228 717 228 b 714 228 715 228 715 228 b 710 228 713 228 711 228 b 710 228 710 228 710 228 l 710 228 b 708 228 708 228 708 228 l 367 228 b 403 154 375 199 386 175 b 501 97 428 122 464 101 b 678 131 576 89 644 115 b 808 85 726 154 785 133 b 813 72 810 81 811 76 m 553 708 b 556 742 563 717 565 732 l 397 938 b 363 942 388 949 372 950 b 358 907 351 933 350 918 l 518 711 b 538 703 524 706 531 703 b 553 708 543 703 549 704 "}}}
